<svg xmlns="http://www.w3.org/2000/svg" width="58" height="24" viewBox="0 0 58 24" fill="#0C163D">
<path d="M0.44754 10.9107L10.5593 0.798648C10.848 0.51 11.2327 0.351562 11.6429 0.351562C12.0536 0.351562 12.438 0.510228 12.7267 0.798648L13.6448 1.71695C13.9332 2.00514 14.0921 2.39008 14.0921 2.80052C14.0921 3.21073 13.9332 3.60864 13.6448 3.89683L7.74569 9.80888H56.4873C57.3323 9.80888 58 10.4704 58 11.3156V12.6139C58 13.4591 57.3323 14.1873 56.4873 14.1873H7.67877L13.6445 20.1324C13.933 20.421 14.0919 20.7955 14.0919 21.2059C14.0919 21.6159 13.933 21.9958 13.6445 22.2843L12.7265 23.1996C12.4378 23.4883 12.0533 23.6456 11.6427 23.6456C11.2325 23.6456 10.8478 23.4862 10.5591 23.1976L0.447315 13.0858C0.157986 12.7962 -0.00113678 12.4097 0 11.9988C-0.000911713 11.5865 0.157982 11.1998 0.44754 10.9107Z" fill="#0C163D"/>
</svg>