<svg xmlns="http://www.w3.org/2000/svg" width="58" height="24" viewBox="0 0 58 24" fill="none">
  <path d="M57.5525 10.9107L47.4407 0.798648C47.152 0.51 46.7673 0.351562 46.3571 0.351562C45.9464 0.351562 45.562 0.510228 45.2733 0.798648L44.3552 1.71695C44.0668 2.00514 43.9079 2.39008 43.9079 2.80052C43.9079 3.21073 44.0668 3.60864 44.3552 3.89683L50.2543 9.80888H1.51267C0.667669 9.80888 0 10.4704 0 11.3156V12.6139C0 13.4591 0.667669 14.1873 1.51267 14.1873H50.3212L44.3555 20.1324C44.067 20.421 43.9081 20.7955 43.9081 21.2059C43.9081 21.6159 44.067 21.9958 44.3555 22.2843L45.2735 23.1996C45.5622 23.4883 45.9467 23.6456 46.3573 23.6456C46.7675 23.6456 47.1522 23.4862 47.4409 23.1976L57.5527 13.0858C57.842 12.7962 58.0011 12.4097 58 11.9988C58.0009 11.5865 57.842 11.1998 57.5525 10.9107Z" fill="white"/>
</svg>