<svg width="29" height="25" viewBox="0 0 29 25" fill="none" xmlns="http://www.w3.org/2000/svg">
<g id="Group 427319239">
<path id="Vector" d="M0.906242 21.8828H19.0313C19.5315 21.8828 19.9375 22.5418 19.9375 23.3536C19.9375 24.1655 19.5315 24.8243 19.0313 24.8243H0.906242C0.40597 24.8243 1.33514e-05 24.1654 1.33514e-05 23.3536C-6.29425e-05 22.5417 0.40597 21.8828 0.906242 21.8828Z" fill="#0C163D"/>
<path id="Vector_2" d="M0.906229 10.9414H28.0938C28.594 10.9414 29 11.6004 29 12.4122C29 13.224 28.594 13.8829 28.0938 13.8829H0.906229C0.405958 13.8829 0 13.224 0 12.4122C0 11.6004 0.405958 10.9414 0.906229 10.9414Z" fill="#0C163D"/>
<path id="Vector_3" d="M28.0938 2.94152H0.906229C0.405958 2.94152 0 2.28255 0 1.47076C0 0.658848 0.406033 0 0.906229 0H28.0938C28.594 0 29 0.65897 29 1.47076C29 2.28255 28.594 2.94152 28.0938 2.94152Z" fill="#0C163D"/>
</g>
</svg>
