<svg width="249" height="61" viewBox="0 0 249 61" fill="none" xmlns="http://www.w3.org/2000/svg">
<circle cx="2.34622" cy="2.34622" r="2.34622" transform="matrix(1 0 0 -1 56.3086 60.9979)" fill="#F69951"/>
<circle cx="2.34622" cy="2.34622" r="2.34622" transform="matrix(1 0 0 -1 75.0781 60.998)" fill="#F69951"/>
<circle cx="2.34622" cy="2.34622" r="2.34622" transform="matrix(1 0 0 -1 93.8477 60.998)" fill="#F69951"/>
<circle cx="2.34622" cy="2.34622" r="2.34622" transform="matrix(1 0 0 -1 112.613 60.998)" fill="#F69951"/>
<circle cx="2.34622" cy="2.34622" r="2.34622" transform="matrix(1 0 0 -1 131.391 60.998)" fill="#F69951"/>
<circle cx="2.34622" cy="2.34622" r="2.34622" transform="matrix(1 0 0 -1 150.156 60.998)" fill="#F69951"/>
<circle cx="2.34622" cy="2.34622" r="2.34622" transform="matrix(1 0 0 -1 168.93 60.998)" fill="#F69951"/>
<circle cx="2.34622" cy="2.34622" r="2.34622" transform="matrix(1 0 0 -1 187.695 60.998)" fill="#F69951"/>
<circle cx="2.34622" cy="2.34622" r="2.34622" transform="matrix(1 0 0 -1 56.3086 42.2285)" fill="#F69951"/>
<circle cx="2.34622" cy="2.34622" r="2.34622" transform="matrix(1 0 0 -1 37.5391 42.2285)" fill="#F69951"/>
<circle cx="2.34622" cy="2.34622" r="2.34622" transform="matrix(1 0 0 -1 75.0781 42.2285)" fill="#F69951"/>
<circle cx="2.34622" cy="2.34622" r="2.34622" transform="matrix(1 0 0 -1 93.8438 42.2285)" fill="#F69951"/>
<circle cx="2.34622" cy="2.34622" r="2.34622" transform="matrix(1 0 0 -1 112.617 42.2285)" fill="#F69951"/>
<circle cx="2.34622" cy="2.34622" r="2.34622" transform="matrix(1 0 0 -1 131.387 42.2285)" fill="#F69951"/>
<circle cx="2.34622" cy="2.34622" r="2.34622" transform="matrix(1 0 0 -1 150.16 42.2285)" fill="#F69951"/>
<circle cx="2.34622" cy="2.34622" r="2.34622" transform="matrix(1 0 0 -1 168.926 42.2285)" fill="#F69951"/>
<circle cx="2.34622" cy="2.34622" r="2.34622" transform="matrix(1 0 0 -1 187.703 42.2285)" fill="#F69951"/>
<circle cx="2.34622" cy="2.34622" r="2.34622" transform="matrix(1 0 0 -1 206.469 42.2285)" fill="#F69951"/>
<circle cx="2.34622" cy="2.34622" r="2.34622" transform="matrix(1 0 0 -1 56.3086 23.457)" fill="#F69951"/>
<circle cx="2.34622" cy="2.34622" r="2.34622" transform="matrix(1 0 0 -1 37.5391 23.457)" fill="#F69951"/>
<circle cx="2.34622" cy="2.34622" r="2.34622" transform="matrix(1 0 0 -1 18.7695 23.457)" fill="#F69951"/>
<circle cx="2.34622" cy="2.34622" r="2.34622" transform="matrix(1 0 0 -1 75.0742 23.457)" fill="#F69951"/>
<circle cx="2.34622" cy="2.34622" r="2.34622" transform="matrix(1 0 0 -1 93.8516 23.457)" fill="#F69951"/>
<circle cx="2.34622" cy="2.34622" r="2.34622" transform="matrix(1 0 0 -1 112.617 23.457)" fill="#F69951"/>
<circle cx="2.34622" cy="2.34622" r="2.34622" transform="matrix(1 0 0 -1 131.391 23.457)" fill="#F69951"/>
<circle cx="2.34622" cy="2.34622" r="2.34622" transform="matrix(1 0 0 -1 150.156 23.457)" fill="#F69951"/>
<circle cx="2.34622" cy="2.34622" r="2.34622" transform="matrix(1 0 0 -1 168.934 23.457)" fill="#F69951"/>
<circle cx="2.34622" cy="2.34622" r="2.34622" transform="matrix(1 0 0 -1 187.699 23.457)" fill="#F69951"/>
<circle cx="2.34622" cy="2.34622" r="2.34622" transform="matrix(1 0 0 -1 206.469 23.457)" fill="#F69951"/>
<circle cx="2.34622" cy="2.34622" r="2.34622" transform="matrix(1 0 0 -1 225.238 23.457)" fill="#F69951"/>
<circle cx="2.34622" cy="2.34622" r="2.34622" transform="matrix(1 0 0 -1 56.3047 4.69141)" fill="#F69951"/>
<circle cx="2.34622" cy="2.34622" r="2.34622" transform="matrix(1 0 0 -1 37.5391 4.69141)" fill="#F69951"/>
<circle cx="2.34622" cy="2.34622" r="2.34622" transform="matrix(1 0 0 -1 18.7695 4.69141)" fill="#F69951"/>
<circle cx="2.34622" cy="2.34622" r="2.34622" transform="matrix(1 0 0 -1 0 4.69141)" fill="#F69951"/>
<circle cx="2.34622" cy="2.34622" r="2.34622" transform="matrix(1 0 0 -1 75.082 4.69141)" fill="#F69951"/>
<circle cx="2.34622" cy="2.34622" r="2.34622" transform="matrix(1 0 0 -1 93.8477 4.69141)" fill="#F69951"/>
<circle cx="2.34622" cy="2.34622" r="2.34622" transform="matrix(1 0 0 -1 112.621 4.69141)" fill="#F69951"/>
<circle cx="2.34622" cy="2.34622" r="2.34622" transform="matrix(1 0 0 -1 131.387 4.69141)" fill="#F69951"/>
<circle cx="2.34622" cy="2.34622" r="2.34622" transform="matrix(1 0 0 -1 150.164 4.69141)" fill="#F69951"/>
<circle cx="2.34622" cy="2.34622" r="2.34622" transform="matrix(1 0 0 -1 168.93 4.69141)" fill="#F69951"/>
<circle cx="2.34622" cy="2.34622" r="2.34622" transform="matrix(1 0 0 -1 187.699 4.69141)" fill="#F69951"/>
<circle cx="2.34622" cy="2.34622" r="2.34622" transform="matrix(1 0 0 -1 206.469 4.69141)" fill="#F69951"/>
<circle cx="2.34622" cy="2.34622" r="2.34622" transform="matrix(1 0 0 -1 225.238 4.69141)" fill="#F69951"/>
<circle cx="2.34622" cy="2.34622" r="2.34622" transform="matrix(1 0 0 -1 244.008 4.69141)" fill="#F69951"/>
</svg>
