<svg width="25" height="25" viewBox="0 0 25 25" fill="none" xmlns="http://www.w3.org/2000/svg">
<path d="M3.01174 0.709252L24.2905 21.988C24.682 22.3795 24.484 23.213 23.8486 23.8484C23.2133 24.4837 22.3797 24.6817 21.9883 24.2902L0.709517 3.01148C0.317972 2.61993 0.515995 1.78645 1.15136 1.15109C1.78672 0.51573 2.6202 0.317708 3.01174 0.709252Z" fill="#0C163D"/>
<path d="M21.988 0.709252L0.709274 21.988C0.317729 22.3795 0.515752 23.213 1.15111 23.8484C1.78647 24.4837 2.62001 24.6817 3.0115 24.2902L24.2902 3.01148C24.6818 2.61993 24.4838 1.78645 23.8484 1.15109C23.213 0.51573 22.3796 0.317708 21.988 0.709252Z" fill="#0C163D"/>
</svg>
