<svg width="25" height="25" viewBox="0 0 25 25" fill="none" xmlns="http://www.w3.org/2000/svg">
<g id="Group 427319239">
<path id="Vector" d="M3.01199 0.709252L24.2907 21.988C24.6823 22.3795 24.4842 23.213 23.8489 23.8484C23.2135 24.4837 22.38 24.6817 21.9885 24.2902L0.709761 3.01148C0.318216 2.61993 0.516239 1.78645 1.1516 1.15109C1.78696 0.51573 2.62044 0.317708 3.01199 0.709252Z" fill="#0C163D"/>
<path id="Vector_2" d="M21.988 0.709252L0.709274 21.988C0.317729 22.3795 0.515752 23.213 1.15111 23.8484C1.78647 24.4837 2.62001 24.6817 3.0115 24.2902L24.2902 3.01148C24.6818 2.61993 24.4838 1.78645 23.8484 1.15109C23.213 0.51573 22.3796 0.317708 21.988 0.709252Z" fill="#0C163D"/>
</g>
</svg>
