<svg width="202" height="64" viewBox="0 0 202 64" fill="none" xmlns="http://www.w3.org/2000/svg">
<g id="Google-Trends 1">
<g id="layer1">
<g id="g3054">
<path id="path2998" d="M65.4194 24.9958H48.1679V30.0697H60.3454C59.7366 37.1733 53.6478 40.4206 48.1679 40.4206C40.8614 40.4206 34.5697 34.7378 34.5697 26.8225C34.5697 19.11 40.6585 13.0212 48.1679 13.0212C54.0537 13.0212 57.504 16.6745 57.504 16.6745L61.1573 13.0212C61.1573 13.0212 56.4892 7.94727 48.1679 7.94727C37.4111 7.94727 29.0898 17.0804 29.0898 26.8225C29.0898 36.3615 36.8023 45.6976 48.3709 45.6976C58.5188 45.6976 65.8253 38.797 65.8253 28.6491C65.8253 26.2136 65.4194 24.9958 65.4194 24.9958Z" fill="#4885ED"/>
<path id="path3000" d="M79.6267 21.3418C72.5232 21.3418 67.4492 26.8217 67.4492 33.3163C67.4492 39.811 72.3202 45.4939 79.6267 45.4939C86.3244 45.4939 91.8042 40.4199 91.8042 33.3163C91.8042 25.401 85.5125 21.3418 79.6267 21.3418ZM79.6267 26.0098C83.077 26.0098 86.5273 28.8513 86.5273 33.3163C86.5273 37.7814 83.28 40.6229 79.6267 40.6229C75.7705 40.6229 72.7262 37.5785 72.7262 33.3163C72.7262 29.2572 75.7705 26.0098 79.6267 26.0098Z" fill="#DB3236"/>
<path id="path3005" d="M106.011 21.3418C98.9079 21.3418 93.834 26.8217 93.834 33.3163C93.834 39.811 98.705 45.4939 106.011 45.4939C112.709 45.4939 118.189 40.4199 118.189 33.3163C118.189 25.401 111.897 21.3418 106.011 21.3418ZM106.214 26.0098C109.665 26.0098 113.115 28.8513 113.115 33.3163C113.115 37.7814 109.868 40.6229 106.214 40.6229C102.358 40.6229 99.3138 37.5785 99.3138 33.3163C99.3138 29.2572 102.155 26.0098 106.214 26.0098Z" fill="#F4C20D"/>
<path id="path3007" d="M132.194 21.3418C125.699 21.3418 120.625 27.0246 120.625 33.5193C120.625 40.8258 126.511 45.6968 132.194 45.6968C135.644 45.6968 137.471 44.2761 138.891 42.6524V45.088C138.891 49.3501 136.253 51.7856 132.6 51.7856C128.946 51.7856 127.12 48.9441 126.308 47.5234L121.64 49.553C123.263 53.0033 126.714 56.6566 132.6 56.6566C139.094 56.6566 143.965 52.5974 143.965 44.0732V22.3566H138.891V24.3862C137.065 22.3566 135.035 21.3418 132.194 21.3418ZM132.6 26.0098C135.847 26.0098 139.094 28.6483 139.094 33.3163C139.094 37.9844 135.847 40.6229 132.6 40.6229C129.149 40.6229 125.902 37.7814 125.902 33.3163C125.902 28.8513 129.149 26.0098 132.6 26.0098Z" fill="#4885ED"/>
<path id="path3011" d="M166.289 21.3418C160.201 21.3418 154.924 26.2128 154.924 33.5193C154.924 41.2317 160.607 45.6968 166.898 45.6968C171.972 45.6968 175.22 42.8554 177.046 40.4199L172.784 37.5785C171.769 39.2022 169.943 40.8258 166.898 40.8258C163.448 40.8258 161.824 38.9992 161.013 37.1725L177.249 30.4749L176.437 28.4453C174.814 24.5891 171.16 21.3418 166.289 21.3418ZM166.492 26.0098C168.725 26.0098 170.349 27.2276 170.958 28.6483L160.201 33.1134C159.795 29.6631 163.042 26.0098 166.492 26.0098Z" fill="#DB3236"/>
<path id="path3015" d="M147.211 44.8848H152.488V9.16406H147.211V44.8848Z" fill="#3CBA54"/>
</g>
</g>
</g>
</svg>
