<svg width="81" height="81" viewBox="0 0 81 81" fill="none" xmlns="http://www.w3.org/2000/svg">
<g id="Group">
<path id="Vector" d="M22.6174 15.3574C18.6487 15.3574 15.4199 18.5734 15.4199 22.5263C15.4199 26.4793 18.6487 29.6953 22.6174 29.6953C26.5861 29.6953 29.8148 26.4793 29.8148 22.5263C29.8148 18.5734 26.5861 15.3574 22.6174 15.3574ZM22.6174 24.9562C21.2722 24.9562 20.1777 23.8662 20.1777 22.5262C20.1777 21.1862 21.272 20.0962 22.6174 20.0962C23.9627 20.0962 25.057 21.1862 25.057 22.5262C25.057 23.8662 23.9626 24.9562 22.6174 24.9562Z" fill="white"/>
<path id="Vector_2" d="M35.9751 41.0917L41.3157 35.7485C42.1711 34.8927 42.2436 33.5331 41.4839 32.592L38.6974 29.14L43.1172 28.6517C44.322 28.5185 45.2339 27.5041 45.2339 26.2967V18.7569C45.2339 17.5494 44.3222 16.535 43.1172 16.4019L38.6171 15.9047L41.4383 12.3774C42.1937 11.4329 42.1151 10.0737 41.2561 9.22176L35.8914 3.90237C35.0322 3.05061 33.6674 2.97831 32.7224 3.73499L29.2565 6.51017L28.7662 2.10804C28.6326 0.90808 27.6142 0 26.4019 0H18.832C17.6197 0 16.6014 0.90808 16.4677 2.1082L15.9684 6.59038L12.427 3.78056C11.4789 3.02815 10.1139 3.10646 9.259 3.96217L3.91822 9.30545C3.06281 10.1612 2.99036 11.5208 3.75005 12.4619L6.53648 15.9139L2.11676 16.4022C0.911725 16.5351 0 17.5495 0 18.7571V26.2968C0 27.5044 0.911725 28.5188 2.11676 28.6518L6.61685 29.1491L3.79577 32.6763C3.04051 33.6208 3.11898 34.9801 3.97802 35.832L9.34253 41.1514C10.2014 42.0031 11.5664 42.0754 12.5115 41.3187L15.9774 38.5436L16.4677 42.9457C16.6014 44.1458 17.6197 45.0539 18.832 45.0539H26.4019C27.6142 45.0539 28.6326 44.1458 28.7662 42.9457L29.2655 38.4635L32.8069 41.2733C33.755 42.0258 35.1198 41.9474 35.9751 41.0917ZM27.9088 33.0839C27.4177 33.3288 26.9077 33.5403 26.393 33.7126C25.5155 34.0063 24.8887 34.7807 24.7866 35.6974L24.2723 40.315H20.9616L20.4473 35.6974C20.3452 34.7807 19.7184 34.0065 18.8407 33.7126C18.3435 33.546 17.8496 33.3424 17.3726 33.1073C16.542 32.6978 15.5487 32.8059 14.8268 33.3841L11.19 36.2963L8.84387 33.9699L11.7512 30.3348C12.3285 29.6131 12.4326 28.6232 12.0179 27.798C11.7719 27.3087 11.5596 26.8005 11.3867 26.2878C11.0916 25.4137 10.3142 24.7895 9.39379 24.6878L4.75764 24.1755V20.8781L9.39379 20.3658C10.3142 20.2641 11.0918 19.6397 11.3867 18.7653C11.5536 18.2706 11.7581 17.7786 11.9945 17.3027C12.4052 16.4758 12.2965 15.4866 11.7162 14.7674L8.79262 11.1453L11.1282 8.80869L14.7781 11.7044C15.5028 12.2795 16.4968 12.383 17.3251 11.9699C17.8162 11.725 18.3263 11.5135 18.8409 11.3412C19.7184 11.0474 20.3452 10.273 20.4473 9.35639L20.9616 4.73879H24.2723L24.7866 9.35639C24.8887 10.273 25.5155 11.0473 26.3932 11.3412C26.8904 11.5078 27.3843 11.7114 27.8613 11.9465C28.6916 12.3557 29.6851 12.2477 30.4071 11.6696L34.0437 8.75759L36.3899 11.084L33.4826 14.7191C32.9053 15.4408 32.8012 16.4307 33.2159 17.2559C33.4623 17.746 33.6747 18.254 33.8469 18.7655C34.1418 19.6398 34.9194 20.2643 35.84 20.3661L40.4761 20.8784V24.1758L35.84 24.6881C34.9196 24.7898 34.142 25.4142 33.8471 26.2886C33.6802 26.7833 33.4756 27.2753 33.2393 27.7512C32.8286 28.5781 32.9373 29.5673 33.5176 30.2865L36.4412 33.9086L34.1056 36.2454L30.4557 33.3496C29.7311 32.7743 28.737 32.6706 27.9088 33.0839Z" fill="white"/>
<path id="Vector_3" d="M55.9091 52.1774C52.271 53.6885 50.5454 57.8659 52.0624 61.4893C53.2057 64.2204 55.8692 65.8691 58.6696 65.8691C59.5849 65.8691 60.5153 65.6929 61.4114 65.3207C63.1738 64.5888 64.5446 63.217 65.2711 61.4583C65.9975 59.6994 65.9931 57.7641 65.2583 56.0087C63.7414 52.3851 59.5474 50.6664 55.9091 52.1774ZM60.8713 59.655C60.6283 60.2432 60.1698 60.702 59.5803 60.9467C58.3641 61.4523 56.961 60.8772 56.4538 59.6654C55.9464 58.4536 56.5235 57.0567 57.7403 56.5512C58.0399 56.4267 58.351 56.3677 58.6572 56.3677C59.5938 56.3677 60.4846 56.9192 60.8669 57.8325C61.1127 58.4196 61.1143 59.0668 60.8713 59.655Z" fill="white"/>
<path id="Vector_4" d="M77.987 70.6499L80.8225 63.7418C81.2813 62.6241 80.8228 61.3416 79.758 60.7641L75.9306 58.6888L79.7433 56.5868C80.8038 56.0019 81.2533 54.7164 80.7868 53.6019L77.903 46.7137C77.4362 45.599 76.2025 45.0121 75.0396 45.3515L70.7801 46.5924L71.9962 42.3413C72.3284 41.1801 71.7307 39.9558 70.6086 39.4988L63.673 36.6745C62.5504 36.2178 61.2629 36.6742 60.6834 37.7348L58.5997 41.5469L56.4893 37.7494C55.9022 36.6931 54.6119 36.2457 53.4923 36.71L46.5767 39.5823C45.4579 40.0471 44.8688 41.2755 45.2092 42.4345L46.4552 46.677L42.1871 45.4657C41.0218 45.1349 39.792 45.7302 39.3331 46.8477L36.4976 53.7558C36.0388 54.8735 36.4973 56.156 37.5622 56.7335L41.3896 58.8089L37.5769 60.9109C36.5163 61.4958 36.0668 62.7814 36.5334 63.8959L39.4171 70.784C39.8838 71.8986 41.117 72.4849 42.2807 72.1463L46.54 70.9052L45.3239 75.1563C44.9917 76.3175 45.5894 77.5418 46.7115 77.9988C54.2857 81.0831 53.911 80.9996 54.5465 80.9996C55.3948 80.9996 56.2088 80.5457 56.6367 79.7628L58.7204 75.9507L60.8308 79.7482C61.4181 80.8045 62.7087 81.2523 63.8279 80.7876L70.7434 77.9153C71.8622 77.4505 72.4513 76.2221 72.1109 75.0631L70.8649 70.8206L75.1329 72.0319C76.2995 72.3629 77.5281 71.7676 77.987 70.6499ZM69.9679 65.6382C69.0769 65.3855 68.1194 65.6706 67.5143 66.3696C67.1599 66.7788 66.7757 67.1648 66.3722 67.5167C65.6758 68.1242 65.3963 69.0792 65.6564 69.9644L66.9465 74.3575L63.962 75.597L61.7366 71.5924C61.2881 70.7856 60.4091 70.311 59.4869 70.3765C58.9697 70.413 58.4415 70.4145 57.9169 70.3808C56.9951 70.3219 56.1175 70.8019 55.6744 71.6122L53.4761 75.6335L50.4829 74.4148L51.7427 70.0112C51.9966 69.1238 51.7101 68.1704 51.0088 67.5678C50.5975 67.2143 50.2099 66.8315 49.8568 66.43C49.2466 65.7361 48.2876 65.458 47.3992 65.717L42.9887 67.002L41.7443 64.0294L45.7648 61.8127C46.5748 61.3661 47.051 60.4919 46.9857 59.5721C46.949 59.057 46.9476 58.531 46.9814 58.0084C47.0411 57.0875 46.5585 56.216 45.7451 55.7748L41.7076 53.5854L42.9313 50.6041L47.3524 51.8589C48.2431 52.1119 49.2009 51.8265 49.8058 51.1276C50.1602 50.7183 50.5445 50.3323 50.9479 49.9804C51.6443 49.373 51.9239 48.4179 51.6638 47.5327L50.3736 43.1396L53.3581 41.9001L55.5836 45.9047C56.0321 46.7117 56.9125 47.1866 57.8332 47.1206C58.3504 47.0842 58.8786 47.0827 59.4032 47.1164C60.3271 47.1755 61.2028 46.6954 61.6458 45.8849L63.844 41.8636L66.8372 43.0824L65.5774 47.4859C65.3235 48.3733 65.61 49.3268 66.3113 49.9294C66.7227 50.2828 67.1103 50.6656 67.4634 51.0671C68.0734 51.7609 69.0323 52.039 69.9207 51.7802L74.3314 50.4951L75.5759 53.4677L71.5553 55.6844C70.7453 56.131 70.2691 57.0053 70.3344 57.925C70.3711 58.4401 70.3726 58.9662 70.3387 59.4887C70.2791 60.4096 70.7616 61.2811 71.5751 61.7224L75.6126 63.9117L74.3889 66.8929L69.9679 65.6382Z" fill="white"/>
<path id="Vector_5" d="M50.6883 15.9485L54.5889 19.8336C55.5179 20.7591 57.0242 20.7591 57.9531 19.8336C58.8823 18.9083 58.8823 17.4081 57.9531 16.4828L57.5203 16.0515C59.2121 16.3254 60.8145 17.1164 62.0738 18.3706C64.3912 20.6789 65.1338 24.141 63.9652 27.1907C63.4967 28.4133 64.112 29.7827 65.3393 30.2494C66.5673 30.716 67.9418 30.1027 68.41 28.8806C70.2466 24.088 69.0799 18.6473 65.4379 15.0199C63.2827 12.8732 60.4893 11.5907 57.57 11.2801L57.8473 10.9087C58.6313 9.85869 58.4122 8.37428 57.3581 7.59339C56.3037 6.81235 54.8136 7.03051 54.0295 8.08066L50.4613 12.8593C49.7566 13.8028 49.8568 15.1203 50.6883 15.9485Z" fill="white"/>
<path id="Vector_6" d="M30.9863 63.7891L27.0856 59.904C26.1566 58.9785 24.6502 58.9785 23.7214 59.904C22.7923 60.8293 22.7923 62.3295 23.7214 63.2549L24.1544 63.6861C22.4624 63.4123 20.8598 62.6213 19.6005 61.367C17.2832 59.0587 16.5407 55.5968 17.7094 52.5469C18.1778 51.3244 17.5626 49.955 16.3351 49.4883C15.1079 49.022 13.7328 49.6344 13.2643 50.857C11.4278 55.6498 12.5944 61.0903 16.2364 64.7178C18.3917 66.8647 21.1861 68.1455 24.1057 68.4557L23.8271 68.8288C23.043 69.8788 23.2622 71.3632 24.3163 72.1441C25.3705 72.925 26.8605 72.7071 27.6449 71.6568L31.2131 66.8782C31.2166 66.8734 31.2195 66.8683 31.2229 66.8636C31.9254 65.9084 31.8029 64.6029 30.9863 63.7891Z" fill="white"/>
</g>
</svg>
