<svg width="87" height="84" viewBox="0 0 87 84" fill="none" xmlns="http://www.w3.org/2000/svg">
<g id="Group">
<path id="Vector" d="M43.447 41.9277C43.4429 41.9277 43.4385 41.9277 43.4344 41.9277C39.2164 41.9346 35.7903 45.3924 35.7969 49.6358C35.8038 53.8749 39.2342 57.3187 43.4467 57.3187H43.4592C47.6773 57.3119 51.1034 53.854 51.0968 49.6108C51.0968 49.6108 51.0968 49.6108 51.0968 49.6107C51.0898 45.3717 47.6595 41.9277 43.447 41.9277ZM43.4509 52.1969C43.4494 52.1969 43.4482 52.1969 43.4468 52.1969C42.0382 52.1969 40.8907 51.045 40.8885 49.6276C40.8861 48.2084 42.0321 47.0521 43.4428 47.0497H43.4468C44.8555 47.0497 46.003 48.2016 46.0052 49.6192C46.0074 51.0382 44.8616 52.1947 43.4509 52.1969Z" fill="white"/>
<path id="Vector_2" d="M65.1561 43.0113L60.435 42.4921L63.3881 38.7505C64.1949 37.7285 64.1085 36.2596 63.1875 35.3402L57.4957 29.6586C56.5752 28.7397 55.1144 28.6634 54.1042 29.483L50.4746 32.4283L49.9531 27.7667C49.8081 26.4712 48.7189 25.4922 47.4232 25.4922C47.4219 25.4922 47.4203 25.4922 47.4191 25.4922L39.4007 25.5052C38.1034 25.5072 37.015 26.4905 36.8741 27.7878L36.3582 32.5371L32.6386 29.5664C31.6228 28.7549 30.1624 28.8418 29.2484 29.7682L23.6005 35.4937C22.6865 36.42 22.6115 37.8897 23.4262 38.9054L26.354 42.5568L21.72 43.0816C20.4306 43.2276 19.4568 44.3256 19.459 45.6307L19.4719 53.6969C19.4741 55.0021 20.4513 56.0969 21.741 56.2386L26.462 56.7578L23.509 60.4994C22.7022 61.5215 22.7886 62.9903 23.7096 63.9097L29.4013 69.5913C30.3219 70.5104 31.7827 70.5865 32.7929 69.7668L36.4225 66.8216L36.944 71.4832C37.089 72.7787 38.1782 73.7579 39.4739 73.7577H39.4779L47.4964 73.7447C48.7937 73.7427 49.8821 72.7594 50.023 71.462L50.5389 66.7128L54.2585 69.6835C55.2745 70.495 56.7349 70.4081 57.6487 69.4817L63.2966 63.7561C64.2105 62.8297 64.2856 61.3602 63.4709 60.3443L60.5431 56.6931L65.1771 56.1682C66.4665 56.0223 67.4403 54.9243 67.4381 53.6192L67.4252 45.553C67.4232 44.2477 66.4458 43.153 65.1561 43.0113ZM57.456 51.8882C56.4713 51.9997 55.6405 52.6757 55.3264 53.6211C55.1504 54.1505 54.935 54.6762 54.6864 55.1835C54.248 56.0781 54.3658 57.1474 54.9883 57.9239L58.077 61.7757L55.6395 64.2467L51.7867 61.1695C51.0102 60.5494 49.9464 60.4391 49.0605 60.8869C48.5413 61.1493 48.0026 61.3761 47.4592 61.5608C46.5205 61.8799 45.8509 62.7178 45.7433 63.7088L45.209 68.6267L41.7486 68.6323L41.1986 63.7163C41.0877 62.7257 40.4155 61.8898 39.4757 61.5738C38.9496 61.3969 38.4272 61.1804 37.923 60.9303C37.0297 60.4876 35.9675 60.6103 35.1988 61.234L31.3698 64.3412L28.9134 61.8893L31.9723 58.0135C32.5889 57.2324 32.6985 56.1623 32.2531 55.271C31.9923 54.7484 31.7669 54.2067 31.5834 53.6604C31.2664 52.7159 30.4332 52.0423 29.4482 51.9341L24.5594 51.3966L24.5538 47.9156L29.4407 47.3621C30.4254 47.2506 31.2562 46.5745 31.5704 45.6291C31.7464 45.0997 31.9617 44.574 32.2102 44.0669C32.6488 43.1723 32.531 42.103 31.9084 41.3265L28.8199 37.4747L31.2572 35.0036L35.11 38.0809C35.8865 38.701 36.9503 38.8115 37.8363 38.3635C38.3554 38.1011 38.8941 37.8743 39.4376 37.6896C40.3763 37.3705 41.0458 36.5326 41.1534 35.5416L41.6877 30.6237L45.1481 30.6181L45.6982 35.5341C45.809 36.5245 46.4811 37.3604 47.4207 37.6765C47.947 37.8535 48.4697 38.0702 48.9741 38.3203C49.8628 38.7609 50.9257 38.6428 51.6979 38.0166L55.527 34.9096L57.9834 37.3615L54.9245 41.2372C54.3079 42.0183 54.1983 43.0885 54.6436 43.9797C54.9045 44.5021 55.1298 45.044 55.3133 45.5906C55.6304 46.535 56.4635 47.2086 57.4486 47.3168L62.3373 47.8543L62.3429 51.3353L57.456 51.8882Z" fill="white"/>
<path id="Vector_3" d="M84.3508 15.2597H64.4226V11.285C64.4226 5.06254 59.3902 0 53.2045 0H33.6921C27.5065 0 22.474 5.06237 22.474 11.285V15.2598H2.5458C1.13984 15.2598 0 16.4065 0 17.8208V81.439C0 82.8534 1.13984 84 2.5458 84H84.3508C85.7567 84 86.8966 82.8534 86.8966 81.439V17.8206C86.8966 16.4063 85.7567 15.2597 84.3508 15.2597ZM68.9933 78.8781H17.9032C16.8214 72.2909 11.6396 67.0781 5.09159 65.9899V33.27C11.6396 32.1817 16.8214 26.9688 17.9032 20.3818H25.0198H61.8768H68.9933C70.0751 26.969 75.257 32.1817 81.805 33.27V65.9899C75.257 67.0781 70.0751 72.2909 68.9933 78.8781ZM81.805 28.0423C78.0708 27.1008 75.126 24.1382 74.19 20.3818H81.805V28.0423ZM27.5656 11.285C27.5656 7.88678 30.3138 5.12195 33.6921 5.12195H53.2046C56.5827 5.12195 59.3312 7.88661 59.3312 11.285V15.2598H27.5656V11.285ZM12.7066 20.3816C11.7706 24.1382 8.82577 27.1008 5.09159 28.0423V20.3818L12.7066 20.3816ZM5.09159 71.2175C8.82577 72.1591 11.7706 75.1216 12.7066 78.8781H5.09159V71.2175ZM74.19 78.8781C75.1258 75.1216 78.0708 72.1591 81.805 71.2175V78.8781H74.19Z" fill="white"/>
</g>
</svg>
