<svg width="86" height="86" viewBox="0 0 86 86" fill="none" xmlns="http://www.w3.org/2000/svg">
<g id="Group">
<path id="Vector" d="M25.0706 71.6135C26.8952 71.6135 28.5845 71.027 29.9644 70.0349C33.953 72.132 38.4047 73.2329 42.9511 73.2329C47.4976 73.2329 51.9492 72.132 55.9378 70.0349C57.3177 71.027 59.0072 71.6135 60.8317 71.6135C65.4701 71.6135 69.2438 67.8354 69.2438 63.1916C69.2438 61.3721 68.6626 59.6871 67.679 58.3087C69.7973 54.2993 70.9102 49.8194 70.9102 45.2394C70.9102 38.9117 68.7418 32.7098 64.804 27.7764C61.3058 23.3934 56.5319 20.1432 51.2194 18.4941C50.3955 14.7101 47.0248 11.8672 43.0016 11.8672C38.99 11.8672 35.6274 14.6939 34.7914 18.462C29.4517 20.0955 24.6511 23.3432 21.1313 27.736C17.1724 32.6768 14.9922 38.8929 14.9922 45.2396C14.9922 49.8197 16.1054 54.2991 18.2236 58.3085C17.24 59.6871 16.6587 61.3723 16.6587 63.1917C16.6585 67.8356 20.4322 71.6135 25.0706 71.6135ZM21.6916 63.1916C21.6916 61.3263 23.2075 59.8087 25.0706 59.8087C26.9337 59.8087 28.4495 61.3263 28.4495 63.1916C28.4495 65.0569 26.9337 66.5745 25.0706 66.5745C23.2075 66.5745 21.6916 65.057 21.6916 63.1916ZM60.8317 66.5745C58.9686 66.5745 57.4528 65.0569 57.4528 63.1916C57.4528 61.3263 58.9686 59.8087 60.8317 59.8087C62.6948 59.8087 64.2106 61.3263 64.2106 63.1916C64.2106 65.057 62.6948 66.5745 60.8317 66.5745ZM43.0016 16.9061C44.8647 16.9061 46.3806 18.4237 46.3806 20.289C46.3806 22.1543 44.8647 23.6719 43.0016 23.6719C41.1385 23.6719 39.6227 22.1543 39.6227 20.289C39.6227 18.4237 41.1385 16.9061 43.0016 16.9061ZM35.2696 23.6037C36.5577 26.6041 39.5382 28.7109 43.0015 28.7109C46.4532 28.7109 49.4246 26.618 50.72 23.6339C59.758 26.8656 65.8771 35.4223 65.8771 45.2396C65.8771 48.7256 65.0924 52.1394 63.5926 55.2381C62.7272 54.9361 61.7987 54.7698 60.8317 54.7698C56.1933 54.7698 52.4197 58.5479 52.4197 63.1917C52.4197 64.1522 52.5832 65.0747 52.8804 65.9352C49.7994 67.4183 46.4092 68.194 42.951 68.194C39.4927 68.194 36.1025 67.4183 33.0216 65.9352C33.3187 65.0745 33.4823 64.1522 33.4823 63.1917C33.4823 58.5479 29.7086 54.7698 25.0702 54.7698C24.1034 54.7698 23.1749 54.9361 22.3094 55.2381C20.8095 52.1394 20.0248 48.7254 20.0248 45.2396C20.0252 35.3786 26.18 26.809 35.2696 23.6037Z" fill="white"/>
<path id="Vector_2" d="M42.9993 57.0416C49.4132 57.0416 54.6314 51.8172 54.6314 45.3958C54.6314 38.9743 49.4132 33.75 42.9993 33.75C36.5854 33.75 31.3672 38.9743 31.3672 45.3958C31.3672 51.8172 36.5854 57.0416 42.9993 57.0416ZM42.9993 38.7891C46.6379 38.7891 49.5982 41.7529 49.5982 45.3958C49.5982 49.0387 46.6379 52.0025 42.9993 52.0025C39.3607 52.0025 36.4003 49.0387 36.4003 45.3958C36.4003 41.7529 39.3607 38.7891 42.9993 38.7891Z" fill="white"/>
<path id="Vector_3" d="M50.4035 11.7882C51.6705 12.3622 53.161 11.7988 53.7338 10.5315L56.2159 5.03906H68.7587C70.1485 5.03906 71.2753 3.91098 71.2753 2.51953C71.2753 1.12808 70.1485 0 68.7587 0H54.5924C53.6039 0 52.707 0.579324 52.2996 1.48081L49.1482 8.4542C48.5753 9.72186 49.1373 11.2146 50.4035 11.7882Z" fill="white"/>
<path id="Vector_4" d="M2.51657 85.9994H15.0051C15.9937 85.9994 16.8906 85.42 17.2979 84.5185L20.4493 77.5451C21.0223 76.2773 20.4602 74.7846 19.1941 74.211C17.9276 73.6373 16.4367 74.2002 15.8638 75.4677L13.3816 80.9601H2.51657C1.12675 80.9601 0 82.0882 0 83.4796C0 84.8711 1.12675 85.9994 2.51657 85.9994Z" fill="white"/>
<path id="Vector_5" d="M83.4833 80.9602H72.6183L70.1361 75.4678C69.5632 74.2001 68.0723 73.6373 66.8058 74.2111C65.5397 74.7847 64.9776 76.2774 65.5506 77.5452L68.702 84.5186C69.1093 85.4203 70.0062 85.9994 70.9948 85.9994H83.4833C84.8731 85.9994 85.9999 84.8714 85.9999 83.4799C85.9999 82.0885 84.8731 80.9602 83.4833 80.9602Z" fill="white"/>
</g>
</svg>
