<svg width="79" height="79" viewBox="0 0 79 79" fill="none" xmlns="http://www.w3.org/2000/svg">
<g id="Group">
<path id="Vector" d="M39.4237 32.5566C35.5877 32.5566 32.4668 35.6714 32.4668 39.5C32.4668 43.3286 35.5877 46.4434 39.4237 46.4434C43.2598 46.4434 46.3807 43.3286 46.3807 39.5C46.3807 35.6714 43.2598 32.5566 39.4237 32.5566ZM39.4237 41.8145C38.1451 41.8145 37.1048 40.7762 37.1048 39.5C37.1048 38.2238 38.1451 37.1855 39.4237 37.1855C40.7024 37.1855 41.7427 38.2238 41.7427 39.5C41.7427 40.7762 40.7024 41.8145 39.4237 41.8145Z" fill="white"/>
<path id="Vector_2" d="M65.485 41.8145C66.4422 44.5083 69.0199 46.4434 72.0431 46.4434C75.8791 46.4434 79 43.3286 79 39.5C79 35.6714 75.8791 32.5566 72.0431 32.5566C69.0199 32.5566 66.4422 34.4917 65.485 37.1855H55.4892C55.2088 35.2369 54.5802 33.3993 53.6676 31.7376L67.5753 29.4395C68.6946 29.2545 69.5155 28.2885 69.5155 27.1561V21.3576C72.2145 20.4021 74.1532 17.8296 74.1532 14.8125C74.1532 10.9839 71.0323 7.86914 67.1962 7.86914C63.3602 7.86914 60.2393 10.9839 60.2393 14.8125C60.2393 17.8299 62.1783 20.4025 64.8776 21.3579V25.1934C49.7876 27.6869 50.7792 27.5009 50.4544 27.6265C48.0926 25.4392 45.0798 23.9435 41.7418 23.4649V13.4886C44.441 12.5332 46.3798 9.96064 46.3798 6.94336C46.3798 3.11479 43.2589 0 39.4229 0C35.5868 0 32.4659 3.11479 32.4659 6.94336C32.4659 9.96064 34.4047 12.5332 37.1039 13.4886V23.4649C33.7656 23.9435 30.7525 25.4394 28.3905 27.6272C28.1943 27.5514 29.1394 27.8072 13.968 23.8282V19.8148C16.6673 18.8594 18.6063 16.2868 18.6063 13.2694C18.6063 9.44081 15.4854 6.32602 11.6493 6.32602C7.81327 6.32602 4.69238 9.44081 4.69238 13.2694C4.69238 16.2865 6.63105 18.8591 9.33004 19.8145V25.613C9.33004 26.6647 10.0406 27.5841 11.0597 27.8515L25.2675 31.5778C24.3066 33.2811 23.6457 35.174 23.3563 37.1854H13.515C12.5578 34.4915 9.98013 32.5565 6.95695 32.5565C3.12089 32.5565 0 35.6713 0 39.4998C0 43.3284 3.12089 46.4432 6.95695 46.4432C9.98013 46.4432 12.5578 44.5082 13.515 41.8143H23.3562C23.6457 43.8256 24.3065 45.7183 25.2672 47.4216L11.0595 51.1479C10.0404 51.4151 9.32988 52.3346 9.32988 53.3864V59.1852C6.63105 60.1408 4.69238 62.7133 4.69238 65.7305C4.69238 69.559 7.81327 72.6738 11.6493 72.6738C15.4854 72.6738 18.6063 69.559 18.6063 65.7305C18.6063 62.713 16.6673 60.1404 13.968 59.185V55.1713C29.1382 51.1926 28.1947 51.4481 28.3902 51.3725C30.7522 53.5605 33.7653 55.0564 37.1037 55.5351V65.5114C34.4046 66.4668 32.4658 69.0394 32.4658 72.0566C32.4658 75.8852 35.5866 79 39.4227 79C43.2588 79 46.3797 75.8852 46.3797 72.0566C46.3797 69.0394 44.4408 66.4668 41.7417 65.5114V55.5351C45.0801 55.0564 48.0932 53.5605 50.4552 51.3725C50.6508 51.4481 49.7052 51.1922 64.8774 55.1713V59.185C62.1781 60.1404 60.2391 62.713 60.2391 65.7305C60.2391 69.559 63.36 72.6738 67.1961 72.6738C71.0321 72.6738 74.153 69.559 74.153 65.7305C74.153 62.7133 72.2143 60.1408 69.5154 59.1853V53.3866C69.5154 52.3349 68.8048 51.4154 67.7857 51.148L53.5781 47.4218C54.5388 45.7185 55.1997 43.8257 55.4891 41.8145H65.485ZM67.1961 12.498C68.4748 12.498 69.5151 13.5363 69.5151 14.8125C69.5151 16.0882 68.4757 17.126 67.1978 17.127C67.1973 17.127 67.1968 17.127 67.1964 17.127C67.1958 17.127 67.1953 17.127 67.1947 17.127C65.9166 17.1262 64.8771 16.0884 64.8771 14.8125C64.8771 13.5363 65.9174 12.498 67.1961 12.498ZM11.6493 10.9551C12.928 10.9551 13.9683 11.9933 13.9683 13.2695C13.9683 14.5454 12.9288 15.5832 11.6507 15.584C11.6501 15.584 11.6496 15.584 11.649 15.584C11.6486 15.584 11.6481 15.584 11.6476 15.584C10.3697 15.5831 9.33035 14.5453 9.33035 13.2695C9.33035 11.9933 10.3705 10.9551 11.6493 10.9551ZM11.6493 68.0449C10.3706 68.0449 9.33035 67.0067 9.33035 65.7305C9.33035 64.4543 10.3706 63.416 11.6493 63.416C12.928 63.416 13.9683 64.4543 13.9683 65.7305C13.9683 67.0067 12.928 68.0449 11.6493 68.0449ZM67.1961 68.0449C65.9174 68.0449 64.8771 67.0067 64.8771 65.7305C64.8771 64.4543 65.9174 63.416 67.1961 63.416C68.4748 63.416 69.5151 64.4543 69.5151 65.7305C69.5151 67.0067 68.4749 68.0449 67.1961 68.0449ZM72.0431 37.1855C73.3217 37.1855 74.362 38.2238 74.362 39.5C74.362 40.7762 73.3217 41.8145 72.0431 41.8145C70.7644 41.8145 69.7241 40.7762 69.7241 39.5C69.7241 38.2238 70.7644 37.1855 72.0431 37.1855ZM39.4227 4.62891C40.7014 4.62891 41.7417 5.66717 41.7417 6.94336C41.7417 8.21955 40.7014 9.25781 39.4227 9.25781C38.144 9.25781 37.1037 8.21955 37.1037 6.94336C37.1037 5.66717 38.144 4.62891 39.4227 4.62891ZM6.95695 41.8145C5.67826 41.8145 4.63797 40.7762 4.63797 39.5C4.63797 38.2238 5.67826 37.1855 6.95695 37.1855C8.23563 37.1855 9.27593 38.2238 9.27593 39.5C9.27593 40.7762 8.23563 41.8145 6.95695 41.8145ZM39.4227 74.3711C38.144 74.3711 37.1037 73.3328 37.1037 72.0566C37.1037 70.7804 38.144 69.7422 39.4227 69.7422C40.7014 69.7422 41.7417 70.7804 41.7417 72.0566C41.7417 73.3328 40.7014 74.3711 39.4227 74.3711ZM39.4227 51.0723C33.0293 51.0723 27.8278 45.8809 27.8278 39.5C27.8278 33.1191 33.0293 27.9277 39.4227 27.9277C45.8161 27.9277 51.0176 33.1191 51.0176 39.5C51.0176 45.8809 45.8161 51.0723 39.4227 51.0723Z" fill="white"/>
</g>
</svg>
