<svg width="83" height="83" viewBox="0 0 83 83" fill="none" xmlns="http://www.w3.org/2000/svg">
<g id="Group">
<path id="Vector" d="M41.472 68.4093C41.4812 68.4093 41.4903 68.4101 41.4995 68.4101C41.5086 68.4101 41.5177 68.4095 41.5269 68.4093C56.3525 68.3946 68.4095 56.3289 68.4095 41.5C68.4095 26.671 56.3525 14.6054 41.5269 14.5907C41.5178 14.5907 41.5088 14.5898 41.4995 14.5898C41.4903 14.5898 41.4812 14.5905 41.472 14.5907C26.6466 14.6057 14.5898 26.6712 14.5898 41.5C14.5898 56.3288 26.6466 68.3942 41.472 68.4093ZM41.4885 19.4536C41.4922 19.4536 41.496 19.4534 41.4997 19.4534C41.5032 19.4534 41.5068 19.4536 41.5105 19.4536C42.6101 19.465 44.3755 21.1995 45.8531 25.0602C46.5171 26.795 47.06 28.7691 47.4755 30.9079H35.5238C35.9393 28.7691 36.4822 26.7952 37.1462 25.0602C38.6235 21.1997 40.3889 19.4651 41.4885 19.4536ZM48.1703 35.7712C48.3459 37.6183 48.4363 39.5388 48.4363 41.5C48.4363 43.4609 48.3457 45.3814 48.1703 47.2281H34.8289C34.6535 45.3812 34.5629 43.4609 34.5629 41.5C34.5629 39.5388 34.6535 37.6183 34.8289 35.7712H48.1703ZM63.5462 41.5C63.5462 43.4808 63.2822 45.4008 62.79 47.2281H53.049C53.2127 45.3668 53.2996 43.4495 53.2996 41.5C53.2996 39.5501 53.2127 37.6327 53.0488 35.7712H62.7897C63.282 37.5988 63.5462 39.519 63.5462 41.5ZM41.5105 63.5464C41.507 63.5464 41.5034 63.5465 41.4997 63.5465C41.496 63.5465 41.4922 63.5464 41.4885 63.5464C40.3889 63.535 38.6237 61.8004 37.1461 57.9398C36.4821 56.2047 35.9392 54.2306 35.5237 52.0915H47.4755C47.06 54.2307 46.5171 56.2047 45.8531 57.9398C44.3755 61.8004 42.6101 63.535 41.5105 63.5464ZM29.9502 47.2281H20.2095C19.7174 45.4007 19.4533 43.4806 19.4533 41.5C19.4533 39.519 19.7175 37.5988 20.2097 35.7712H29.9502C29.7865 37.6327 29.6994 39.5501 29.6994 41.5C29.6994 43.4497 29.7865 45.3669 29.9502 47.2281ZM22.1693 52.0914H30.5824C31.1686 55.4401 32.144 59.0908 33.6763 62.1107C28.7592 60.2382 24.6797 56.6551 22.1693 52.0914ZM49.3229 62.111C50.855 59.0914 51.8304 55.4409 52.4168 52.0915H60.8301C58.3197 56.6553 54.24 60.2384 49.3229 62.111ZM60.8299 30.9079H52.4168C51.8306 27.5591 50.8552 23.9087 49.3229 20.8889C54.2399 22.7614 58.3193 26.3445 60.8299 30.9079ZM33.6761 20.8891C32.144 23.9087 31.1686 27.5589 30.5824 30.9079H22.1696C24.68 26.3445 28.7593 22.7616 33.6761 20.8891Z" fill="white"/>
<path id="Vector_2" d="M14.5898 7.29492C14.5898 3.2725 11.3173 0 7.29492 0C3.2725 0 0 3.2725 0 7.29492C0 11.3173 3.2725 14.5898 7.29492 14.5898C11.3173 14.5898 14.5898 11.3173 14.5898 7.29492ZM7.29492 9.72656C5.95411 9.72656 4.86328 8.63572 4.86328 7.29492C4.86328 5.95411 5.95411 4.86328 7.29492 4.86328C8.63573 4.86328 9.72656 5.95411 9.72656 7.29492C9.72656 8.63572 8.63573 9.72656 7.29492 9.72656Z" fill="white"/>
<path id="Vector_3" d="M75.7051 0C71.6827 0 68.4102 3.2725 68.4102 7.29492C68.4102 11.3173 71.6827 14.5898 75.7051 14.5898C79.7275 14.5898 83 11.3173 83 7.29492C83 3.2725 79.7275 0 75.7051 0ZM75.7051 9.72656C74.3643 9.72656 73.2734 8.63572 73.2734 7.29492C73.2734 5.95411 74.3643 4.86328 75.7051 4.86328C77.0459 4.86328 78.1367 5.95411 78.1367 7.29492C78.1367 8.63572 77.0459 9.72656 75.7051 9.72656Z" fill="white"/>
<path id="Vector_4" d="M7.29492 83C11.3173 83 14.5898 79.7275 14.5898 75.7051C14.5898 71.6827 11.3173 68.4102 7.29492 68.4102C3.2725 68.4102 0 71.6827 0 75.7051C0 79.7275 3.2725 83 7.29492 83ZM7.29492 73.2734C8.63573 73.2734 9.72656 74.3643 9.72656 75.7051C9.72656 77.0459 8.63573 78.1367 7.29492 78.1367C5.95411 78.1367 4.86328 77.0459 4.86328 75.7051C4.86328 74.3643 5.95411 73.2734 7.29492 73.2734Z" fill="white"/>
<path id="Vector_5" d="M75.7051 68.4102C71.6827 68.4102 68.4102 71.6827 68.4102 75.7051C68.4102 79.7275 71.6827 83 75.7051 83C79.7275 83 83 79.7275 83 75.7051C83 71.6827 79.7275 68.4102 75.7051 68.4102ZM75.7051 78.1367C74.3643 78.1367 73.2734 77.0459 73.2734 75.7051C73.2734 74.3643 74.3643 73.2734 75.7051 73.2734C77.0459 73.2734 78.1367 74.3643 78.1367 75.7051C78.1367 77.0459 77.0459 78.1367 75.7051 78.1367Z" fill="white"/>
<path id="Vector_6" d="M28.4773 9.72656C29.8202 9.72656 30.9089 8.63783 30.9089 7.29492C30.9089 5.95201 29.8202 4.86328 28.4773 4.86328H21.8848C20.5419 4.86328 19.4531 5.95201 19.4531 7.29492C19.4531 8.63783 20.5419 9.72656 21.8848 9.72656H28.4773Z" fill="white"/>
<path id="Vector_7" d="M61.114 9.72656C62.4569 9.72656 63.5456 8.63783 63.5456 7.29492C63.5456 5.95201 62.4569 4.86328 61.114 4.86328H54.5215C53.1786 4.86328 52.0898 5.95201 52.0898 7.29492C52.0898 8.63783 53.1786 9.72656 54.5215 9.72656H61.114Z" fill="white"/>
<path id="Vector_8" d="M44.7976 9.72656C46.1405 9.72656 47.2292 8.63783 47.2292 7.29492C47.2292 5.95201 46.1405 4.86328 44.7976 4.86328H38.2051C36.8622 4.86328 35.7734 5.95201 35.7734 7.29492C35.7734 8.63783 36.8622 9.72656 38.2051 9.72656H44.7976Z" fill="white"/>
<path id="Vector_9" d="M9.72656 21.8848C9.72656 20.5419 8.63784 19.4531 7.29492 19.4531C5.95201 19.4531 4.86328 20.5419 4.86328 21.8848V28.4773C4.86328 29.8202 5.95201 30.9089 7.29492 30.9089C8.63784 30.9089 9.72656 29.8202 9.72656 28.4773V21.8848Z" fill="white"/>
<path id="Vector_10" d="M7.29492 52.0898C5.95201 52.0898 4.86328 53.1786 4.86328 54.5215V61.114C4.86328 62.4569 5.95201 63.5456 7.29492 63.5456C8.63784 63.5456 9.72656 62.4569 9.72656 61.114V54.5215C9.72656 53.1786 8.63784 52.0898 7.29492 52.0898Z" fill="white"/>
<path id="Vector_11" d="M9.72656 38.2051C9.72656 36.8622 8.63784 35.7734 7.29492 35.7734C5.95201 35.7734 4.86328 36.8622 4.86328 38.2051V44.7976C4.86328 46.1405 5.95201 47.2292 7.29492 47.2292C8.63784 47.2292 9.72656 46.1405 9.72656 44.7976V38.2051Z" fill="white"/>
<path id="Vector_12" d="M75.7051 30.9089C77.048 30.9089 78.1367 29.8202 78.1367 28.4773V21.8848C78.1367 20.5419 77.048 19.4531 75.7051 19.4531C74.3622 19.4531 73.2734 20.5419 73.2734 21.8848V28.4773C73.2734 29.8202 74.3622 30.9089 75.7051 30.9089Z" fill="white"/>
<path id="Vector_13" d="M73.2734 61.114C73.2734 62.4569 74.3622 63.5456 75.7051 63.5456C77.048 63.5456 78.1367 62.4569 78.1367 61.114V54.5215C78.1367 53.1786 77.048 52.0898 75.7051 52.0898C74.3622 52.0898 73.2734 53.1786 73.2734 54.5215V61.114Z" fill="white"/>
<path id="Vector_14" d="M73.2734 44.7976C73.2734 46.1405 74.3622 47.2292 75.7051 47.2292C77.048 47.2292 78.1367 46.1405 78.1367 44.7976V38.2051C78.1367 36.8622 77.048 35.7734 75.7051 35.7734C74.3622 35.7734 73.2734 36.8622 73.2734 38.2051V44.7976Z" fill="white"/>
<path id="Vector_15" d="M21.8848 73.2734C20.5419 73.2734 19.4531 74.3622 19.4531 75.7051C19.4531 77.048 20.5419 78.1367 21.8848 78.1367H28.4773C29.8202 78.1367 30.9089 77.048 30.9089 75.7051C30.9089 74.3622 29.8202 73.2734 28.4773 73.2734H21.8848Z" fill="white"/>
<path id="Vector_16" d="M54.5215 73.2734C53.1786 73.2734 52.0898 74.3622 52.0898 75.7051C52.0898 77.048 53.1786 78.1367 54.5215 78.1367H61.114C62.4569 78.1367 63.5456 77.048 63.5456 75.7051C63.5456 74.3622 62.4569 73.2734 61.114 73.2734H54.5215Z" fill="white"/>
<path id="Vector_17" d="M38.2051 73.2734C36.8622 73.2734 35.7734 74.3622 35.7734 75.7051C35.7734 77.048 36.8622 78.1367 38.2051 78.1367H44.7976C46.1405 78.1367 47.2292 77.048 47.2292 75.7051C47.2292 74.3622 46.1405 73.2734 44.7976 73.2734H38.2051Z" fill="white"/>
</g>
</svg>
