<svg width="71" height="71" viewBox="0 0 71 71" fill="none" xmlns="http://www.w3.org/2000/svg">
<g id="Group">
<path id="Vector" d="M50.1301 28.9473C46.5162 28.9473 43.5762 31.8874 43.5762 35.5012C43.5762 39.115 46.5162 42.0551 50.1301 42.0551C53.744 42.0551 56.684 39.115 56.684 35.5012C56.684 31.8874 53.744 28.9473 50.1301 28.9473ZM50.1301 37.8949C48.8101 37.8949 47.7363 36.8211 47.7363 35.5012C47.7363 34.1813 48.8101 33.1074 50.1301 33.1074C51.4501 33.1074 52.5238 34.1813 52.5238 35.5012C52.5238 36.8211 51.4501 37.8949 50.1301 37.8949Z" fill="white"/>
<path id="Vector_2" d="M69.1493 29.9185L64.7394 29.4292L67.5039 25.959C68.1644 25.1298 68.0958 23.9367 67.3446 23.1887L62.3638 18.2302C61.6127 17.4824 60.4192 17.419 59.593 18.0832L56.1926 20.8171L55.7114 16.4806C55.5945 15.427 54.7041 14.6299 53.6441 14.6299H52.21V2.08008C52.21 0.931321 51.2786 2.5745e-07 50.1299 2.5745e-07H15.3791C14.828 -0.000277086 14.293 0.223539 13.9075 0.609325L0.620834 13.896C0.208008 14.3028 0 14.8506 0 15.3773V68.9199C0 70.0687 0.93132 71 2.08008 71H50.1299C51.2786 71 52.21 70.0687 52.21 68.9199V56.3701H53.644C54.7041 56.3701 55.5944 55.5729 55.7113 54.5194L56.2005 50.1095L59.6709 52.8741C60.4999 53.5346 61.6932 53.4658 62.4412 52.7146L67.3997 47.7338C68.1475 46.9826 68.2109 45.789 67.5467 44.963L64.8127 41.5626L69.1493 41.0815C70.2029 40.9646 71 40.0741 71 39.0141V31.9859C71 30.9259 70.2029 30.0354 69.1493 29.9185ZM13.2986 7.10139V13.2972H7.10277L13.2986 7.10139ZM48.0498 66.8398H4.16016V17.4574H15.3787C16.5275 17.4574 17.4588 16.5261 17.4588 15.3773V4.16016H48.0498V14.6299H46.6158C45.5557 14.6299 44.6654 15.4271 44.5485 16.4806L44.0592 20.8905L40.5888 18.1259C39.7597 17.4654 38.5665 17.5341 37.8186 18.2854L32.8601 23.2662C32.1122 24.0174 32.0489 25.211 32.7131 26.037L35.447 29.4374L31.1105 29.9185C30.0569 30.0354 29.2598 30.9259 29.2598 31.9859V39.0141C29.2598 40.0741 30.0569 40.9646 31.1105 41.0815L35.5204 41.5708L32.7558 45.041C32.0953 45.8702 32.164 47.0633 32.9152 47.8113L37.896 52.7698C38.647 53.5176 39.8406 53.581 40.6668 52.9168L44.0672 50.1829L44.5483 54.5194C44.6652 55.573 45.5557 56.3701 46.6157 56.3701H48.0498V66.8398ZM66.8398 37.152L62.4209 37.6422C61.6162 37.7315 60.9364 38.2797 60.6787 39.0471C60.5217 39.5144 60.3296 39.9784 60.1079 40.4265C59.7486 41.1524 59.8436 42.021 60.3511 42.6524L63.1379 46.1185L60.8068 48.46L57.3281 45.6889C56.6949 45.1843 55.8256 45.0933 55.1013 45.4557C54.6391 45.687 54.1598 45.8864 53.677 46.0488C52.9096 46.3067 52.3615 46.9865 52.2722 47.7912L51.782 52.2101H48.478L47.9878 47.7912C47.8985 46.9865 47.3505 46.3067 46.5831 46.0488C46.1156 45.8917 45.6515 45.6996 45.2037 45.478C44.4775 45.1186 43.609 45.2136 42.9777 45.7211L39.5116 48.5077L37.17 46.1766L39.9411 42.698C40.4459 42.0644 40.5368 41.1954 40.1744 40.471C39.9432 40.0092 39.7438 39.5301 39.5814 39.047C39.3235 38.2794 38.6437 37.7314 37.8391 37.6421L33.4199 37.152V33.848L37.8388 33.3578C38.6436 33.2685 39.3233 32.7203 39.5811 31.9529C39.7381 31.4856 39.9301 31.0216 40.1519 30.5735C40.5112 29.8476 40.4162 28.979 39.9087 28.3476L37.1219 24.8815L39.453 22.54L42.9317 25.3111C43.5652 25.8158 44.4343 25.9068 45.1585 25.5443C45.6207 25.313 46.0999 25.1136 46.5828 24.9512C47.3502 24.6933 47.8982 24.0135 47.9875 23.2088L48.4777 18.7899H51.7817L52.2719 23.2088C52.3613 24.0135 52.9093 24.6933 53.6767 24.9512C54.1442 25.1083 54.6083 25.3004 55.0561 25.522C55.7821 25.8813 56.6507 25.7865 57.282 25.2789L60.7481 22.4923L63.0897 24.8234L60.3187 28.302C59.8139 28.9356 59.7229 29.8046 60.0854 30.529C60.3166 30.9908 60.516 31.4699 60.6784 31.9531C60.9363 32.7206 61.6161 33.2686 62.4206 33.3579L66.8398 33.848V37.152Z" fill="white"/>
<path id="Vector_3" d="M10.4004 25.7773H23.0191C24.1679 25.7773 25.0992 24.846 25.0992 23.6973C25.0992 22.5485 24.1679 21.6172 23.0191 21.6172H10.4004C9.25163 21.6172 8.32031 22.5485 8.32031 23.6973C8.32031 24.846 9.25163 25.7773 10.4004 25.7773Z" fill="white"/>
<path id="Vector_4" d="M10.4004 34.0977H23.0191C24.1679 34.0977 25.0992 33.1663 25.0992 32.0176C25.0992 30.8688 24.1679 29.9375 23.0191 29.9375H10.4004C9.25163 29.9375 8.32031 30.8688 8.32031 32.0176C8.32031 33.1663 9.25163 34.0977 10.4004 34.0977Z" fill="white"/>
<path id="Vector_5" d="M10.4004 42.418H23.0191C24.1679 42.418 25.0992 41.4866 25.0992 40.3379C25.0992 39.1891 24.1679 38.2578 23.0191 38.2578H10.4004C9.25163 38.2578 8.32031 39.1891 8.32031 40.3379C8.32031 41.4866 9.25163 42.418 10.4004 42.418Z" fill="white"/>
<path id="Vector_6" d="M10.4004 50.7383H23.0191C24.1679 50.7383 25.0992 49.807 25.0992 48.6582C25.0992 47.5094 24.1679 46.5781 23.0191 46.5781H10.4004C9.25163 46.5781 8.32031 47.5094 8.32031 48.6582C8.32031 49.807 9.25163 50.7383 10.4004 50.7383Z" fill="white"/>
<path id="Vector_7" d="M29.9527 54.8984H10.4004C9.25163 54.8984 8.32031 55.8298 8.32031 56.9785C8.32031 58.1273 9.25163 59.0586 10.4004 59.0586H29.9527C31.1015 59.0586 32.0328 58.1273 32.0328 56.9785C32.0328 55.8298 31.1015 54.8984 29.9527 54.8984Z" fill="white"/>
</g>
</svg>
