<svg xmlns="http://www.w3.org/2000/svg" width="50" height="51" viewBox="0 0 50 51" fill="none">
  <path d="M44.6429 21.9286V20.1429C44.6429 14.9332 42.5733 9.93701 38.8896 6.25326C35.2058 2.56951 30.2096 0.5 25 0.5C19.7904 0.5 14.7942 2.56951 11.1104 6.25326C7.42665 9.93701 5.35714 14.9332 5.35714 20.1429V21.9286C3.93682 21.9301 2.57511 22.495 1.57079 23.4994C0.566472 24.5037 0.00155978 25.8654 0 27.2857V36.2143C0.00155978 37.6346 0.566472 38.9963 1.57079 40.0006C2.57511 41.005 3.93682 41.5699 5.35714 41.5714H12.5C12.9736 41.5714 13.4278 41.3833 13.7627 41.0484C14.0976 40.7135 14.2857 40.2593 14.2857 39.7857V23.7143C14.2857 23.2407 14.0976 22.7865 13.7627 22.4516C13.4278 22.1167 12.9736 21.9286 12.5 21.9286H8.92857V20.1429C8.92857 15.8804 10.6218 11.7926 13.6358 8.77864C16.6498 5.76466 20.7376 4.07143 25 4.07143C29.2624 4.07143 33.3502 5.76466 36.3642 8.77864C39.3782 11.7926 41.0714 15.8804 41.0714 20.1429V21.9286H37.5C37.0264 21.9286 36.5722 22.1167 36.2373 22.4516C35.9024 22.7865 35.7143 23.2407 35.7143 23.7143V39.7857C35.7143 40.2593 35.9024 40.7135 36.2373 41.0484C36.5722 41.3833 37.0264 41.5714 37.5 41.5714H41.0714C41.0711 42.0449 40.8829 42.499 40.5481 42.8338C40.2133 43.1686 39.7592 43.3569 39.2857 43.3571H31.8138C31.4469 42.3156 30.7666 41.4131 29.8664 40.7737C28.9661 40.1342 27.89 39.7891 26.7857 39.7857H23.2143C21.7935 39.7857 20.4309 40.3501 19.4262 41.3548C18.4216 42.3594 17.8571 43.7221 17.8571 45.1429C17.8571 46.5637 18.4216 47.9263 19.4262 48.9309C20.4309 49.9356 21.7935 50.5 23.2143 50.5H26.7857C27.89 50.4966 28.9661 50.1515 29.8664 49.512C30.7666 48.8726 31.4469 47.9701 31.8138 46.9286H39.2857C40.706 46.927 42.0677 46.3621 43.0721 45.3578C44.0764 44.3535 44.6413 42.9918 44.6429 41.5714C46.0632 41.5699 47.4249 41.005 48.4292 40.0006C49.4335 38.9963 49.9984 37.6346 50 36.2143V27.2857C49.9984 25.8654 49.4335 24.5037 48.4292 23.4994C47.4249 22.495 46.0632 21.9301 44.6429 21.9286ZM10.7143 38H5.35714C4.88363 37.9997 4.42959 37.8115 4.09477 37.4767C3.75994 37.1418 3.57171 36.6878 3.57143 36.2143V27.2857C3.57171 26.8122 3.75994 26.3582 4.09477 26.0233C4.42959 25.6885 4.88363 25.5003 5.35714 25.5H10.7143V38ZM26.7857 46.9286H23.2143C22.7407 46.9286 22.2865 46.7404 21.9516 46.4055C21.6167 46.0707 21.4286 45.6165 21.4286 45.1429C21.4286 44.6693 21.6167 44.215 21.9516 43.8802C22.2865 43.5453 22.7407 43.3571 23.2143 43.3571H26.7857C27.2593 43.3571 27.7135 43.5453 28.0484 43.8802C28.3833 44.215 28.5714 44.6693 28.5714 45.1429C28.5714 45.6165 28.3833 46.0707 28.0484 46.4055C27.7135 46.7404 27.2593 46.9286 26.7857 46.9286ZM46.4286 36.2143C46.4283 36.6878 46.2401 37.1418 45.9052 37.4767C45.5704 37.8115 45.1164 37.9997 44.6429 38H39.2857V25.5H44.6429C45.1164 25.5003 45.5704 25.6885 45.9052 26.0233C46.2401 26.3582 46.4283 26.8122 46.4286 27.2857V36.2143Z" fill="#F69951"/>
</svg>