<svg xmlns="http://www.w3.org/2000/svg" width="60" height="60" viewBox="0 0 60 60" fill="none">
  <path d="M54.257 19.4882L59.372 14.373C59.6121 14.1329 59.7917 13.8392 59.8959 13.5161C60.0002 13.193 60.0262 12.8497 59.9718 12.5146C59.9174 12.1794 59.7841 11.862 59.583 11.5885C59.3818 11.315 59.1186 11.0931 58.8149 10.9413L37.3865 0.227248C36.9842 0.0261765 36.5288 -0.0432196 36.0849 0.0288899C35.6409 0.100999 35.2309 0.310958 34.913 0.629026L30.0001 5.54229L25.0865 0.629026C24.769 0.310246 24.359 0.0997958 23.9149 0.027655C23.4707 -0.0444857 23.0152 0.0253619 22.6131 0.227248L1.18464 10.9413C0.880943 11.0931 0.617673 11.315 0.416523 11.5885C0.215374 11.862 0.0821032 12.1794 0.0276933 12.5146C-0.0267167 12.8497 -0.000708154 13.193 0.103576 13.5161C0.20786 13.8392 0.387434 14.1329 0.627499 14.373L5.74311 19.4882L0.428858 26.5721C0.240645 26.8231 0.109856 27.1124 0.0457324 27.4196C-0.0183909 27.7267 -0.0142842 28.0442 0.0577624 28.3495C0.129809 28.6549 0.268037 28.9407 0.462681 29.1868C0.657325 29.4329 0.903636 29.6332 1.18421 29.7737L6.42882 32.3967V47.1431C6.42877 47.5411 6.53955 47.9312 6.74873 48.2697C6.95791 48.6082 7.25724 48.8819 7.61316 49.0599L29.0416 59.7739C29.0604 59.7834 29.0823 59.7793 29.1014 59.7881C29.3805 59.9274 29.6881 60 30.0001 60C30.312 60 30.6197 59.9274 30.8988 59.7881C30.9179 59.7793 30.9397 59.7834 30.9586 59.7739L52.387 49.0599C52.7429 48.8819 53.0422 48.6082 53.2514 48.2697C53.4606 47.9312 53.5714 47.5411 53.5713 47.1431V32.3967L58.8155 29.7745C59.0963 29.6341 59.3427 29.4338 59.5375 29.1877C59.7323 28.9415 59.8706 28.6556 59.9427 28.3501C60.0148 28.0447 60.0189 27.7271 59.9547 27.4198C59.8905 27.1126 59.7597 26.8232 59.5713 26.5721L54.257 19.4882ZM13.3637 19.2865L30.0001 10.9685L46.6365 19.2865L30.0001 27.6045L13.3637 19.2865ZM36.8514 4.75137L54.2399 13.4461L51.0057 16.6791L33.6172 7.98445L36.8514 4.75137ZM23.1488 4.75137L26.383 7.98445L8.99444 16.6791L5.76025 13.4461L23.1488 4.75137ZM9.2128 22.0032L26.7447 30.769L22.9304 35.8556L9.53015 29.1552L9.52672 29.154L5.39811 27.0898L9.2128 22.0032ZM10.7145 34.5395L22.6131 40.4886C23.0653 40.6957 23.5737 40.7461 24.0577 40.6318C24.5418 40.5175 24.974 40.245 25.2858 39.8575L27.8572 36.429V54.3899L10.7145 45.8186V34.5395ZM49.2857 45.8184L32.1429 54.3897V36.429L34.7143 39.8575C35.0273 40.2434 35.4593 40.5147 35.9428 40.629C36.4263 40.7433 36.934 40.6942 37.3867 40.4895L49.2857 34.5395V45.8184ZM50.4734 29.154L50.47 29.1552L37.07 35.8556L33.2557 30.769L50.7876 22.0032L54.6018 27.0898L50.4734 29.154Z" fill="#F69951"/>
</svg>