<svg xmlns="http://www.w3.org/2000/svg" width="50" height="51" viewBox="0 0 50 51" fill="none">
  <path d="M10.7144 29.0714C10.9489 29.0717 11.1812 29.0256 11.3978 28.9358C11.6145 28.846 11.8113 28.7143 11.9769 28.5482L33.9287 6.59661V9.42857C33.9287 9.90217 34.1168 10.3564 34.4517 10.6913C34.7866 11.0261 35.2408 11.2143 35.7144 11.2143C36.188 11.2143 36.6422 11.0261 36.9771 10.6913C37.312 10.3564 37.5001 9.90217 37.5001 9.42857V2.28571C37.4983 1.81265 37.3097 1.35946 36.9751 1.02495C36.6406 0.690437 36.1874 0.501741 35.7144 0.5H28.5715C28.0979 0.5 27.6437 0.688137 27.3088 1.02302C26.9739 1.35791 26.7858 1.81211 26.7858 2.28571C26.7858 2.75932 26.9739 3.21352 27.3088 3.5484C27.6437 3.88329 28.0979 4.07143 28.5715 4.07143H31.4035L9.45187 26.0232C9.20221 26.2729 9.0322 26.5911 8.96333 26.9374C8.89446 27.2838 8.92982 27.6428 9.06495 27.969C9.20007 28.2953 9.42889 28.5741 9.72248 28.7704C10.0161 28.9666 10.3612 29.0714 10.7144 29.0714Z" fill="#F69951"/>
  <path d="M48.2143 46.928H44.6429V16.5709C44.6429 16.0973 44.4547 15.6431 44.1198 15.3082C43.7849 14.9733 43.3307 14.7852 42.8571 14.7852H35.7143C35.2407 14.7852 34.7865 14.9733 34.4516 15.3082C34.1167 15.6431 33.9286 16.0973 33.9286 16.5709V46.928H30.3571V27.2852C30.3571 26.8116 30.169 26.3574 29.8341 26.0225C29.4992 25.6876 29.045 25.4994 28.5714 25.4994H21.4286C20.955 25.4994 20.5008 25.6876 20.1659 26.0225C19.831 26.3574 19.6429 26.8116 19.6429 27.2852V46.928H16.0714V36.2137C16.0714 35.7401 15.8833 35.2859 15.5484 34.951C15.2135 34.6161 14.7593 34.428 14.2857 34.428H7.14286C6.66926 34.428 6.21505 34.6161 5.88017 34.951C5.54528 35.2859 5.35714 35.7401 5.35714 36.2137V46.928H1.78571C1.31211 46.928 0.85791 47.1161 0.523023 47.451C0.188137 47.7859 0 48.2401 0 48.7137C0 49.1873 0.188137 49.6415 0.523023 49.9764C0.85791 50.3113 1.31211 50.4994 1.78571 50.4994H48.2143C48.6879 50.4994 49.1421 50.3113 49.477 49.9764C49.8119 49.6415 50 49.1873 50 48.7137C50 48.2401 49.8119 47.7859 49.477 47.451C49.1421 47.1161 48.6879 46.928 48.2143 46.928ZM8.92857 46.928V37.9994H12.5V46.928H8.92857ZM23.2143 46.928V29.0709H26.7857V46.928H23.2143ZM37.5 46.928V18.3566H41.0714V46.928H37.5Z" fill="#F69951"/>
</svg>