<svg xmlns="http://www.w3.org/2000/svg" width="50" height="38" viewBox="0 0 50 38" fill="none">
  <path d="M44.6429 0.5H5.35714C3.93682 0.501616 2.57511 1.08687 1.57079 2.12734C0.566472 3.16782 0.00155978 4.57854 0 6.05V31.95C0.00155978 33.4215 0.566472 34.8322 1.57079 35.8727C2.57511 36.9131 3.93682 37.4984 5.35714 37.5H44.6429C46.0632 37.4984 47.4249 36.9131 48.4292 35.8727C49.4335 34.8322 49.9984 33.4215 50 31.95V6.05C49.9984 4.57854 49.4335 3.16782 48.4292 2.12734C47.4249 1.08687 46.0632 0.501616 44.6429 0.5ZM5.35714 4.2H44.6429C45.1163 4.20064 45.5701 4.39575 45.9049 4.74256C46.2396 5.08936 46.428 5.55955 46.4286 6.05V7.9H3.57143V6.05C3.57204 5.55955 3.76038 5.08936 4.09513 4.74256C4.42988 4.39575 4.88373 4.20064 5.35714 4.2ZM44.6429 33.8H5.35714C4.88373 33.7994 4.42988 33.6042 4.09513 33.2574C3.76038 32.9106 3.57204 32.4405 3.57143 31.95V15.3H46.4286V31.95C46.428 32.4405 46.2396 32.9106 45.9049 33.2574C45.5701 33.6042 45.1163 33.7994 44.6429 33.8Z" fill="#F69951"/>
  <path d="M41.0715 22.7002H37.5001C36.5139 22.7002 35.7144 23.5285 35.7144 24.5502V28.2502C35.7144 29.2719 36.5139 30.1002 37.5001 30.1002H41.0715C42.0578 30.1002 42.8572 29.2719 42.8572 28.2502V24.5502C42.8572 23.5285 42.0578 22.7002 41.0715 22.7002Z" fill="#F69951"/>
  <path d="M30.3583 24.5498H8.92976C8.45616 24.5498 8.00195 24.7447 7.66707 25.0917C7.33218 25.4386 7.14404 25.9092 7.14404 26.3998C7.14404 26.8905 7.33218 27.361 7.66707 27.708C8.00195 28.0549 8.45616 28.2498 8.92976 28.2498H30.3583C30.8319 28.2498 31.2861 28.0549 31.621 27.708C31.9559 27.361 32.144 26.8905 32.144 26.3998C32.144 25.9092 31.9559 25.4386 31.621 25.0917C31.2861 24.7447 30.8319 24.5498 30.3583 24.5498Z" fill="#F69951"/>
</svg>