<svg xmlns="http://www.w3.org/2000/svg" width="52" height="51" viewBox="0 0 52 51" fill="none">
  <path d="M31.6807 45.7218L31.6947 45.7087L31.8247 45.5864L32.3181 45.1223L34.0793 43.4656L39.4243 38.4379L47.2067 31.1177C47.2068 31.1176 47.2069 31.1175 47.207 31.1174C48.1248 30.2537 48.2402 28.6233 47.3848 27.6165L47.3848 27.6165C46.6517 26.7527 45.4672 26.5897 44.5638 27.2264L33.999 34.6745C33.956 35.33 33.8174 35.9876 33.552 36.6157L33.4599 36.5768L33.552 36.6157C32.4392 39.2489 29.3971 40.5473 26.9763 39.4781M31.6807 45.7218L21.6751 37.0272M31.6807 45.7218L15.8118 45.0637V30.8479L23.9071 29.0655L29.7724 32.2571M31.6807 45.7218L29.7724 32.2571M26.9763 39.4781L27.0167 39.3866L26.9767 39.4782L26.9763 39.4781ZM26.9763 39.4781L24.3036 38.2976L22.4686 37.487L21.864 37.22L21.6946 37.1452L21.65 37.1255L21.6386 37.1204L21.6357 37.1191L21.6349 37.1188L21.6348 37.1187L21.6751 37.0272M21.6751 37.0272L21.6347 37.1187C21.5865 37.0974 21.5631 37.0425 21.5811 36.993L22.6769 33.985C22.6863 33.959 22.7062 33.9381 22.7316 33.9272C22.7571 33.9164 22.7859 33.9166 22.8112 33.9277L28.1529 36.2871L28.1531 36.2872C29.1285 36.7206 30.2501 36.2384 30.6993 35.1712L30.6993 35.171C31.1573 34.0874 30.7345 32.7808 29.7724 32.2571M21.6751 37.0272L29.7724 32.2571M42.8625 24.3333L42.8625 24.3334L33.1762 31.162C32.6935 30.34 32.0216 29.6389 31.1726 29.1768L31.1248 29.2646L31.1726 29.1768L24.376 25.4779C24.3549 25.4664 24.3302 25.4629 24.3067 25.4681L15.8118 27.3393V25.6596C15.8118 25.6044 15.7671 25.5596 15.7118 25.5596H1C0.944772 25.5596 0.9 25.6044 0.9 25.6596V50.5C0.9 50.5552 0.944772 50.6 1 50.6H15.7118C15.7671 50.6 15.8118 50.5552 15.8118 50.5V48.5063L32.7527 49.2077C32.7796 49.2088 32.8058 49.1991 32.8254 49.1806L49.2555 33.7271L49.2556 33.7271C51.5294 31.5862 51.7332 27.682 49.6865 25.2741L49.6103 25.3389L49.6865 25.2741C47.9179 23.1934 45.0471 22.7942 42.8625 24.3333ZM12.6695 47.16H4.04235V28.9997H12.6695V47.16Z" fill="#F69951" stroke="#D2D2D2" stroke-width="0.2" stroke-linejoin="round"/>
  <path d="M13.3924 11.8025L18.5538 6.204V22.8405C18.5538 22.8958 18.5986 22.9405 18.6538 22.9405H43.1736C43.2288 22.9405 43.2736 22.8958 43.2736 22.8405V6.204L48.435 11.8025C48.4539 11.823 48.4806 11.8347 48.5085 11.8347C48.5365 11.8347 48.5631 11.823 48.5821 11.8025L50.6624 9.54598C50.6977 9.50768 50.6977 9.4487 50.6624 9.41041L42.3851 0.432217C42.3661 0.411682 42.3395 0.4 42.3115 0.4H19.5159C19.4879 0.4 19.4613 0.411682 19.4423 0.432217L11.165 9.41041C11.1297 9.4487 11.1297 9.50768 11.165 9.54598L13.2454 11.8025C13.2643 11.823 13.2909 11.8347 13.3189 11.8347C13.3468 11.8347 13.3735 11.823 13.3924 11.8025ZM21.6962 19.549V3.7915H40.1312V19.549H21.6962Z" fill="#F69951" stroke="#D2D2D2" stroke-width="0.2" stroke-linejoin="round"/>
  <path d="M31.5046 13.2656C31.5046 13.2104 31.4598 13.1656 31.4046 13.1656H24.5391C24.4838 13.1656 24.4391 13.2104 24.4391 13.2656V16.4571C24.4391 16.5124 24.4838 16.5571 24.5391 16.5571H31.4046C31.4598 16.5571 31.5046 16.5124 31.5046 16.4571V13.2656Z" fill="#F69951" stroke="#D2D2D2" stroke-width="0.2" stroke-linejoin="round"/>
</svg>