<svg width="62" height="80" viewBox="0 0 62 80" fill="none" xmlns="http://www.w3.org/2000/svg">
<g id="p">
<g id="Group">
<path id="Vector" d="M19.75 23.3535H2.875V17.7285H16.9375V3.66602H22.5625V20.541C22.5625 22.0941 21.3045 23.3535 19.75 23.3535Z" fill="white"/>
<path id="Vector_2" d="M59.125 79.6035H2.875C1.32053 79.6035 0.0625 78.3441 0.0625 76.791V20.541C0.0625 19.7954 0.359219 19.0799 0.886563 18.5526L17.7616 1.67758C18.2889 1.15023 19.003 0.853516 19.75 0.853516H59.125C60.6795 0.853516 61.9375 2.11295 61.9375 3.66602V76.791C61.9375 78.3441 60.6795 79.6035 59.125 79.6035ZM5.6875 73.9785H56.3125V6.47852H20.9147L5.6875 21.7057V73.9785Z" fill="white"/>
<path id="Vector_3" d="M31 57.1035H14.125C12.5705 57.1035 11.3125 55.8441 11.3125 54.291C11.3125 52.738 12.5705 51.4785 14.125 51.4785H31C32.5545 51.4785 33.8125 52.738 33.8125 54.291C33.8125 55.8441 32.5545 57.1035 31 57.1035Z" fill="white"/>
<path id="Vector_4" d="M31 68.3535H14.125C12.5705 68.3535 11.3125 67.0941 11.3125 65.541C11.3125 63.988 12.5705 62.7285 14.125 62.7285H31C32.5545 62.7285 33.8125 63.988 33.8125 65.541C33.8125 67.0941 32.5545 68.3535 31 68.3535Z" fill="white"/>
<path id="Vector_5" d="M47.875 57.1035H42.25C40.6955 57.1035 39.4375 55.8441 39.4375 54.291C39.4375 52.738 40.6955 51.4785 42.25 51.4785H47.875C49.4295 51.4785 50.6875 52.738 50.6875 54.291C50.6875 55.8441 49.4295 57.1035 47.875 57.1035Z" fill="white"/>
<path id="Vector_6" d="M47.875 68.3535H42.25C40.6955 68.3535 39.4375 67.0941 39.4375 65.541C39.4375 63.988 40.6955 62.7285 42.25 62.7285H47.875C49.4295 62.7285 50.6875 63.988 50.6875 65.541C50.6875 67.0941 49.4295 68.3535 47.875 68.3535Z" fill="white"/>
<path id="Vector_7" d="M47.8749 17.7285H39.4374C37.8829 17.7285 36.6249 18.988 36.6249 20.541C36.6249 22.0941 37.8829 23.3535 39.4374 23.3535H41.0852L35.4602 28.9785H25.3749C24.6279 28.9785 23.9138 29.2752 23.3864 29.8026L12.1364 41.0526C11.0379 42.1511 11.0379 43.9309 12.1364 45.0297C12.6857 45.579 13.4054 45.8538 14.1249 45.8538C14.8443 45.8538 15.564 45.579 16.1133 45.0297L26.5392 34.6038H36.6246C37.3716 34.6038 38.0857 34.3071 38.613 33.7797L45.0621 27.3307V28.9785C45.0621 30.5316 46.3201 31.791 47.8746 31.791C49.429 31.791 50.6871 30.5316 50.6871 28.9785V20.541C50.6871 18.988 49.4293 17.7285 47.8749 17.7285Z" fill="white"/>
</g>
</g>
</svg>
