<svg width="95" height="85" viewBox="0 0 95 85" fill="none" xmlns="http://www.w3.org/2000/svg">
<g id="Group">
<path id="Vector" d="M20.3569 80.7285H13.5711C13.5711 74.9385 9.00538 70.2285 3.39258 70.2285V63.2285C12.746 63.2285 20.3569 71.0797 20.3569 80.7285Z" fill="white"/>
<path id="Vector_2" d="M67.857 80.7285H61.0713C61.0713 71.0797 68.6821 63.2285 78.0356 63.2285V70.2285C72.4228 70.2285 67.857 74.9385 67.857 80.7285Z" fill="white"/>
<path id="Vector_3" d="M3.39258 49.2285V42.2285C9.00538 42.2285 13.5711 37.5186 13.5711 31.7285H20.3569C20.3569 41.3773 12.746 49.2285 3.39258 49.2285Z" fill="white"/>
<path id="Vector_4" d="M78.0357 84.2285H3.39286C1.51763 84.2285 0 82.663 0 80.7285V31.7285C0 29.7941 1.51763 28.2285 3.39286 28.2285H51.7411V35.2285H6.78571V77.2285H74.6429V44.8535H81.4286V80.7285C81.4286 82.663 79.9109 84.2285 78.0357 84.2285Z" fill="white"/>
<path id="Vector_5" d="M40.714 70.2285C33.229 70.2285 27.1426 63.9499 27.1426 56.2285C27.1426 48.5072 33.229 42.2285 40.714 42.2285C48.199 42.2285 54.2854 48.5072 54.2854 56.2285C54.2854 63.9499 48.199 70.2285 40.714 70.2285ZM40.714 49.2285C36.9734 49.2285 33.9283 52.3698 33.9283 56.2285C33.9283 60.0873 36.9734 63.2285 40.714 63.2285C44.4546 63.2285 47.4997 60.0873 47.4997 56.2285C47.4997 52.3698 44.4546 49.2285 40.714 49.2285Z" fill="white"/>
<path id="Vector_6" d="M71.25 49.2285C58.1556 49.2285 47.5 38.2364 47.5 24.7285C47.5 11.2206 58.1556 0.228516 71.25 0.228516C84.3444 0.228516 95 11.2206 95 24.7285C95 38.2364 84.3444 49.2285 71.25 49.2285ZM71.25 7.22852C61.8966 7.22852 54.2857 15.0797 54.2857 24.7285C54.2857 34.3773 61.8966 42.2285 71.25 42.2285C80.6034 42.2285 88.2143 34.3773 88.2143 24.7285C88.2143 15.0797 80.6034 7.22852 71.25 7.22852Z" fill="white"/>
<path id="Vector_7" d="M68.7046 33.4787C67.8364 33.4787 66.9685 33.1367 66.3059 32.4532L61.2166 27.2032C59.8913 25.8361 59.8913 23.6213 61.2166 22.2538C62.5418 20.8864 64.6888 20.8867 66.0144 22.2538L68.705 25.0293L76.4848 17.0038C77.81 15.6367 79.957 15.6367 81.2826 17.0038C82.6082 18.3709 82.6079 20.5857 81.2826 21.9532L71.1041 32.4532C70.4414 33.1367 69.5725 33.4787 68.7046 33.4787Z" fill="white"/>
</g>
</svg>
