<svg width="85" height="72" viewBox="0 0 85 72" fill="none" xmlns="http://www.w3.org/2000/svg">
<g id="ac">
<g id="Group">
<path id="Vector" d="M69.2188 32.7598H57.3438V38.6973H69.2188V32.7598Z" fill="white"/>
<path id="Vector_2" d="M62.9331 11.0972L52.3945 21.6357L56.5926 25.8338L67.1311 15.2952L62.9331 11.0972Z" fill="white"/>
<path id="Vector_3" d="M56.5926 45.6233L52.3945 49.8213L62.9331 60.3598L67.1311 56.1618L56.5926 45.6233Z" fill="white"/>
<path id="Vector_4" d="M30.625 65.416C14.2547 65.416 0.9375 52.0973 0.9375 35.7285C0.9375 19.3597 14.2547 6.04102 30.625 6.04102C46.9953 6.04102 60.3125 19.3597 60.3125 35.7285C60.3125 52.0973 46.9938 65.416 30.625 65.416ZM30.625 11.9785C17.5295 11.9785 6.875 22.6331 6.875 35.7285C6.875 48.824 17.5295 59.4785 30.625 59.4785C43.7205 59.4785 54.375 48.824 54.375 35.7285C54.375 22.6331 43.7205 11.9785 30.625 11.9785Z" fill="white"/>
<path id="Vector_5" d="M39.5312 41.666C39.5312 36.7548 35.5362 32.7598 30.625 32.7598C28.9883 32.7598 27.6562 31.4292 27.6562 29.791C27.6562 28.1529 28.9883 26.8223 30.625 26.8223C31.689 26.8223 32.65 27.3819 33.1965 28.3182C34.0242 29.7358 35.8464 30.2144 37.2584 29.3852C38.6733 28.559 39.1515 26.7412 38.3253 25.3263C37.2314 23.453 35.5415 22.1459 33.5938 21.4545V20.8848C33.5938 19.2439 32.2643 17.916 30.625 17.916C28.9857 17.916 27.6562 19.2439 27.6562 20.8848V21.4319C24.208 22.6613 21.7188 25.926 21.7188 29.791C21.7188 34.7022 25.7138 38.6973 30.625 38.6973C32.2617 38.6973 33.5938 40.0279 33.5938 41.666C33.5938 43.3042 32.2617 44.6348 30.625 44.6348C29.561 44.6348 28.6 44.0752 28.0535 43.1388C27.2258 41.7239 25.411 41.2456 23.9916 42.0718C22.5767 42.898 22.0985 44.7158 22.9247 46.1307C24.0186 48.004 25.7085 49.3111 27.6562 50.0026V50.5723C27.6562 52.2131 28.9857 53.541 30.625 53.541C32.2643 53.541 33.5938 52.2131 33.5938 50.5723V50.0251C37.042 48.7958 39.5312 45.531 39.5312 41.666Z" fill="white"/>
<path id="Vector_6" d="M75.1562 44.6348C70.245 44.6348 66.25 40.6397 66.25 35.7285C66.25 30.8173 70.245 26.8223 75.1562 26.8223C80.0675 26.8223 84.0625 30.8173 84.0625 35.7285C84.0625 40.6397 80.0675 44.6348 75.1562 44.6348ZM75.1562 32.7598C73.5181 32.7598 72.1875 34.0904 72.1875 35.7285C72.1875 37.3667 73.5181 38.6973 75.1562 38.6973C76.7944 38.6973 78.125 37.3667 78.125 35.7285C78.125 34.0904 76.7944 32.7598 75.1562 32.7598Z" fill="white"/>
<path id="Vector_7" d="M69.2188 17.916C64.3075 17.916 60.3125 13.921 60.3125 9.00977C60.3125 4.09856 64.3075 0.103516 69.2188 0.103516C74.13 0.103516 78.125 4.09856 78.125 9.00977C78.125 13.921 74.13 17.916 69.2188 17.916ZM69.2188 6.04102C67.5806 6.04102 66.25 7.37161 66.25 9.00977C66.25 10.6479 67.5806 11.9785 69.2188 11.9785C70.8569 11.9785 72.1875 10.6479 72.1875 9.00977C72.1875 7.37161 70.8569 6.04102 69.2188 6.04102Z" fill="white"/>
<path id="Vector_8" d="M69.2188 71.3535C64.3075 71.3535 60.3125 67.3585 60.3125 62.4473C60.3125 57.5361 64.3075 53.541 69.2188 53.541C74.13 53.541 78.125 57.5361 78.125 62.4473C78.125 67.3585 74.13 71.3535 69.2188 71.3535ZM69.2188 59.4785C67.5806 59.4785 66.25 60.8091 66.25 62.4473C66.25 64.0854 67.5806 65.416 69.2188 65.416C70.8569 65.416 72.1875 64.0854 72.1875 62.4473C72.1875 60.8091 70.8569 59.4785 69.2188 59.4785Z" fill="white"/>
</g>
</g>
</svg>
