<svg width="78" height="79" viewBox="0 0 78 79" fill="none" xmlns="http://www.w3.org/2000/svg">
<g id="h">
<g id="Group">
<path id="Vector" d="M75.2137 22.5137H2.78516V28.0851H75.2137V22.5137Z" fill="white"/>
<path id="Vector_2" d="M75.2143 78.2285H2.78571C1.24744 78.2285 0 76.9811 0 75.4428V3.01423C0 1.47596 1.24744 0.228516 2.78571 0.228516H75.2143C76.7526 0.228516 78 1.47596 78 3.01423V75.4428C78 76.9811 76.7526 78.2285 75.2143 78.2285ZM5.57143 72.6571H72.4286V5.79994H5.57143V72.6571Z" fill="white"/>
<path id="Vector_3" d="M13.9283 16.9425C15.4668 16.9425 16.714 15.6953 16.714 14.1568C16.714 12.6183 15.4668 11.3711 13.9283 11.3711C12.3898 11.3711 11.1426 12.6183 11.1426 14.1568C11.1426 15.6953 12.3898 16.9425 13.9283 16.9425Z" fill="white"/>
<path id="Vector_4" d="M25.0718 16.9425C26.6104 16.9425 27.8576 15.6953 27.8576 14.1568C27.8576 12.6183 26.6104 11.3711 25.0718 11.3711C23.5333 11.3711 22.2861 12.6183 22.2861 14.1568C22.2861 15.6953 23.5333 16.9425 25.0718 16.9425Z" fill="white"/>
<path id="Vector_5" d="M64.0713 16.9425H47.357C45.8187 16.9425 44.5713 15.6951 44.5713 14.1568C44.5713 12.6185 45.8187 11.3711 47.357 11.3711H64.0713C65.6096 11.3711 66.857 12.6185 66.857 14.1568C66.857 15.6951 65.6096 16.9425 64.0713 16.9425Z" fill="white"/>
<path id="Vector_6" d="M64.0714 55.9428H42.9393L43.7555 55.1266C44.8436 54.0385 44.8436 52.2757 43.7555 51.1873C42.6674 50.0989 40.9046 50.0992 39.8162 51.1873L34.2448 56.7587C33.1567 57.8468 33.1567 59.6096 34.2448 60.698L39.8162 66.2694C40.3603 66.8135 41.0731 67.0856 41.7857 67.0856C42.4983 67.0856 43.2112 66.8135 43.7552 66.2694C44.8433 65.1813 44.8433 63.4185 43.7552 62.3301L42.939 61.5139H64.0711C65.6094 61.5139 66.8569 60.2665 66.8569 58.7282C66.8569 57.1899 65.6097 55.9428 64.0714 55.9428Z" fill="white"/>
<path id="Vector_7" d="M66.0411 40.0447L60.4696 34.4733C59.3815 33.3852 57.6187 33.3852 56.5304 34.4733C55.442 35.5614 55.4423 37.3242 56.5304 38.4126L57.3466 39.2288H36.2144C34.6762 39.2288 33.4287 40.4762 33.4287 42.0145C33.4287 43.5528 34.6762 44.8002 36.2144 44.8002H57.3466L56.5304 45.6164C55.4423 46.7045 55.4423 48.4673 56.5304 49.5557C57.0744 50.0998 57.7873 50.3719 58.4999 50.3719C59.2125 50.3719 59.9253 50.0998 60.4694 49.5557L66.0408 43.9843C67.1289 42.8962 67.1292 41.1331 66.0411 40.0447Z" fill="white"/>
<path id="Vector_8" d="M27.8569 55.9429C27.8569 51.3345 24.1081 47.5858 19.4997 47.5858C17.964 47.5858 16.714 46.3358 16.714 44.8001C16.714 43.2643 17.964 42.0144 19.4997 42.0144C20.4981 42.0144 21.3999 42.5395 21.9127 43.4181C22.6894 44.7458 24.3965 45.1959 25.7227 44.4207C27.0518 43.6454 27.5006 41.9397 26.7253 40.6106C25.6996 38.8515 24.1134 37.6252 22.2854 36.977V36.4429C22.2854 34.9047 21.038 33.6572 19.4997 33.6572C17.9614 33.6572 16.714 34.9047 16.714 36.4429V36.9563C13.4784 38.1099 11.1426 41.1734 11.1426 44.8001C11.1426 49.4085 14.8913 53.1572 19.4997 53.1572C21.0355 53.1572 22.2854 54.4072 22.2854 55.9429C22.2854 57.4787 21.0355 58.7287 19.4997 58.7287C18.5013 58.7287 17.5996 58.2035 17.0867 57.3249C16.3101 55.9987 14.6044 55.5485 13.2767 56.3224C11.9476 57.0976 11.4989 58.8033 12.2741 60.1324C13.2998 61.8916 14.886 63.1178 16.714 63.7661V64.3001C16.714 65.8384 17.9614 67.0858 19.4997 67.0858C21.038 67.0858 22.2854 65.8384 22.2854 64.3001V63.7867C25.521 62.6331 27.8569 59.5697 27.8569 55.9429Z" fill="white"/>
</g>
</g>
</svg>
