<svg width="80" height="74" viewBox="0 0 80 74" fill="none" xmlns="http://www.w3.org/2000/svg">
<g id="t">
<g id="Group">
<path id="Vector" d="M76.5625 73.791H3.4375C1.88303 73.791 0.625 72.533 0.625 70.9785V25.9785C0.625 24.424 1.88303 23.166 3.4375 23.166H76.5625C78.117 23.166 79.375 24.424 79.375 25.9785V70.9785C79.375 72.533 78.117 73.791 76.5625 73.791ZM6.25 68.166H73.75V28.791H6.25V68.166Z" fill="white"/>
<path id="Vector_2" d="M42.8125 62.541H14.6875C13.133 62.541 11.875 61.283 11.875 59.7285V48.4785C11.875 46.924 13.133 45.666 14.6875 45.666H42.8125C44.367 45.666 45.625 46.924 45.625 48.4785V59.7285C45.625 61.283 44.367 62.541 42.8125 62.541ZM17.5 56.916H40V51.291H17.5V56.916Z" fill="white"/>
<path id="Vector_3" d="M65.3125 62.541H54.0625C52.508 62.541 51.25 61.283 51.25 59.7285C51.25 58.174 52.508 56.916 54.0625 56.916H65.3125C66.867 56.916 68.125 58.174 68.125 59.7285C68.125 61.283 66.867 62.541 65.3125 62.541Z" fill="white"/>
<path id="Vector_4" d="M54.0625 40.041H14.6875C13.133 40.041 11.875 38.783 11.875 37.2285C11.875 35.674 13.133 34.416 14.6875 34.416H54.0625C55.617 34.416 56.875 35.674 56.875 37.2285C56.875 38.783 55.617 40.041 54.0625 40.041Z" fill="white"/>
<path id="Vector_5" d="M62.5 3.47852H56.875V14.7285H62.5V3.47852Z" fill="white"/>
<path id="Vector_6" d="M23.125 3.47852H17.5V14.7285H23.125V3.47852Z" fill="white"/>
<path id="Vector_7" d="M70.9375 17.541H14.6875C14.2507 17.541 13.8196 17.4395 13.4295 17.2443L2.17947 11.6193C1.22631 11.1415 0.625 10.1692 0.625 9.10352C0.625 8.03786 1.22659 7.06558 2.17947 6.58774L13.4295 0.962734C13.8196 0.767828 14.2507 0.666016 14.6875 0.666016H70.9375C75.5902 0.666016 79.375 4.4508 79.375 9.10352C79.375 13.7562 75.5902 17.541 70.9375 17.541ZM15.3521 11.916H70.9375C72.4894 11.916 73.75 10.6555 73.75 9.10352C73.75 7.55158 72.4894 6.29102 70.9375 6.29102H15.3521L9.72709 9.10352L15.3521 11.916Z" fill="white"/>
</g>
</g>
</svg>
