<svg width="67" height="81" viewBox="0 0 67 81" fill="none" xmlns="http://www.w3.org/2000/svg">
<path d="M11.5391 28.3154H55.2018V68.1649H11.5391V28.3154Z" fill="white"/>
<path fill-rule="evenodd" clip-rule="evenodd" d="M38.608 9.43802H42.8027C42.8027 9.43796 42.8027 9.4379 42.8027 9.43784H46.8052V16.7754H19.9211V9.43784H23.9266C23.9266 9.4379 23.9266 9.43796 23.9266 9.43802H28.1213C28.1213 6.5422 30.4688 4.19467 33.3646 4.19467C36.2605 4.19467 38.608 6.5422 38.608 9.43802ZM24.9078 5.24316C26.4522 2.1356 29.659 0 33.3646 0C37.0703 0 40.2771 2.1356 41.8215 5.24316H66.7335V80.7473H0V5.24316H24.9078ZM50.9998 20.9701V9.43784H62.5388V76.5526H4.19468V9.43784H15.7264V20.9701H50.9998Z" fill="white"/>
<path fill-rule="evenodd" clip-rule="evenodd" d="M41.2857 36.8008L44.8057 40.3208L30.7258 54.4006L27.2058 50.8807L27.2071 50.8794L21.9258 45.5981L25.4458 42.0781L30.7271 47.3594L41.2857 36.8008Z" fill="#517AF6"/>
</svg>
