<svg width="62" height="80" viewBox="0 0 62 80" fill="none" xmlns="http://www.w3.org/2000/svg">
<g id="Group 427319148">
<path id="Vector" d="M59.125 23.3535H42.25C40.6955 23.3535 39.4375 22.0955 39.4375 20.541V3.66602H45.0625V17.7285H59.125V23.3535Z" fill="white"/>
<path id="Vector_2" d="M59.125 79.6035H2.875C1.32053 79.6035 0.0625 78.3455 0.0625 76.791V3.66602C0.0625 2.11155 1.32053 0.853516 2.875 0.853516H42.25C42.997 0.853516 43.7111 1.15023 44.2384 1.67758L61.1134 18.5526C61.6408 19.0799 61.9375 19.794 61.9375 20.541V76.791C61.9375 78.3455 60.6795 79.6035 59.125 79.6035ZM5.6875 73.9785H56.3125V21.7057L41.0853 6.47852H5.6875V73.9785Z" fill="white"/>
<path id="Vector_3" d="M45.0631 48.6667H32.6249L26.4056 37.8945L21.5332 40.707L28.1881 52.2335V65.5417H33.8131V54.2917H45.0631V48.6667Z" fill="white"/>
<path id="Vector_4" d="M31 68.3535C21.6946 68.3535 14.125 60.784 14.125 51.4785C14.125 42.1731 21.6946 34.6035 31 34.6035C40.3054 34.6035 47.875 42.1731 47.875 51.4785C47.875 60.784 40.3054 68.3535 31 68.3535ZM31 40.2285C24.7953 40.2285 19.75 45.2739 19.75 51.4785C19.75 57.6832 24.7953 62.7285 31 62.7285C37.2047 62.7285 42.25 57.6832 42.25 51.4785C42.25 45.2739 37.2047 40.2285 31 40.2285Z" fill="white"/>
<path id="Vector_5" d="M25.375 17.7285H14.125C12.5705 17.7285 11.3125 16.4705 11.3125 14.916C11.3125 13.3615 12.5705 12.1035 14.125 12.1035H25.375C26.9295 12.1035 28.1875 13.3615 28.1875 14.916C28.1875 16.4705 26.9295 17.7285 25.375 17.7285Z" fill="white"/>
<path id="Vector_6" d="M31 28.9785H14.125C12.5705 28.9785 11.3125 27.7205 11.3125 26.166C11.3125 24.6115 12.5705 23.3535 14.125 23.3535H31C32.5545 23.3535 33.8125 24.6115 33.8125 26.166C33.8125 27.7205 32.5545 28.9785 31 28.9785Z" fill="white"/>
</g>
</svg>
