<svg width="79" height="84" viewBox="0 0 79 84" fill="none" xmlns="http://www.w3.org/2000/svg">
<g id="l">
<g id="Group">
<path id="Vector" d="M69.1875 62.5098H9.8125C8.17316 62.5098 6.84375 61.1804 6.84375 59.541V23.916C6.84375 22.2767 8.17316 20.9473 9.8125 20.9473H69.1875C70.8268 20.9473 72.1562 22.2767 72.1562 23.916V59.541C72.1562 61.1804 70.8268 62.5098 69.1875 62.5098ZM12.7812 56.5723H66.2188V26.8848H12.7812V56.5723Z" fill="white"/>
<path id="Vector_2" d="M39.5 50.6348C34.5888 50.6348 30.5938 46.6397 30.5938 41.7285C30.5938 36.8173 34.5888 32.8223 39.5 32.8223C44.4112 32.8223 48.4062 36.8173 48.4062 41.7285C48.4062 46.6397 44.4112 50.6348 39.5 50.6348ZM39.5 38.7598C37.8633 38.7598 36.5312 40.0918 36.5312 41.7285C36.5312 43.3652 37.8633 44.6973 39.5 44.6973C41.1367 44.6973 42.4688 43.3652 42.4688 41.7285C42.4688 40.0918 41.1367 38.7598 39.5 38.7598Z" fill="white"/>
<path id="Vector_3" d="M21.6875 44.6973C23.3271 44.6973 24.6562 43.3681 24.6562 41.7285C24.6562 40.0889 23.3271 38.7598 21.6875 38.7598C20.0479 38.7598 18.7188 40.0889 18.7188 41.7285C18.7188 43.3681 20.0479 44.6973 21.6875 44.6973Z" fill="white"/>
<path id="Vector_4" d="M57.3125 44.6973C58.9521 44.6973 60.2812 43.3681 60.2812 41.7285C60.2812 40.0889 58.9521 38.7598 57.3125 38.7598C55.6729 38.7598 54.3438 40.0889 54.3438 41.7285C54.3438 43.3681 55.6729 44.6973 57.3125 44.6973Z" fill="white"/>
<path id="Vector_5" d="M75.1249 15.0096H3.87492C2.67466 15.0096 1.59195 14.2861 1.13239 13.1773C0.672828 12.067 0.926656 10.7913 1.77602 9.94196L10.6823 1.03571C11.8419 -0.123883 13.7205 -0.123883 14.8804 1.03571C16.0403 2.1953 16.04 4.07393 14.8804 5.23382L11.0418 9.07241H75.1249C76.7643 9.07241 78.0937 10.4018 78.0937 12.0412C78.0937 13.6805 76.7643 15.0096 75.1249 15.0096Z" fill="white"/>
<path id="Vector_6" d="M66.2188 83.2913C65.459 83.2913 64.6996 83.0013 64.1198 82.4215C62.9602 81.2619 62.9602 79.3832 64.1198 78.2234L67.9584 74.3848H3.875C2.23566 74.3848 0.90625 73.0554 0.90625 71.416C0.90625 69.7767 2.23566 68.4473 3.875 68.4473H75.125C76.3253 68.4473 77.408 69.1707 77.8675 70.2796C78.3271 71.3899 78.0733 72.6656 77.2239 73.5149L68.3177 82.4212C67.7379 83.001 66.9782 83.2913 66.2188 83.2913Z" fill="white"/>
</g>
</g>
</svg>
