<svg width="20" height="16" viewBox="0 0 20 16" fill="none" xmlns="http://www.w3.org/2000/svg">
<mask id="mask0_695_50818" style="mask-type:alpha" maskUnits="userSpaceOnUse" x="0" y="0" width="20" height="16">
<path d="M2 0H18C19.1 0 20 0.9 20 2V14C20 15.1 19.1 16 18 16H2C0.9 16 0 15.1 0 14V2C0 0.9 0.9 0 2 0Z" fill="#2930A8"/>
</mask>
<g mask="url(#mask0_695_50818)">
<path d="M2 0H18C19.1 0 20 0.9 20 2V14C20 15.1 19.1 16 18 16H2C0.9 16 0 15.1 0 14V2C0 0.9 0.9 0 2 0Z" fill="#FF7B07"/>
<path d="M20 0L10 7L0 0" fill="#D86804"/>
</g>
</svg>
