<svg width="22" height="21" viewBox="0 0 22 21" fill="none" xmlns="http://www.w3.org/2000/svg">
<path id="Vector" d="M20.8 19.5064L14.8282 13.5345C15.985 12.1056 16.6814 10.29 16.6814 8.31251C16.6814 3.72926 12.9522 0 8.36902 0C3.78582 0 0.0566406 3.72922 0.0566406 8.31247C0.0566406 12.8957 3.78586 16.625 8.36906 16.625C10.3465 16.625 12.1621 15.9285 13.591 14.7717L19.5628 20.7436C19.7334 20.9142 19.9574 21 20.1814 21C20.4055 21 20.6294 20.9142 20.8001 20.7436C21.1422 20.4015 21.1422 19.8485 20.8 19.5064ZM8.36906 14.875C4.75009 14.875 1.80664 11.9315 1.80664 8.31247C1.80664 4.69346 4.75009 1.74997 8.36906 1.74997C11.988 1.74997 14.9315 4.69346 14.9315 8.31247C14.9315 11.9315 11.988 14.875 8.36906 14.875Z" fill="#0C163D"/>
</svg>
