<svg width="80" height="80" viewBox="0 0 80 80" fill="none" xmlns="http://www.w3.org/2000/svg">
<g id="Group 427319125">
<path id="Vector" d="M36.666 73.334C36.666 77.013 33.681 80.001 29.999 80.001C26.32 80.001 23.332 77.013 23.332 73.334C23.332 69.649 26.32 66.668 29.999 66.668C33.681 66.668 36.666 69.649 36.666 73.334Z" fill="white"/>
<path id="Vector_2" d="M70.001 73.334C70.001 77.013 67.016 80.001 63.334 80.001C59.652 80.001 56.668 77.013 56.668 73.334C56.668 69.649 59.652 66.668 63.334 66.668C67.016 66.668 70.001 69.649 70.001 73.334Z" fill="white"/>
<path id="Vector_3" d="M60 16.667V0H40V10H26.667V23.333H20V56.667C16.318 56.667 13.333 53.682 13.333 50V6.667C13.333 2.985 10.349 0 6.667 0H0V6.667H6.667V50C6.667 57.363 12.637 63.333 20 63.333H80V16.667H60ZM46.667 6.667H53.333V43.333H46.667V6.667ZM33.333 16.667H40V23.333H33.333V16.667ZM26.667 30H40V43.333H26.667V30ZM73.333 56.667H26.667V50H73.333V56.667ZM73.333 43.333H60V23.333H73.333V43.333Z" fill="white"/>
</g>
</svg>
