<svg width="80" height="83" viewBox="0 0 80 83" fill="none" xmlns="http://www.w3.org/2000/svg">
<g id="Group 427319126">
<path id="Vector" d="M65.454 14.1816V6.91701C65.454 3.11354 62.1802 0 58.182 0H7.27303C3.27488 0 0 3.11354 0 6.91701V76.083C0 79.8865 3.27488 83 7.27303 83H58.182C62.1802 83 65.454 79.8865 65.454 76.083V48.0684C73.7524 46.4644 80 39.4904 80 31.125C80 22.7596 73.7524 15.7856 65.454 14.1816ZM58.182 76.083H7.27303V6.91701H58.182V14.1816C49.8835 15.7856 43.636 22.7596 43.636 31.125C43.636 39.4904 49.8835 46.4644 58.182 48.0684V76.083ZM71.1288 32.1988L63.1042 40.1315C62.3973 40.8007 61.2398 40.8007 60.5329 40.1315L52.5083 32.1988C51.5199 31.2599 50.909 29.963 50.909 28.5312C50.909 25.6636 53.3515 23.3438 56.3635 23.3438C57.8689 23.3438 59.2326 23.9248 60.2198 24.8637L61.818 26.3836L63.4161 24.8637C64.4034 23.9248 65.767 23.3438 67.2725 23.3438C70.2845 23.3438 72.727 25.6667 72.727 28.5312C72.727 29.963 72.1161 31.2599 71.1288 32.1988Z" fill="white"/>
<path id="Vector_2" d="M36.3649 20.75H14.5469V27.667H36.3649V20.75Z" fill="white"/>
<path id="Vector_3" d="M36.3649 34.582H14.5469V41.499H36.3649V34.582Z" fill="white"/>
<path id="Vector_4" d="M43.6368 48.418H14.5469V55.3339H43.6368V48.418Z" fill="white"/>
<path id="Vector_5" d="M50.9098 62.25H14.5469V69.167H50.9098V62.25Z" fill="white"/>
</g>
</svg>
