<svg width="80" height="60" viewBox="0 0 80 60" fill="none" xmlns="http://www.w3.org/2000/svg">
<path id="Vector" d="M77.07 24.319L66.084 13.333L46.667 13.333L46.667 -2.39559e-07L0 0L2.73778e-07 53.333L10.612 53.333C11.989 57.21 15.651 60 20 60C24.349 60 28.011 57.21 29.388 53.333L50.613 53.333C51.989 57.21 55.651 60 60 60C64.349 60 68.011 57.21 69.388 53.333L80 53.333L80 31.39C80 28.63 78.88 26.13 77.07 24.319ZM46.667 20L63.323 20L69.99 26.667L46.667 26.667L46.667 20ZM20 53.333C18.157 53.333 16.667 51.843 16.667 50C16.667 48.161 18.157 46.667 20 46.667C21.843 46.667 23.333 48.161 23.333 50C23.333 51.843 21.843 53.333 20 53.333ZM40 46.667L29.388 46.667C28.008 42.793 24.349 40 20 40C15.651 40 11.992 42.793 10.612 46.667L6.667 46.667L6.667 6.667L40 6.667L40 46.667ZM60 53.333C58.157 53.333 56.667 51.843 56.667 50C56.667 48.161 58.157 46.667 60 46.667C61.843 46.667 63.333 48.161 63.333 50C63.333 51.843 61.843 53.333 60 53.333ZM73.333 46.667L69.388 46.667C68.011 42.793 64.349 40 60 40C55.651 40 51.989 42.793 50.612 46.667L46.667 46.667L46.667 33.333L73.333 33.333L73.333 46.667Z" fill="white"/>
</svg>
