<svg width="80" height="80" viewBox="0 0 80 80" fill="none" xmlns="http://www.w3.org/2000/svg">
<path id="Vector" d="M66.667 60V53.333H73.333V33.333H61.592C57.972 23.503 52.644 15.674 46.296 11.113L50 0H16.667L20.371 11.113C8.398 19.71 0 39.854 0 63.333C0 72.539 14.925 80 33.333 80H80V60H66.667ZM66.667 40V46.667H33.333V40H66.667ZM60 53.333V60H26.667V53.333H60ZM33.333 73.333C16.79 73.333 6.667 66.858 6.667 63.333C6.667 39.355 16.23 18.701 28.444 14.251L25.918 6.667H40.752L38.223 14.251C44.749 16.628 50.501 23.665 54.46 33.333H26.667V46.667H20V66.667H33.333V73.333ZM73.333 73.333H40V66.667H73.333V73.333Z" fill="white"/>
</svg>
