<svg width="22" height="26" viewBox="0 0 22 26" fill="none" xmlns="http://www.w3.org/2000/svg">
<path d="M18.7527 3.2093C18.7527 3.17829 18.7527 3.2093 18.7527 3.2093C14.4646 -1.06977 7.50418 -1.06977 3.21608 3.2093C-1.07203 7.48837 -1.07203 14.4651 3.21608 18.7442L10.1143 25.6279C10.3629 25.876 10.6736 26 10.9844 26C11.2951 26 11.6058 25.876 11.8544 25.6279L18.7527 18.7132C23.0408 14.4341 23.0408 7.48837 18.7527 3.2093Z" fill="#F67B10"/>
<path d="M11.3772 15.7581C8.56347 15.7581 6.27734 13.4623 6.27734 10.6368C6.27734 7.81134 8.56347 5.51562 11.3772 5.51562C14.1909 5.51562 16.477 7.81134 16.477 10.6368C16.477 13.4623 14.1909 15.7581 11.3772 15.7581Z" fill="#3C85EC"/>
</svg>
