<svg width="54" height="48" viewBox="0 0 54 48" fill="none" xmlns="http://www.w3.org/2000/svg">
<g id="Quote Icon">
<path id="Vector" d="M43.3807 12.6004C45.5787 14.8004 46.8975 17.2004 46.8975 21.2004C46.8975 28.2004 41.4025 34.4004 33.7096 37.6004L31.7314 35.0004C38.9847 31.4004 40.5233 26.8004 40.9629 23.8004C39.8639 24.4004 38.3254 24.6004 36.7868 24.4004C32.8304 24.0004 29.7532 21.2004 29.7532 17.4004C29.7532 15.6004 30.6324 13.8004 31.9512 12.4004C33.4898 11.0004 35.2482 10.4004 37.4462 10.4004C39.8639 10.4004 42.0619 11.4004 43.3807 12.6004ZM21.4009 12.6004C23.5989 14.8004 24.9177 17.2004 24.9177 21.2004C24.9177 28.2004 19.4227 34.4004 11.7298 37.6004L9.75162 35.0004C17.005 31.4004 18.5435 26.8004 18.9831 23.8004C17.8841 24.4004 16.3456 24.6004 14.807 24.4004C10.8506 24.0004 7.77344 21.0004 7.77344 17.4004C7.77344 15.6004 8.65263 13.8004 9.97142 12.4004C11.51 11.0004 13.2684 10.4004 15.4664 10.4004C17.8841 10.4004 20.0821 11.4004 21.4009 12.6004Z" fill="#11112B"/>
</g>
</svg>
