<svg width="24" height="24" viewBox="0 0 24 24" fill="none" xmlns="http://www.w3.org/2000/svg">
<rect width="24" height="24" fill="#F5F5F5"/>
<g id="Homepage_V.2" clip-path="url(#clip0_435_2)">
<rect width="1920" height="9587" transform="translate(-1315 -34)" fill="white"/>
<g id="Group 427319408">
<g id="Group 427319049">
<rect id="Rectangle 6590" x="-1315" y="-34" width="1351" height="89" fill="white"/>
<rect id="Rectangle 6617" x="-33" y="-34" width="90" height="89" fill="#F3F8FF"/>
<path id="Vector" d="M23.5473 22.2928L16.7683 15.4678C18.0814 13.8349 18.872 11.7599 18.872 9.49992C18.872 4.26197 14.6387 0 9.43599 0C4.23326 0 0 4.26193 0 9.49988C0 14.7378 4.23331 18.9998 9.43603 18.9998C11.6808 18.9998 13.7418 18.2038 15.3638 16.8818L22.1429 23.7068C22.3365 23.9018 22.5908 23.9998 22.8451 23.9998C23.0994 23.9998 23.3537 23.9018 23.5474 23.7068C23.9357 23.3158 23.9357 22.6838 23.5473 22.2928ZM9.43603 16.9998C5.32787 16.9998 1.98655 13.6359 1.98655 9.49988C1.98655 5.3639 5.32787 1.99995 9.43603 1.99995C13.5442 1.99995 16.8855 5.3639 16.8855 9.49988C16.8855 13.6359 13.5441 16.9998 9.43603 16.9998Z" fill="#0C163D"/>
</g>
</g>
</g>
<defs>
<clipPath id="clip0_435_2">
<rect width="1920" height="9587" fill="white" transform="translate(-1315 -34)"/>
</clipPath>
</defs>
</svg>
