<svg width="67" height="70" viewBox="0 0 67 70" fill="none" xmlns="http://www.w3.org/2000/svg">
<g id="Group">
<path id="Vector" d="M16.5 9.75H9.75C7.95979 9.75 6.2429 10.4612 4.97703 11.727C3.71116 12.9929 3 14.7098 3 16.5V57C3 58.7902 3.71116 60.5071 4.97703 61.773C6.2429 63.0388 7.95979 63.75 9.75 63.75H28.9774M50.25 40.125V53.625H63.75M50.25 30V16.5C50.25 14.7098 49.5388 12.9929 48.273 11.727C47.0071 10.4612 45.2902 9.75 43.5 9.75H36.75" stroke="white" stroke-width="5" stroke-linecap="round" stroke-linejoin="round"/>
<path id="Vector_2" d="M16.5 30H30M16.5 43.5H26.625M16.5 9.75C16.5 7.95979 17.2112 6.2429 18.477 4.97703C19.7429 3.71116 21.4598 3 23.25 3H30C31.7902 3 33.5071 3.71116 34.773 4.97703C36.0388 6.2429 36.75 7.95979 36.75 9.75C36.75 11.5402 36.0388 13.2571 34.773 14.523C33.5071 15.7888 31.7902 16.5 30 16.5H23.25C21.4598 16.5 19.7429 15.7888 18.477 14.523C17.2112 13.2571 16.5 11.5402 16.5 9.75ZM36.75 53.625C36.75 57.2054 38.1723 60.6392 40.7041 63.1709C43.2358 65.7027 46.6696 67.125 50.25 67.125C53.8304 67.125 57.2642 65.7027 59.7959 63.1709C62.3277 60.6392 63.75 57.2054 63.75 53.625C63.75 50.0446 62.3277 46.6108 59.7959 44.0791C57.2642 41.5473 53.8304 40.125 50.25 40.125C46.6696 40.125 43.2358 41.5473 40.7041 44.0791C38.1723 46.6108 36.75 50.0446 36.75 53.625Z" stroke="white" stroke-width="5" stroke-linecap="round" stroke-linejoin="round"/>
</g>
</svg>
