<svg width="66" height="66" viewBox="0 0 66 66" fill="none" xmlns="http://www.w3.org/2000/svg">
<g id="tdesign:notification-error">
<path id="Vector" d="M11 22C11 16.1652 13.3179 10.5695 17.4437 6.44365C21.5695 2.31785 27.1652 0 33 0C38.8348 0 44.4305 2.31785 48.5564 6.44365C52.6822 10.5695 55 16.1652 55 22V34.9167L60.5 43.1667V55H45.0697C44.4442 57.7327 42.9098 60.1722 40.7175 61.9194C38.5252 63.6666 35.8048 64.6181 33.0014 64.6181C30.198 64.6181 27.4776 63.6666 25.2853 61.9194C23.093 60.1722 21.5585 57.7327 20.933 55H5.5V43.1667L11 34.9167V22ZM55 49.5V44.8332L49.5 36.5833V22C49.5 17.6239 47.7616 13.4271 44.6673 10.3327C41.5729 7.23839 37.3761 5.5 33 5.5C28.6239 5.5 24.4271 7.23839 21.3327 10.3327C18.2384 13.4271 16.5 17.6239 16.5 22V36.5833L11 44.8332V49.5H55ZM39.303 55H26.697C27.2315 56.2272 28.1127 57.2716 29.2324 58.0052C30.352 58.7387 31.6614 59.1295 33 59.1295C34.3386 59.1295 35.648 58.7387 36.7676 58.0052C37.8873 57.2716 38.7685 56.2272 39.303 55ZM35.75 16.5V33H30.25V16.5H35.75ZM30.25 37.125H35.761V42.636H30.25V37.125Z" fill="white"/>
</g>
</svg>
