<svg width="249" height="62" viewBox="0 0 249 62" fill="none" xmlns="http://www.w3.org/2000/svg">
<circle cx="58.6548" cy="3.34438" r="2.34622" fill="#F69951"/>
<circle cx="77.4243" cy="3.34427" r="2.34622" fill="#F69951"/>
<circle cx="96.1939" cy="3.34427" r="2.34622" fill="#F69951"/>
<circle cx="114.96" cy="3.34427" r="2.34622" fill="#F69951"/>
<circle cx="133.737" cy="3.34427" r="2.34622" fill="#F69951"/>
<circle cx="152.502" cy="3.34427" r="2.34622" fill="#F69951"/>
<circle cx="171.276" cy="3.34427" r="2.34622" fill="#F69951"/>
<circle cx="190.042" cy="3.34427" r="2.34622" fill="#F69951"/>
<circle cx="58.6548" cy="22.1138" r="2.34622" fill="#F69951"/>
<circle cx="39.8853" cy="22.1138" r="2.34622" fill="#F69951"/>
<circle cx="77.4243" cy="22.1138" r="2.34622" fill="#F69951"/>
<circle cx="96.19" cy="22.1138" r="2.34622" fill="#F69951"/>
<circle cx="114.963" cy="22.1138" r="2.34622" fill="#F69951"/>
<circle cx="133.733" cy="22.1138" r="2.34622" fill="#F69951"/>
<circle cx="152.506" cy="22.1138" r="2.34622" fill="#F69951"/>
<circle cx="171.272" cy="22.1138" r="2.34622" fill="#F69951"/>
<circle cx="190.049" cy="22.1138" r="2.34622" fill="#F69951"/>
<circle cx="208.815" cy="22.1138" r="2.34622" fill="#F69951"/>
<circle cx="58.6548" cy="40.8853" r="2.34622" fill="#F69951"/>
<circle cx="39.8853" cy="40.8853" r="2.34622" fill="#F69951"/>
<circle cx="21.1158" cy="40.8853" r="2.34622" fill="#F69951"/>
<circle cx="77.4204" cy="40.8853" r="2.34622" fill="#F69951"/>
<circle cx="96.1978" cy="40.8853" r="2.34622" fill="#F69951"/>
<circle cx="114.963" cy="40.8853" r="2.34622" fill="#F69951"/>
<circle cx="133.737" cy="40.8853" r="2.34622" fill="#F69951"/>
<circle cx="152.502" cy="40.8853" r="2.34622" fill="#F69951"/>
<circle cx="171.28" cy="40.8853" r="2.34622" fill="#F69951"/>
<circle cx="190.045" cy="40.8853" r="2.34622" fill="#F69951"/>
<circle cx="208.815" cy="40.8853" r="2.34622" fill="#F69951"/>
<circle cx="227.585" cy="40.8853" r="2.34622" fill="#F69951"/>
<circle cx="58.6509" cy="59.6509" r="2.34622" fill="#F69951"/>
<circle cx="39.8853" cy="59.6509" r="2.34622" fill="#F69951"/>
<circle cx="21.1158" cy="59.6509" r="2.34622" fill="#F69951"/>
<circle cx="2.34622" cy="59.6509" r="2.34622" fill="#F69951"/>
<circle cx="77.4283" cy="59.6509" r="2.34622" fill="#F69951"/>
<circle cx="96.1939" cy="59.6509" r="2.34622" fill="#F69951"/>
<circle cx="114.967" cy="59.6509" r="2.34622" fill="#F69951"/>
<circle cx="133.733" cy="59.6509" r="2.34622" fill="#F69951"/>
<circle cx="152.51" cy="59.6509" r="2.34622" fill="#F69951"/>
<circle cx="171.276" cy="59.6509" r="2.34622" fill="#F69951"/>
<circle cx="190.045" cy="59.6509" r="2.34622" fill="#F69951"/>
<circle cx="208.815" cy="59.6509" r="2.34622" fill="#F69951"/>
<circle cx="227.585" cy="59.6509" r="2.34622" fill="#F69951"/>
<circle cx="246.354" cy="59.6509" r="2.34622" fill="#F69951"/>
</svg>
