<svg width="81" height="78" viewBox="0 0 81 78" fill="none" xmlns="http://www.w3.org/2000/svg">
<path d="M20.2423 18.9767C25.4925 18.9767 29.7306 14.7386 29.7306 9.48835C29.7306 4.23813 25.4925 0 20.2423 0C14.992 0 10.7539 4.23813 10.7539 9.48835C10.7539 14.7386 14.992 18.9767 20.2423 18.9767ZM20.2423 2.53023C24.1008 2.53023 27.2004 5.62975 27.2004 9.48835C27.2004 13.3469 24.1008 16.4465 20.2423 16.4465C16.3837 16.4465 13.2841 13.3469 13.2841 9.48835C13.2841 5.62975 16.3837 2.53023 20.2423 2.53023Z" fill="#517AF6"/>
<path d="M28.5284 21.6971C26.6308 20.7482 24.4801 20.2422 22.3294 20.2422H18.1545C16.0038 20.2422 13.8531 20.7482 11.9555 21.6971C9.29872 23.0254 7.59082 25.7454 7.59082 28.7184V31.7547C7.59082 34.4747 9.48849 36.8152 12.1452 37.3212L13.0941 37.511C14.4224 37.764 15.7508 37.8905 17.0792 37.8905H23.4047C24.7331 37.8905 26.0615 37.764 27.3898 37.511L28.3387 37.3212C30.9954 36.8152 32.8931 34.4114 32.8931 31.7547V28.7184C32.8931 25.7454 31.2484 23.0254 28.5284 21.6971ZM30.3629 31.818C30.3629 33.3361 29.2875 34.6012 27.8326 34.9175L26.8838 35.1073C25.7452 35.3603 24.5433 35.4235 23.4047 35.4235H17.0792C15.9406 35.4235 14.7387 35.297 13.6001 35.1073L12.6513 34.9175C11.1964 34.6012 10.121 33.3361 10.121 31.818V28.7817C10.121 26.7575 11.2596 24.9231 13.0941 23.9743C14.6755 23.2152 16.4466 22.7724 18.1545 22.7724H22.3294C24.1005 22.7724 25.8717 23.2152 27.4531 23.9743C29.2875 24.8598 30.4261 26.6943 30.4261 28.7817L30.3629 31.818Z" fill="#517AF6"/>
<path d="M40.4839 21.5068H72.1117C72.8075 21.5068 73.3768 20.9375 73.3768 20.2417C73.3768 19.5459 72.8075 18.9766 72.1117 18.9766H40.4839C39.7881 18.9766 39.2188 19.5459 39.2188 20.2417C39.2188 20.9375 39.7881 21.5068 40.4839 21.5068Z" fill="#517AF6"/>
<path d="M40.4839 31.6279H72.1117C72.8075 31.6279 73.3768 31.0586 73.3768 30.3628C73.3768 29.667 72.8075 29.0977 72.1117 29.0977H40.4839C39.7881 29.0977 39.2188 29.667 39.2188 30.3628C39.2188 31.0586 39.7881 31.6279 40.4839 31.6279Z" fill="#517AF6"/>
<path d="M37.1942 48.4536C36.8779 47.5048 36.0556 46.809 35.0435 46.6825L30.3626 45.9866L28.4649 42.128C27.9588 41.116 26.9468 40.4834 25.9347 40.4834C24.9226 40.4834 23.8472 41.116 23.4044 42.128L21.5068 45.9866L16.8259 46.6825C15.8138 46.809 14.9914 47.5048 14.6752 48.4536C14.3589 49.4024 14.6119 50.4778 15.371 51.1736L18.7235 54.4629L18.0277 58.6378C17.8379 59.7131 18.2807 60.7885 19.1663 61.4843C20.0519 62.1168 21.2537 62.2433 22.2026 61.674L25.9347 59.7131L29.6667 61.674C30.1095 61.9271 30.5523 61.9903 30.9951 61.9903C31.5644 61.9903 32.197 61.8006 32.703 61.421C33.5886 60.7885 34.0314 59.7131 33.8416 58.5745L33.1458 54.3996L36.4984 51.1103C37.2574 50.4778 37.5104 49.4024 37.1942 48.4536ZM34.7272 49.3392L30.8686 53.0713C30.5523 53.3875 30.4258 53.7671 30.4891 54.2099L31.3114 59.0173C31.3114 59.2071 31.2481 59.3336 31.1849 59.3336C31.1216 59.3968 30.9951 59.4601 30.8053 59.3336L26.504 57.0564C26.3142 56.9299 26.1244 56.9299 25.9347 56.9299C25.7449 56.9299 25.5551 56.9931 25.3654 57.0564L21.064 59.3336C20.8742 59.3968 20.7477 59.3968 20.6844 59.3336C20.6212 59.2703 20.4947 59.1438 20.5579 59.0173L21.3803 54.2099C21.4435 53.8303 21.317 53.3875 21.0007 53.0713L17.1421 49.3392C17.1421 49.3392 17.0789 49.2759 17.1421 49.2127C17.1421 49.1494 17.2054 49.1494 17.2054 49.1494L22.5189 48.3904C22.9616 48.3271 23.2779 48.0741 23.4677 47.6945L25.6816 43.2666C25.8082 42.9504 26.1244 42.9504 26.2509 43.2666L28.4649 47.6945C28.6547 48.0741 29.0342 48.3271 29.4137 48.3904L34.7272 49.1494C34.7272 49.1494 34.7905 49.1494 34.7905 49.2127C34.7905 49.2759 34.7905 49.3392 34.7272 49.3392Z" fill="#517AF6"/>
<path d="M66.2923 48.4536C65.976 47.5048 65.1537 46.809 64.1416 46.6825L59.4607 45.9866L57.563 42.128C57.057 41.116 56.0449 40.4834 55.0328 40.4834C54.0207 40.4834 52.9454 41.116 52.5026 42.128L50.6049 45.9866L45.924 46.6825C44.9119 46.809 44.0896 47.5048 43.7733 48.4536C43.457 49.4024 43.7101 50.4778 44.4691 51.1736L47.8217 54.4629L47.1259 58.6378C46.9361 59.7131 47.3789 60.7885 48.2645 61.4843C49.15 62.1168 50.3519 62.2433 51.3007 61.674L55.0328 59.7131L58.7649 61.674C59.2077 61.9271 59.6505 61.9903 60.0933 61.9903C60.6626 61.9903 61.2951 61.8006 61.8012 61.421C62.6867 60.7885 63.1295 59.7131 62.9398 58.5745L62.2439 54.3996L65.5965 51.1103C66.3556 50.4778 66.6086 49.4024 66.2923 48.4536ZM63.8253 49.3392L59.9668 53.0713C59.6505 53.3875 59.524 53.7671 59.5872 54.2099L60.4095 59.0173C60.4095 59.2071 60.3463 59.3336 60.283 59.3336C60.2198 59.3968 60.0933 59.4601 59.9035 59.3336L55.6021 57.0564C55.4123 56.9299 55.2226 56.9299 55.0328 56.9299C54.843 56.9299 54.6533 56.9931 54.4635 57.0564L50.1621 59.3336C49.9724 59.3968 49.8458 59.3968 49.7826 59.3336C49.7193 59.2703 49.5928 59.1438 49.6561 59.0173L50.4784 54.2099C50.5417 53.8303 50.4151 53.3875 50.0989 53.0713L46.2403 49.3392C46.2403 49.3392 46.177 49.2759 46.2403 49.2127C46.2403 49.1494 46.3035 49.1494 46.3035 49.1494L51.617 48.3904C52.0598 48.3271 52.3761 48.0741 52.5658 47.6945L54.7798 43.2666C54.9063 42.9504 55.2226 42.9504 55.3491 43.2666L57.563 47.6945C57.7528 48.0741 58.1323 48.3271 58.5119 48.3904L63.8253 49.1494C63.8253 49.1494 63.8886 49.1494 63.8886 49.2127C63.8886 49.2759 63.8886 49.3392 63.8253 49.3392Z" fill="#517AF6"/>
<path d="M73.3765 6.3252H32.1339C31.4381 6.3252 30.8688 6.8945 30.8688 7.59031C30.8688 8.28612 31.4381 8.85542 32.1339 8.85542H73.3765C76.1598 8.85542 78.437 11.1326 78.437 13.9159V60.725C78.437 63.5083 76.1598 65.7855 73.3765 65.7855H43.3301C38.7757 65.7855 34.3478 66.7343 30.1729 68.5687L18.3441 73.6925C16.8893 74.325 15.3711 74.6413 13.7897 74.6413H11.9553C11.3228 74.6413 10.9432 74.1985 10.88 74.0087C10.7535 73.819 10.5637 73.3129 10.88 72.7436L12.7144 69.5808C13.1572 68.7585 13.1572 67.8729 12.7144 67.0506C12.2716 66.2915 11.4493 65.7855 10.5004 65.7855H7.59068C4.80743 65.7855 2.53023 63.5083 2.53023 60.725V13.9159C2.53023 11.1326 4.80743 8.85542 7.59068 8.85542H8.34974C9.04556 8.85542 9.61486 8.28612 9.61486 7.59031C9.61486 6.8945 9.04556 6.3252 8.34974 6.3252H7.59068C3.4158 6.3252 0 9.741 0 13.9159V60.725C0 64.8999 3.4158 68.3157 7.59068 68.3157H10.5004L8.66602 71.4785C7.97021 72.6804 7.97021 74.072 8.66602 75.2738C9.36183 76.4757 10.5637 77.1715 11.9553 77.1715H13.7897C15.7507 77.1715 17.5851 76.792 19.3562 76.0329L31.1218 70.9092C34.9804 69.2013 39.092 68.379 43.2669 68.379H73.3765C77.5514 68.379 80.9672 64.9632 80.9672 60.7883V13.9159C80.9672 9.741 77.5514 6.3252 73.3765 6.3252Z" fill="#517AF6"/>
</svg>
