<svg width="67" height="83" viewBox="0 0 67 83" fill="none" xmlns="http://www.w3.org/2000/svg">
<path d="M40.2317 70.4265H31.9997C31.3007 70.4265 30.7441 69.8699 30.7441 69.1709C30.7441 68.472 31.3007 67.9154 31.9997 67.9154H40.2317C40.5682 67.9154 40.8659 67.8507 41.1377 67.7213C41.8626 67.3847 42.3803 66.6987 42.4839 65.9092C42.4968 65.8445 42.5098 65.7797 42.5227 65.728C42.5356 65.5985 42.5356 65.4691 42.5227 65.3397C42.4062 64.11 41.4872 63.2169 40.3352 63.1781L31.689 62.9063C30.9383 62.8934 30.1617 62.7121 29.3851 62.3886C29.3462 62.3627 29.2945 62.3497 29.2556 62.3238L21.1789 57.703C20.8036 57.483 20.3764 57.3665 19.9622 57.3665H11.4972C10.7983 57.3665 10.2417 56.8099 10.2417 56.111C10.2417 55.412 10.7983 54.8555 11.4972 54.8555H19.9622C20.8165 54.8555 21.6708 55.0885 22.4344 55.5285L30.4335 60.1105C30.8865 60.2917 31.3266 60.3953 31.7408 60.4082L40.4 60.68C42.7816 60.7706 44.749 62.6604 44.9949 65.0808C45.0467 65.4562 45.0337 65.8962 44.9561 66.3104C44.9431 66.3493 44.9431 66.3881 44.9302 66.4399C44.6584 67.9931 43.6229 69.3521 42.1991 70.0123C41.6037 70.2711 40.9436 70.4265 40.2317 70.4265Z" fill="#517AF6"/>
<path d="M34.1483 82.8395C33.6564 82.8395 33.1646 82.8006 32.6727 82.723C32.608 82.71 32.5433 82.6971 32.4656 82.6712L15.0826 76.7431C14.8366 76.6525 14.5648 76.6137 14.293 76.6137H11.4972C10.7983 76.6137 10.2417 76.0571 10.2417 75.3582C10.2417 74.6592 10.7983 74.1026 11.4972 74.1026H14.293C14.8496 74.1026 15.3932 74.1932 15.898 74.3744L33.1905 80.2508C34.433 80.4449 35.6756 80.2637 36.7887 79.746L62.1838 68.0451C62.6368 67.838 62.9992 67.4238 63.1934 66.8672C63.4264 66.1812 63.3228 65.3917 62.9086 64.7316C62.4427 63.9808 61.5496 63.6055 60.6953 63.7867L44.0759 67.2685C43.6617 67.372 43.2087 67.2814 42.8851 66.9708C42.3803 66.4919 42.3544 65.7023 42.8333 65.1975C43.0145 65.0163 43.2475 64.874 43.4935 64.8222L60.1776 61.3404C62.0544 60.9391 64.0088 61.7805 65.0314 63.4113C65.8468 64.7057 66.041 66.2589 65.562 67.6956C65.1349 68.9123 64.3065 69.8313 63.2322 70.3361L37.8372 82.037C36.6722 82.5677 35.4167 82.8395 34.1483 82.8395Z" fill="#517AF6"/>
<path d="M11.4973 78.8408H3.22647C2.5793 78.8408 2.03567 78.336 1.97096 77.6888L0.00354973 54.2741C-0.0223372 53.9246 0.094154 53.5752 0.327136 53.3163C0.560119 53.0574 0.896649 52.915 1.24612 52.915H11.4973C12.1963 52.915 12.7529 53.4716 12.7529 54.1706V77.5853C12.7529 78.2713 12.1963 78.8408 11.4973 78.8408ZM4.37844 76.3298H10.2418V55.4131H2.60519L4.37844 76.3298Z" fill="#517AF6"/>
<path d="M41.7596 28.918C41.6561 28.685 41.5266 28.4909 41.3713 28.3356C41.216 28.1802 41.0218 28.0379 40.8147 27.9343C40.6206 27.8308 40.4135 27.7402 40.2064 27.6496C39.9993 27.5719 39.8051 27.4942 39.598 27.4166C39.4039 27.3519 39.2356 27.2742 39.0803 27.1836C38.9379 27.1059 38.8214 27.0024 38.7308 26.8988C38.6532 26.7953 38.6143 26.6658 38.6143 26.5105C38.6143 26.407 38.6273 26.3164 38.6661 26.2387C38.7049 26.1611 38.7567 26.0963 38.8214 26.0316C38.8991 25.9669 39.0026 25.9281 39.1191 25.8892C39.2486 25.8504 39.4039 25.8375 39.598 25.8375C39.8051 25.8375 39.9863 25.8634 40.1676 25.9022C40.3358 25.954 40.4911 26.0057 40.6335 26.0575C40.763 26.1093 40.8794 26.1611 40.97 26.2128C41.0865 26.2646 41.1642 26.3034 41.2289 26.3034C41.2807 26.3034 41.3195 26.2905 41.3584 26.2646L41.436 26.174L41.449 26.1481C41.4619 26.0963 41.4748 26.0316 41.4878 25.954C41.4878 25.8763 41.5007 25.7728 41.5007 25.6563C41.5007 25.5657 41.5007 25.488 41.5007 25.4233C41.5007 25.3586 41.4878 25.2938 41.4748 25.2421C41.4619 25.1774 41.449 25.1385 41.4231 25.0997C41.3972 25.0609 41.3713 25.022 41.3325 24.9832C41.2936 24.9444 41.2289 24.9055 41.1383 24.8538C41.0477 24.8149 40.9571 24.7761 40.8536 24.7373C40.75 24.6984 40.6335 24.6726 40.517 24.6467C40.4264 24.6337 40.3488 24.6078 40.2711 24.5949L40.3746 23.6112C40.3746 23.5594 40.3617 23.5076 40.3488 23.4688C40.3358 23.4041 40.284 23.3653 40.2193 23.3264C40.1676 23.3006 40.1028 23.2876 40.0122 23.2747C39.9346 23.2617 39.831 23.2617 39.7016 23.2617C39.598 23.2617 39.5204 23.2617 39.4557 23.2747C39.3909 23.2876 39.3262 23.3006 39.2745 23.3135C39.2227 23.3394 39.1839 23.3653 39.158 23.4041L39.1191 23.4947L39.0156 24.569C38.7179 24.6078 38.4331 24.6855 38.1872 24.789C37.9154 24.9055 37.6953 25.0479 37.5012 25.2291C37.32 25.4103 37.1776 25.6304 37.0741 25.8634C36.9705 26.1093 36.9317 26.3811 36.9317 26.6659C36.9317 26.9894 36.9835 27.2742 37.0741 27.5072C37.1647 27.7402 37.307 27.9343 37.4624 28.1026C37.6177 28.2579 37.8118 28.4003 38.006 28.5038C38.2001 28.6074 38.4072 28.7109 38.6143 28.7886C38.8214 28.8662 39.0156 28.9439 39.2097 29.0086C39.4039 29.0733 39.5722 29.151 39.7145 29.2416C39.8569 29.3193 39.9734 29.4228 40.0511 29.5264C40.1287 29.6299 40.1676 29.7464 40.1676 29.9147C40.1676 30.1606 40.0769 30.3418 39.8828 30.4842C39.6886 30.6395 39.378 30.7042 38.9638 30.7042C38.692 30.7042 38.459 30.6783 38.2519 30.6265C38.0448 30.5748 37.8766 30.5101 37.7342 30.4453C37.5918 30.3806 37.4753 30.3159 37.3847 30.2641C37.2682 30.1994 37.1906 30.1606 37.1129 30.1606C37.0611 30.1606 37.0093 30.1735 36.9576 30.1994C36.9058 30.2253 36.8799 30.2771 36.8411 30.3418C36.8152 30.3936 36.8023 30.4712 36.7893 30.5618C36.7764 30.6524 36.7764 30.756 36.7764 30.8854C36.7764 31.0537 36.7893 31.1831 36.8023 31.2867C36.8281 31.3902 36.867 31.4679 36.9187 31.5326C36.9705 31.5844 37.0352 31.6361 37.1388 31.6879C37.2294 31.7397 37.3329 31.7785 37.4494 31.8303C37.5659 31.8691 37.7083 31.9209 37.8507 31.9468C37.9672 31.9727 38.0966 31.9986 38.226 32.0244L38.1225 33.0729C38.1095 33.1376 38.1225 33.1894 38.1354 33.2411C38.1613 33.2929 38.2001 33.3447 38.2649 33.3706C38.3166 33.3965 38.3814 33.4094 38.472 33.4223C38.5496 33.4353 38.6532 33.4353 38.7826 33.4353C38.8862 33.4353 38.9638 33.4353 39.0285 33.4223C39.0932 33.4094 39.158 33.3965 39.1968 33.3835C39.2486 33.3576 39.3003 33.3317 39.3133 33.2929L39.3521 33.1894L39.4686 32.0374C39.8051 31.9986 40.1158 31.9338 40.4005 31.8303C40.7112 31.7138 40.97 31.5585 41.1901 31.3643C41.4101 31.1702 41.5784 30.9372 41.7078 30.6654C41.8243 30.3936 41.889 30.0829 41.889 29.7464C41.902 29.4228 41.8502 29.151 41.7596 28.918Z" fill="#517AF6"/>
<path d="M54.3922 40.9409H24.3116C22.8749 40.9409 21.71 39.7889 21.71 38.3781V18.3157C21.71 16.9049 22.8749 15.7529 24.3116 15.7529H54.3922C55.8289 15.7529 56.9938 16.9049 56.9938 18.3157V38.391C57.0068 39.7889 55.8289 40.9409 54.3922 40.9409ZM24.3116 18.264L24.208 38.391L24.3116 38.4428H54.3922L54.4957 18.3157L24.3116 18.264Z" fill="#517AF6"/>
<path d="M48.918 36.6944H29.8005C29.2698 36.6944 28.8038 36.3708 28.6226 35.866C28.3508 35.1023 27.7036 34.494 26.927 34.2222C26.4222 34.0539 26.0728 33.575 26.0728 33.0314V23.6474C26.0728 23.1038 26.4222 22.6378 26.927 22.4566C27.7166 22.1848 28.3508 21.5764 28.6226 20.8128C28.8038 20.3209 29.2698 19.9844 29.8005 19.9844H48.918C49.4486 19.9844 49.9146 20.308 50.0958 20.8128C50.3676 21.5764 51.0019 22.1848 51.7914 22.4566C52.2962 22.6248 52.6457 23.1038 52.6457 23.6474V33.0314C52.6457 33.575 52.2962 34.041 51.7914 34.2222C51.0019 34.494 50.3676 35.1023 50.0958 35.866C49.9146 36.3579 49.4357 36.6944 48.918 36.6944ZM30.59 34.1834H48.1284C48.6073 33.3679 49.3063 32.6949 50.1346 32.2289V24.4628C49.3063 23.9968 48.6073 23.3238 48.1284 22.5083H30.59C30.1111 23.3238 29.4122 23.9968 28.5838 24.4628V32.2289C29.4122 32.6819 30.1111 33.3679 30.59 34.1834Z" fill="#517AF6"/>
<path d="M26.3696 53.445C26.1754 53.445 25.9813 53.4061 25.8001 53.3026C11.9894 46.1578 6.56607 29.1113 13.7109 15.2877C17.1668 8.59589 23.0302 3.63854 30.2138 1.34755C37.3974 -0.943445 45.034 -0.296272 51.7258 3.15963C65.5624 10.3174 70.9986 27.3768 63.8538 41.2005C61.6405 45.4847 58.3917 49.1089 54.4569 51.6588C53.8744 52.0341 53.0978 51.8659 52.7225 51.2964C52.3471 50.7139 52.5154 49.9373 53.0849 49.5619C56.6573 47.2321 59.6084 43.9445 61.6276 40.0485C68.1381 27.4545 63.1808 11.8965 50.5868 5.38591C44.4645 2.24065 37.5009 1.65819 30.9645 3.74209C24.4281 5.82598 19.0824 10.3303 15.9242 16.4396C9.41364 29.0336 14.358 44.5658 26.9391 51.0763C27.5604 51.3999 27.7934 52.1506 27.4827 52.7719C27.2627 53.1991 26.8226 53.445 26.3696 53.445Z" fill="#517AF6"/>
<path d="M57.5762 52.8098C57.4986 52.8098 57.408 52.7968 57.3303 52.7839L53.4732 52.0073C53.1366 51.9425 52.8389 51.7355 52.6577 51.4378C52.4765 51.1401 52.4247 50.7776 52.5153 50.4411L53.5767 46.6487C53.7579 45.9756 54.4569 45.5873 55.117 45.7815C55.79 45.9627 56.1783 46.6616 55.9842 47.3217L55.2852 49.8198L57.8222 50.3246C58.4952 50.467 58.9353 51.1271 58.8059 51.8002C58.6894 52.3956 58.1587 52.8098 57.5762 52.8098Z" fill="#517AF6"/>
</svg>
