<svg width="78" height="74" viewBox="0 0 78 74" fill="none" xmlns="http://www.w3.org/2000/svg">
<mask id="path-1-inside-1_1087_1336" fill="white">
<path d="M69.9817 32.944V2.6568C69.9817 1.37961 68.9469 0.344727 67.6697 0.344727H26.9772C25.7 0.344727 24.6652 1.37961 24.6652 2.6568V8.66818H18.6538C17.3766 8.66818 16.3417 9.70306 16.3417 10.9803V16.9916H10.3303C9.05314 16.9916 8.01826 18.0265 8.01826 19.3037V32.944C5.86896 32.9532 3.85746 33.7921 2.36756 35.2949C0.841594 36.8079 0 38.8333 0 40.9965C0 45.4255 3.59388 49.0295 8.01826 49.0499V71.5528C8.01826 72.83 9.05314 73.8649 10.3303 73.8649H51.0228C52.3 73.8649 53.3348 72.83 53.3348 71.5528V65.5414H59.3462C60.6234 65.5414 61.6583 64.5065 61.6583 63.2293V57.218H67.6697C68.9469 57.218 69.9817 56.1831 69.9817 54.9059V49.0499C72.132 49.0406 74.1425 48.2018 75.6324 46.699C77.1584 45.185 78 43.1606 78 40.9965C78 36.5675 74.4061 32.9643 69.9817 32.944ZM29.2893 4.96887H65.3576V35.2542V44.4276H61.6583V10.9803C61.6583 9.70306 60.6234 8.66818 59.3462 8.66818H29.2893V4.96887ZM20.9659 13.2923H26.9772H57.0341V44.4285H53.3348V31.7889C53.3348 31.6381 53.3191 31.4892 53.2904 31.3431C53.2904 31.3413 53.2904 31.3394 53.2895 31.3366C53.2507 31.1406 53.1776 30.9547 53.0898 30.7753C53.0676 30.73 53.0444 30.6874 53.0195 30.6439C52.9187 30.4682 52.8031 30.2999 52.6569 30.1538L40.1718 17.6686C40.0266 17.5225 39.8582 17.4078 39.6825 17.307C39.6381 17.2811 39.5937 17.258 39.5484 17.2349C39.3699 17.1479 39.185 17.0749 38.9898 17.036C38.9852 17.0351 38.9806 17.036 38.976 17.0351C38.8317 17.0074 38.6856 16.9916 38.5367 16.9916H20.9649L20.9659 13.2923ZM40.8497 24.885L45.4405 29.4759H40.8497V24.885ZM12.6424 21.6158H18.6538H36.2255V31.7889C36.2255 33.0661 37.2604 34.101 38.5376 34.101H48.7107V44.4285H39.874C39.8601 44.373 39.836 44.3212 39.8212 44.2657C39.7399 43.9642 39.6446 43.6683 39.5346 43.3779C39.5096 43.3113 39.4892 43.2429 39.4624 43.1763C39.3209 42.8286 39.1572 42.4901 38.975 42.1608C38.9279 42.0757 38.8742 41.9934 38.8243 41.9102C38.6745 41.6586 38.5135 41.4145 38.3406 41.1768C38.2749 41.0871 38.2102 40.9965 38.1418 40.9086C37.905 40.6071 37.6562 40.314 37.3806 40.0384C35.5902 38.247 33.2097 37.2611 30.6775 37.2611C28.1453 37.2611 25.7648 38.247 23.9743 40.0374C23.6987 40.313 23.449 40.6071 23.2113 40.9095C23.1438 40.9965 23.08 41.0853 23.0153 41.1731C22.8405 41.4126 22.6777 41.6596 22.527 41.9121C22.4779 41.9944 22.4252 42.0748 22.379 42.1581C22.1959 42.4882 22.0313 42.8267 21.8898 43.1763C21.8629 43.241 21.8444 43.3085 21.8195 43.3742C21.7085 43.6655 21.6132 43.9633 21.5318 44.2648C21.517 44.3203 21.493 44.3721 21.4791 44.4276H12.6424V35.2542V21.6158ZM35.5319 46.7397C35.5319 48.0363 35.0269 49.2561 34.1095 50.1735C33.193 51.09 31.9741 51.595 30.6765 51.595C27.9992 51.595 25.8212 49.417 25.8212 46.7397C25.8212 45.443 26.3262 44.2232 27.2436 43.3067C28.1601 42.3893 29.3799 41.8843 30.6765 41.8843C31.9732 41.8843 33.193 42.3893 34.1095 43.3076C35.0269 44.2241 35.5319 45.443 35.5319 46.7397ZM4.62414 40.9965C4.62414 40.0763 4.97835 39.2171 5.63683 38.5642C6.26664 37.9288 7.111 37.5755 8.01826 37.5654V44.4267C6.14363 44.4082 4.62414 42.8757 4.62414 40.9965ZM48.7107 69.2407H12.6424V49.0517H21.4819C21.5078 49.1562 21.5439 49.257 21.5735 49.3597C21.6031 49.4624 21.6317 49.5641 21.6641 49.6649C21.7261 49.8563 21.7973 50.0441 21.8713 50.23C21.9036 50.3123 21.9332 50.3955 21.9674 50.4769C22.0803 50.7395 22.2033 50.9976 22.3392 51.2473C22.3531 51.2732 22.3697 51.2972 22.3836 51.3222C22.5075 51.5451 22.6398 51.7633 22.7804 51.9751C22.834 52.0565 22.8932 52.1333 22.9496 52.2128C23.0578 52.3654 23.1688 52.5161 23.2853 52.6613C23.3538 52.7473 23.4259 52.8297 23.4971 52.9129C23.6118 53.0461 23.7302 53.1765 23.8522 53.3041C23.929 53.3836 24.0067 53.4632 24.0862 53.5399C24.2166 53.6657 24.3507 53.7868 24.4885 53.9052C24.5662 53.9727 24.642 54.0412 24.7225 54.1059C24.8899 54.2409 25.0628 54.3686 25.2395 54.4925C25.295 54.5313 25.3477 54.5748 25.4041 54.6127C25.639 54.7699 25.8804 54.917 26.1292 55.0539C26.1958 55.0899 26.2651 55.1214 26.3326 55.1556C26.5185 55.2518 26.7072 55.3452 26.9005 55.4293C26.9967 55.471 27.0947 55.508 27.1918 55.5468C27.3629 55.6152 27.5358 55.6791 27.7115 55.7373C27.8179 55.7725 27.9252 55.8048 28.0334 55.8363C28.21 55.8881 28.3885 55.9334 28.5689 55.9741C28.6761 55.9981 28.7834 56.0231 28.8916 56.0443C29.0886 56.0823 29.2884 56.1109 29.4891 56.1359C29.5834 56.1479 29.6768 56.1637 29.773 56.1729C30.0708 56.2016 30.3714 56.2182 30.6756 56.2182C33.2087 56.2182 35.5892 55.2324 37.3788 53.4419C37.6544 53.1663 37.9041 52.8722 38.1408 52.5698C38.2093 52.4828 38.2731 52.3941 38.3378 52.3043C38.5126 52.0648 38.6745 51.8188 38.8252 51.5663C38.8742 51.484 38.9269 51.4036 38.9732 51.3194C39.1563 50.9892 39.3209 50.6508 39.4624 50.3021C39.4892 50.2374 39.5087 50.1698 39.5336 50.1042C39.6446 49.8129 39.7399 49.5151 39.8212 49.2136C39.836 49.159 39.8601 49.1063 39.874 49.0517H48.7107V63.2293V69.2407ZM57.0341 60.9173H53.3348V49.0517H57.0341V54.9059V60.9173ZM65.3576 52.5938H61.6583V49.0517H65.3576V52.5938ZM72.3632 43.4297C71.7334 44.0651 70.889 44.4174 69.9817 44.4276V37.5663C71.8564 37.5866 73.3759 39.1172 73.3759 40.9965C73.3759 41.9176 73.0217 42.7768 72.3632 43.4297Z"/>
</mask>
<path d="M69.9817 32.944V2.6568C69.9817 1.37961 68.9469 0.344727 67.6697 0.344727H26.9772C25.7 0.344727 24.6652 1.37961 24.6652 2.6568V8.66818H18.6538C17.3766 8.66818 16.3417 9.70306 16.3417 10.9803V16.9916H10.3303C9.05314 16.9916 8.01826 18.0265 8.01826 19.3037V32.944C5.86896 32.9532 3.85746 33.7921 2.36756 35.2949C0.841594 36.8079 0 38.8333 0 40.9965C0 45.4255 3.59388 49.0295 8.01826 49.0499V71.5528C8.01826 72.83 9.05314 73.8649 10.3303 73.8649H51.0228C52.3 73.8649 53.3348 72.83 53.3348 71.5528V65.5414H59.3462C60.6234 65.5414 61.6583 64.5065 61.6583 63.2293V57.218H67.6697C68.9469 57.218 69.9817 56.1831 69.9817 54.9059V49.0499C72.132 49.0406 74.1425 48.2018 75.6324 46.699C77.1584 45.185 78 43.1606 78 40.9965C78 36.5675 74.4061 32.9643 69.9817 32.944ZM29.2893 4.96887H65.3576V35.2542V44.4276H61.6583V10.9803C61.6583 9.70306 60.6234 8.66818 59.3462 8.66818H29.2893V4.96887ZM20.9659 13.2923H26.9772H57.0341V44.4285H53.3348V31.7889C53.3348 31.6381 53.3191 31.4892 53.2904 31.3431C53.2904 31.3413 53.2904 31.3394 53.2895 31.3366C53.2507 31.1406 53.1776 30.9547 53.0898 30.7753C53.0676 30.73 53.0444 30.6874 53.0195 30.6439C52.9187 30.4682 52.8031 30.2999 52.6569 30.1538L40.1718 17.6686C40.0266 17.5225 39.8582 17.4078 39.6825 17.307C39.6381 17.2811 39.5937 17.258 39.5484 17.2349C39.3699 17.1479 39.185 17.0749 38.9898 17.036C38.9852 17.0351 38.9806 17.036 38.976 17.0351C38.8317 17.0074 38.6856 16.9916 38.5367 16.9916H20.9649L20.9659 13.2923ZM40.8497 24.885L45.4405 29.4759H40.8497V24.885ZM12.6424 21.6158H18.6538H36.2255V31.7889C36.2255 33.0661 37.2604 34.101 38.5376 34.101H48.7107V44.4285H39.874C39.8601 44.373 39.836 44.3212 39.8212 44.2657C39.7399 43.9642 39.6446 43.6683 39.5346 43.3779C39.5096 43.3113 39.4892 43.2429 39.4624 43.1763C39.3209 42.8286 39.1572 42.4901 38.975 42.1608C38.9279 42.0757 38.8742 41.9934 38.8243 41.9102C38.6745 41.6586 38.5135 41.4145 38.3406 41.1768C38.2749 41.0871 38.2102 40.9965 38.1418 40.9086C37.905 40.6071 37.6562 40.314 37.3806 40.0384C35.5902 38.247 33.2097 37.2611 30.6775 37.2611C28.1453 37.2611 25.7648 38.247 23.9743 40.0374C23.6987 40.313 23.449 40.6071 23.2113 40.9095C23.1438 40.9965 23.08 41.0853 23.0153 41.1731C22.8405 41.4126 22.6777 41.6596 22.527 41.9121C22.4779 41.9944 22.4252 42.0748 22.379 42.1581C22.1959 42.4882 22.0313 42.8267 21.8898 43.1763C21.8629 43.241 21.8444 43.3085 21.8195 43.3742C21.7085 43.6655 21.6132 43.9633 21.5318 44.2648C21.517 44.3203 21.493 44.3721 21.4791 44.4276H12.6424V35.2542V21.6158ZM35.5319 46.7397C35.5319 48.0363 35.0269 49.2561 34.1095 50.1735C33.193 51.09 31.9741 51.595 30.6765 51.595C27.9992 51.595 25.8212 49.417 25.8212 46.7397C25.8212 45.443 26.3262 44.2232 27.2436 43.3067C28.1601 42.3893 29.3799 41.8843 30.6765 41.8843C31.9732 41.8843 33.193 42.3893 34.1095 43.3076C35.0269 44.2241 35.5319 45.443 35.5319 46.7397ZM4.62414 40.9965C4.62414 40.0763 4.97835 39.2171 5.63683 38.5642C6.26664 37.9288 7.111 37.5755 8.01826 37.5654V44.4267C6.14363 44.4082 4.62414 42.8757 4.62414 40.9965ZM48.7107 69.2407H12.6424V49.0517H21.4819C21.5078 49.1562 21.5439 49.257 21.5735 49.3597C21.6031 49.4624 21.6317 49.5641 21.6641 49.6649C21.7261 49.8563 21.7973 50.0441 21.8713 50.23C21.9036 50.3123 21.9332 50.3955 21.9674 50.4769C22.0803 50.7395 22.2033 50.9976 22.3392 51.2473C22.3531 51.2732 22.3697 51.2972 22.3836 51.3222C22.5075 51.5451 22.6398 51.7633 22.7804 51.9751C22.834 52.0565 22.8932 52.1333 22.9496 52.2128C23.0578 52.3654 23.1688 52.5161 23.2853 52.6613C23.3538 52.7473 23.4259 52.8297 23.4971 52.9129C23.6118 53.0461 23.7302 53.1765 23.8522 53.3041C23.929 53.3836 24.0067 53.4632 24.0862 53.5399C24.2166 53.6657 24.3507 53.7868 24.4885 53.9052C24.5662 53.9727 24.642 54.0412 24.7225 54.1059C24.8899 54.2409 25.0628 54.3686 25.2395 54.4925C25.295 54.5313 25.3477 54.5748 25.4041 54.6127C25.639 54.7699 25.8804 54.917 26.1292 55.0539C26.1958 55.0899 26.2651 55.1214 26.3326 55.1556C26.5185 55.2518 26.7072 55.3452 26.9005 55.4293C26.9967 55.471 27.0947 55.508 27.1918 55.5468C27.3629 55.6152 27.5358 55.6791 27.7115 55.7373C27.8179 55.7725 27.9252 55.8048 28.0334 55.8363C28.21 55.8881 28.3885 55.9334 28.5689 55.9741C28.6761 55.9981 28.7834 56.0231 28.8916 56.0443C29.0886 56.0823 29.2884 56.1109 29.4891 56.1359C29.5834 56.1479 29.6768 56.1637 29.773 56.1729C30.0708 56.2016 30.3714 56.2182 30.6756 56.2182C33.2087 56.2182 35.5892 55.2324 37.3788 53.4419C37.6544 53.1663 37.9041 52.8722 38.1408 52.5698C38.2093 52.4828 38.2731 52.3941 38.3378 52.3043C38.5126 52.0648 38.6745 51.8188 38.8252 51.5663C38.8742 51.484 38.9269 51.4036 38.9732 51.3194C39.1563 50.9892 39.3209 50.6508 39.4624 50.3021C39.4892 50.2374 39.5087 50.1698 39.5336 50.1042C39.6446 49.8129 39.7399 49.5151 39.8212 49.2136C39.836 49.159 39.8601 49.1063 39.874 49.0517H48.7107V63.2293V69.2407ZM57.0341 60.9173H53.3348V49.0517H57.0341V54.9059V60.9173ZM65.3576 52.5938H61.6583V49.0517H65.3576V52.5938ZM72.3632 43.4297C71.7334 44.0651 70.889 44.4174 69.9817 44.4276V37.5663C71.8564 37.5866 73.3759 39.1172 73.3759 40.9965C73.3759 41.9176 73.0217 42.7768 72.3632 43.4297Z" fill="#517AF6" stroke="white" stroke-width="1.96075" mask="url(#path-1-inside-1_1087_1336)"/>
</svg>
