<svg width="90" height="90" viewBox="0 0 90 90" fill="none" xmlns="http://www.w3.org/2000/svg">
<mask id="path-1-inside-1_1087_1330" fill="white">
<path d="M87.7471 1.04178L77.4384 8.83041C76.8034 9.35585 76.2927 10.0155 75.9432 10.762C75.5936 11.5085 75.4139 12.3231 75.417 13.1474V18.9557C75.4164 19.7058 75.2536 20.447 74.9397 21.1283L68.5258 34.9944C68.4405 35.1838 68.3031 35.345 68.1296 35.459C67.956 35.5731 67.7536 35.6353 67.5459 35.6385C67.226 35.6399 66.9164 35.5251 66.6747 35.3154C66.433 35.1058 66.2756 34.8156 66.2317 34.4986V20.2947C66.2317 18.3556 64.0475 17.143 62.5121 17.0448L55.6992 16.7365C54.8945 16.686 54.1005 16.9419 53.4766 17.4526L50.4368 19.9355C49.9444 20.3392 49.5806 20.8777 49.3899 21.4851C49.1991 22.0925 49.1897 22.7424 49.3629 23.355L51.3301 30.3843C51.5728 31.2527 51.6957 32.1502 51.6954 33.0519V35.3995C51.7016 35.7011 51.588 35.9929 51.3795 36.2109C51.171 36.429 50.8846 36.5555 50.583 36.5627C50.3753 36.5611 50.1722 36.5008 49.9973 36.3888C49.8223 36.2768 49.6826 36.1176 49.5942 35.9296L45.2395 27.0389C45.0824 26.7166 45.0006 26.3627 45.0005 26.0041V16.0856C44.9952 15.3946 45.1628 14.7133 45.488 14.1037C45.8133 13.4941 46.2858 12.9756 46.8627 12.5953L65.4249 2.64578C65.7536 2.4695 65.9988 2.16986 66.1066 1.81278C66.2144 1.45569 66.1759 1.07042 65.9996 0.74171C65.8233 0.413 65.5237 0.167781 65.1666 0.0599989C64.8095 -0.0477836 64.4242 -0.00930095 64.0955 0.166981L45.4833 10.1433C45.4524 10.1598 45.4215 10.1783 45.3912 10.1968C44.4036 10.8281 43.5919 11.6992 43.0318 12.7289C42.4716 13.7586 42.1814 14.9134 42.188 16.0856V26.0041C42.1889 26.7916 42.3687 27.5686 42.714 28.2763L47.0687 37.167C47.2979 37.6441 47.6219 38.0696 48.0211 38.4173C48.4202 38.765 48.8861 39.0277 49.3901 39.1893C49.8942 39.3509 50.426 39.4081 50.9529 39.3572C51.4798 39.3064 51.9908 39.1487 52.4547 38.8937L49.5379 41.1268C49.3243 41.2903 49.162 41.5116 49.0704 41.7644C48.9787 42.0173 48.9615 42.2912 49.0208 42.5535C49.0801 42.8159 49.2133 43.0557 49.4048 43.2446C49.5962 43.4336 49.8378 43.5636 50.1009 43.6194L51.8357 43.987C50.8535 45.1461 49.7969 46.2401 48.6727 47.262C46.0307 49.7561 43.5359 52.1129 44.5013 55.9637C42.0148 56.2142 40.0798 56.9886 39.7236 58.6693C38.9186 62.4692 47.3509 65.3168 52.4603 66.3996C55.0735 66.9625 57.736 67.2658 60.4089 67.3053C63.8256 67.3053 66.7878 66.6228 67.2383 64.5004C67.5942 62.8194 66.1393 61.3265 63.9677 60.0889C66.4105 56.9615 65.0889 53.7954 63.6856 50.444C63.0725 49.0538 62.5505 47.6251 62.1227 46.1672L63.8579 46.5349C63.9539 46.5548 64.0517 46.5649 64.1497 46.5651C64.3938 46.5652 64.6336 46.5017 64.8457 46.381C65.0578 46.2602 65.2348 46.0863 65.3593 45.8764C65.4838 45.6664 65.5515 45.4277 65.5558 45.1837C65.56 44.9397 65.5007 44.6987 65.3836 44.4846L62.3918 39.0062C63.1214 38.3271 63.6253 37.4408 63.8359 36.4666C63.8507 36.3965 63.8581 36.326 63.8699 36.2557C64.2294 36.9176 64.7604 37.4707 65.4071 37.857C66.0538 38.2432 66.7925 38.4484 67.5458 38.451C68.2899 38.4467 69.0173 38.2304 69.6429 37.8275C70.2685 37.4246 70.7663 36.8518 71.0779 36.1762L77.4926 22.3093C77.9767 21.2575 78.228 20.1136 78.2293 18.9557V13.1474C78.2252 12.7475 78.3081 12.3516 78.4725 11.987C78.6368 11.6225 78.8786 11.2982 79.181 11.0366L89.4417 3.28573C89.7393 3.06101 89.9354 2.72728 89.9869 2.35796C90.0384 1.98865 89.9411 1.614 89.7164 1.31643C89.4917 1.01886 89.1579 0.82275 88.7886 0.771242C88.4193 0.719733 88.0446 0.817052 87.7471 1.04178ZM57.4508 19.631L58.6003 19.6831V23.6805C58.6083 23.9295 58.5578 24.1768 58.4528 24.4027C58.3479 24.6285 58.1914 24.8266 57.996 24.9811L57.4508 25.3672L57.4508 19.631ZM52.2165 22.1136L54.6383 20.135V28.003C54.6179 28.2247 54.5333 28.4357 54.3948 28.6101C54.2564 28.7845 54.0701 28.9147 53.8587 28.9849L52.071 22.5963C52.0465 22.5104 52.0472 22.4192 52.073 22.3336C52.0988 22.2481 52.1486 22.1717 52.2165 22.1136ZM56.9571 35.0088C57.0438 34.6008 57.2493 34.2277 57.548 33.9365C57.8466 33.6454 58.2248 33.4492 58.6348 33.3729C59.0448 33.2967 59.4683 33.3436 59.8516 33.5079C60.235 33.6722 60.561 33.9464 60.7886 34.2959C61.0161 34.6454 61.135 35.0545 61.1301 35.4716C61.1252 35.8886 60.9969 36.2948 60.7612 36.6389C60.5255 36.983 60.1931 37.2496 59.8061 37.4048C59.419 37.5601 58.9946 37.5971 58.5864 37.5113L58.5799 37.5099C58.0336 37.3924 57.5561 37.0633 57.2519 36.5945C56.9478 36.1258 56.8418 35.5556 56.9571 35.0088ZM53.6749 41.5017L55.8811 39.8126L57.9888 40.2593L58.0001 40.2623L58.0114 40.2641L60.1184 40.7107L61.4498 43.149L53.6749 41.5017ZM54.275 36.7357C54.3308 36.9419 54.4 37.1443 54.4821 37.3415L53.3774 38.1873C53.7779 37.7738 54.084 37.2786 54.275 36.7357ZM64.3997 63.8995C63.5043 64.4488 59.5712 65.0325 53.0439 63.6489C46.5153 62.2646 43.1569 60.136 42.5619 59.2708C43.011 58.9949 44.2473 58.718 46.1766 58.6797C47.6259 59.9118 50.002 60.8478 53.4662 61.5814C55.2082 61.9958 56.9877 62.233 58.7774 62.2893C59.659 62.3038 60.5371 62.1762 61.378 61.9114C63.0998 62.7216 64.103 63.468 64.3997 63.8995ZM61.0914 51.5303C62.4723 54.8289 63.128 56.6327 61.7314 58.3871C61.0111 59.2832 59.8239 60.0543 54.0492 58.83C49.8194 57.934 47.5336 56.7804 47.2569 55.4002C47.2514 55.3741 47.2459 55.3487 47.239 55.3226C46.6725 53.1446 48.0033 51.7617 50.6036 49.3069C52.1803 47.8955 53.6109 46.3289 54.8738 44.6309L59.0801 45.5224C59.5475 47.5873 60.2213 49.6001 61.0914 51.5303ZM60.0402 30.6315C58.9311 30.397 57.7751 30.5523 56.7672 31.0712C55.7594 31.59 54.9614 32.4407 54.5079 33.4796V33.0519C54.5055 32.6218 54.4813 32.1921 54.4354 31.7645C55.13 31.5783 55.7637 31.2135 56.2735 30.7063C56.7834 30.1992 57.1515 29.5674 57.3414 28.8738C57.3679 28.8575 57.3976 28.8514 57.4234 28.8331L59.6213 27.2765C60.1851 26.8634 60.6419 26.3215 60.9536 25.696C61.2652 25.0704 61.4227 24.3793 61.4128 23.6805V19.8104L62.3583 19.8532C62.7611 19.9068 63.1344 20.0934 63.4192 20.3833V33.2429C63.3372 33.0782 63.2462 32.9182 63.1466 32.7635C62.7955 32.2204 62.3402 31.7523 61.8069 31.3863C61.2737 31.0203 60.6732 30.7638 60.0402 30.6315Z"/>
</mask>
<path d="M87.7471 1.04178L77.4384 8.83041C76.8034 9.35585 76.2927 10.0155 75.9432 10.762C75.5936 11.5085 75.4139 12.3231 75.417 13.1474V18.9557C75.4164 19.7058 75.2536 20.447 74.9397 21.1283L68.5258 34.9944C68.4405 35.1838 68.3031 35.345 68.1296 35.459C67.956 35.5731 67.7536 35.6353 67.5459 35.6385C67.226 35.6399 66.9164 35.5251 66.6747 35.3154C66.433 35.1058 66.2756 34.8156 66.2317 34.4986V20.2947C66.2317 18.3556 64.0475 17.143 62.5121 17.0448L55.6992 16.7365C54.8945 16.686 54.1005 16.9419 53.4766 17.4526L50.4368 19.9355C49.9444 20.3392 49.5806 20.8777 49.3899 21.4851C49.1991 22.0925 49.1897 22.7424 49.3629 23.355L51.3301 30.3843C51.5728 31.2527 51.6957 32.1502 51.6954 33.0519V35.3995C51.7016 35.7011 51.588 35.9929 51.3795 36.2109C51.171 36.429 50.8846 36.5555 50.583 36.5627C50.3753 36.5611 50.1722 36.5008 49.9973 36.3888C49.8223 36.2768 49.6826 36.1176 49.5942 35.9296L45.2395 27.0389C45.0824 26.7166 45.0006 26.3627 45.0005 26.0041V16.0856C44.9952 15.3946 45.1628 14.7133 45.488 14.1037C45.8133 13.4941 46.2858 12.9756 46.8627 12.5953L65.4249 2.64578C65.7536 2.4695 65.9988 2.16986 66.1066 1.81278C66.2144 1.45569 66.1759 1.07042 65.9996 0.74171C65.8233 0.413 65.5237 0.167781 65.1666 0.0599989C64.8095 -0.0477836 64.4242 -0.00930095 64.0955 0.166981L45.4833 10.1433C45.4524 10.1598 45.4215 10.1783 45.3912 10.1968C44.4036 10.8281 43.5919 11.6992 43.0318 12.7289C42.4716 13.7586 42.1814 14.9134 42.188 16.0856V26.0041C42.1889 26.7916 42.3687 27.5686 42.714 28.2763L47.0687 37.167C47.2979 37.6441 47.6219 38.0696 48.0211 38.4173C48.4202 38.765 48.8861 39.0277 49.3901 39.1893C49.8942 39.3509 50.426 39.4081 50.9529 39.3572C51.4798 39.3064 51.9908 39.1487 52.4547 38.8937L49.5379 41.1268C49.3243 41.2903 49.162 41.5116 49.0704 41.7644C48.9787 42.0173 48.9615 42.2912 49.0208 42.5535C49.0801 42.8159 49.2133 43.0557 49.4048 43.2446C49.5962 43.4336 49.8378 43.5636 50.1009 43.6194L51.8357 43.987C50.8535 45.1461 49.7969 46.2401 48.6727 47.262C46.0307 49.7561 43.5359 52.1129 44.5013 55.9637C42.0148 56.2142 40.0798 56.9886 39.7236 58.6693C38.9186 62.4692 47.3509 65.3168 52.4603 66.3996C55.0735 66.9625 57.736 67.2658 60.4089 67.3053C63.8256 67.3053 66.7878 66.6228 67.2383 64.5004C67.5942 62.8194 66.1393 61.3265 63.9677 60.0889C66.4105 56.9615 65.0889 53.7954 63.6856 50.444C63.0725 49.0538 62.5505 47.6251 62.1227 46.1672L63.8579 46.5349C63.9539 46.5548 64.0517 46.5649 64.1497 46.5651C64.3938 46.5652 64.6336 46.5017 64.8457 46.381C65.0578 46.2602 65.2348 46.0863 65.3593 45.8764C65.4838 45.6664 65.5515 45.4277 65.5558 45.1837C65.56 44.9397 65.5007 44.6987 65.3836 44.4846L62.3918 39.0062C63.1214 38.3271 63.6253 37.4408 63.8359 36.4666C63.8507 36.3965 63.8581 36.326 63.8699 36.2557C64.2294 36.9176 64.7604 37.4707 65.4071 37.857C66.0538 38.2432 66.7925 38.4484 67.5458 38.451C68.2899 38.4467 69.0173 38.2304 69.6429 37.8275C70.2685 37.4246 70.7663 36.8518 71.0779 36.1762L77.4926 22.3093C77.9767 21.2575 78.228 20.1136 78.2293 18.9557V13.1474C78.2252 12.7475 78.3081 12.3516 78.4725 11.987C78.6368 11.6225 78.8786 11.2982 79.181 11.0366L89.4417 3.28573C89.7393 3.06101 89.9354 2.72728 89.9869 2.35796C90.0384 1.98865 89.9411 1.614 89.7164 1.31643C89.4917 1.01886 89.1579 0.82275 88.7886 0.771242C88.4193 0.719733 88.0446 0.817052 87.7471 1.04178ZM57.4508 19.631L58.6003 19.6831V23.6805C58.6083 23.9295 58.5578 24.1768 58.4528 24.4027C58.3479 24.6285 58.1914 24.8266 57.996 24.9811L57.4508 25.3672L57.4508 19.631ZM52.2165 22.1136L54.6383 20.135V28.003C54.6179 28.2247 54.5333 28.4357 54.3948 28.6101C54.2564 28.7845 54.0701 28.9147 53.8587 28.9849L52.071 22.5963C52.0465 22.5104 52.0472 22.4192 52.073 22.3336C52.0988 22.2481 52.1486 22.1717 52.2165 22.1136ZM56.9571 35.0088C57.0438 34.6008 57.2493 34.2277 57.548 33.9365C57.8466 33.6454 58.2248 33.4492 58.6348 33.3729C59.0448 33.2967 59.4683 33.3436 59.8516 33.5079C60.235 33.6722 60.561 33.9464 60.7886 34.2959C61.0161 34.6454 61.135 35.0545 61.1301 35.4716C61.1252 35.8886 60.9969 36.2948 60.7612 36.6389C60.5255 36.983 60.1931 37.2496 59.8061 37.4048C59.419 37.5601 58.9946 37.5971 58.5864 37.5113L58.5799 37.5099C58.0336 37.3924 57.5561 37.0633 57.2519 36.5945C56.9478 36.1258 56.8418 35.5556 56.9571 35.0088ZM53.6749 41.5017L55.8811 39.8126L57.9888 40.2593L58.0001 40.2623L58.0114 40.2641L60.1184 40.7107L61.4498 43.149L53.6749 41.5017ZM54.275 36.7357C54.3308 36.9419 54.4 37.1443 54.4821 37.3415L53.3774 38.1873C53.7779 37.7738 54.084 37.2786 54.275 36.7357ZM64.3997 63.8995C63.5043 64.4488 59.5712 65.0325 53.0439 63.6489C46.5153 62.2646 43.1569 60.136 42.5619 59.2708C43.011 58.9949 44.2473 58.718 46.1766 58.6797C47.6259 59.9118 50.002 60.8478 53.4662 61.5814C55.2082 61.9958 56.9877 62.233 58.7774 62.2893C59.659 62.3038 60.5371 62.1762 61.378 61.9114C63.0998 62.7216 64.103 63.468 64.3997 63.8995ZM61.0914 51.5303C62.4723 54.8289 63.128 56.6327 61.7314 58.3871C61.0111 59.2832 59.8239 60.0543 54.0492 58.83C49.8194 57.934 47.5336 56.7804 47.2569 55.4002C47.2514 55.3741 47.2459 55.3487 47.239 55.3226C46.6725 53.1446 48.0033 51.7617 50.6036 49.3069C52.1803 47.8955 53.6109 46.3289 54.8738 44.6309L59.0801 45.5224C59.5475 47.5873 60.2213 49.6001 61.0914 51.5303ZM60.0402 30.6315C58.9311 30.397 57.7751 30.5523 56.7672 31.0712C55.7594 31.59 54.9614 32.4407 54.5079 33.4796V33.0519C54.5055 32.6218 54.4813 32.1921 54.4354 31.7645C55.13 31.5783 55.7637 31.2135 56.2735 30.7063C56.7834 30.1992 57.1515 29.5674 57.3414 28.8738C57.3679 28.8575 57.3976 28.8514 57.4234 28.8331L59.6213 27.2765C60.1851 26.8634 60.6419 26.3215 60.9536 25.696C61.2652 25.0704 61.4227 24.3793 61.4128 23.6805V19.8104L62.3583 19.8532C62.7611 19.9068 63.1344 20.0934 63.4192 20.3833V33.2429C63.3372 33.0782 63.2462 32.9182 63.1466 32.7635C62.7955 32.2204 62.3402 31.7523 61.8069 31.3863C61.2737 31.0203 60.6732 30.7638 60.0402 30.6315Z" fill="#517AF6" stroke="white" stroke-width="0.75" mask="url(#path-1-inside-1_1087_1330)"/>
<mask id="path-2-inside-2_1087_1330" fill="white">
<path d="M0.010778 39.8003C0.0128662 39.8492 0.0174778 39.8979 0.0245944 39.9463C0.0327929 39.9917 0.0472562 40.0343 0.0597015 40.078C0.0724914 40.1228 0.0830875 40.1681 0.100082 40.211C0.117119 40.254 0.139696 40.2936 0.16072 40.3344C0.181146 40.3741 0.199603 40.4145 0.223593 40.4519C0.248568 40.4908 0.278395 40.5256 0.307019 40.5618C0.33423 40.5963 0.359754 40.6318 0.389988 40.6636C0.421629 40.6968 0.457411 40.7252 0.492167 40.7551C0.525642 40.784 0.557487 40.8142 0.593621 40.8398C0.631386 40.8667 0.672582 40.888 0.713012 40.911C0.751248 40.9328 0.78807 40.9564 0.8285 40.9746C0.872931 40.993 0.918282 41.0092 0.964372 41.0229C1.00591 41.0368 1.04626 41.0527 1.08947 41.0626C1.13898 41.0724 1.18897 41.0795 1.23924 41.0839C1.2761 41.0883 1.31121 41.0979 1.34893 41.0994L1.39497 41.1005L1.39768 41.1008C2.94053 41.1103 4.91521 41.495 5.97843 43.1222C5.57847 43.6536 5.33393 44.2857 5.27207 44.9479C5.21022 45.6101 5.33348 46.2765 5.62811 46.8728C5.89159 47.4168 6.28308 47.8889 6.769 48.2485C7.25493 48.608 7.8208 48.8444 8.41812 48.9373C8.45466 49.3382 8.56093 49.7296 8.73213 50.0938C9.02188 50.6917 9.47453 51.1955 10.038 51.5474C10.6014 51.8993 11.2528 52.085 11.9171 52.0831C11.9983 52.0831 12.0799 52.0756 12.1613 52.07C15.2847 57.838 15.4086 63.354 15.5114 68.2316C15.6176 73.2722 15.7141 77.671 19.318 80.3981C19.1229 80.6814 18.9636 80.9878 18.8437 81.3102C18.6574 81.8272 18.5762 82.3761 18.605 82.9249C18.6337 83.4737 18.7717 84.0112 19.0109 84.5059C19.3506 85.2052 19.8766 85.7974 20.5311 86.2171C21.1856 86.6368 21.9432 86.8679 22.7205 86.8848C22.7591 87.2747 22.8637 87.6551 23.0298 88.0098C23.4358 88.8447 24.1537 89.4865 25.0287 89.7966C25.9037 90.1067 26.8655 90.0603 27.7066 89.6674L42.9807 82.5289C43.3988 82.3354 43.7743 82.0608 44.0854 81.721C44.3965 81.3813 44.637 80.9831 44.793 80.5496C44.9491 80.1162 45.0174 79.656 44.9942 79.1959C44.971 78.7358 44.8567 78.2849 44.6578 77.8693C44.4846 77.5187 44.253 77.2002 43.9728 76.9274C44.4593 76.3245 44.7635 75.5951 44.8494 74.8252C44.9353 74.0552 44.7994 73.2767 44.4577 72.5815C44.1055 71.8558 43.5533 71.246 42.8661 70.8238C42.1789 70.4015 41.3853 70.1845 40.5789 70.1983C40.5969 65.8515 37.2712 63.0333 33.4597 59.8188C29.7338 56.677 25.5296 53.1206 22.9795 47.1774C23.3761 46.8792 23.7031 46.4984 23.938 46.0614C24.173 45.6244 24.3102 45.1416 24.3403 44.6464C24.3703 44.1512 24.2925 43.6553 24.1121 43.1931C23.9318 42.7309 23.6532 42.3134 23.2957 41.9694C23.4112 41.7734 23.5086 41.5672 23.5867 41.3535C23.7519 40.8947 23.8238 40.4076 23.7982 39.9206C23.7726 39.4336 23.6501 38.9566 23.4377 38.5177C23.1449 37.9175 22.6967 37.4067 22.1396 37.0385C21.5825 36.6703 20.9369 36.4581 20.27 36.424C19.7728 34.9433 20.2079 33.3449 21.5865 31.6629C21.5933 31.6546 21.5973 31.6451 21.6039 31.6367C21.6111 31.6275 21.62 31.6207 21.627 31.6114C21.6496 31.581 21.6643 31.5474 21.6841 31.5159C21.7103 31.4767 21.7345 31.4363 21.7566 31.3948C21.7773 31.3531 21.7921 31.3102 21.8084 31.2673C21.8248 31.2239 21.8423 31.1813 21.8542 31.137C21.8662 31.0927 21.8725 31.0478 21.88 31.0028C21.8873 30.9585 21.8959 30.9146 21.899 30.87C21.9021 30.8244 21.8998 30.7793 21.8985 30.7338C21.8973 30.6892 21.8973 30.645 21.8919 30.6007C21.8864 30.556 21.8756 30.5127 21.8659 30.4688C21.8562 30.4246 21.8476 30.3805 21.8336 30.3374C21.8198 30.2949 21.801 30.2546 21.7831 30.2135C21.766 30.171 21.7467 30.1294 21.7254 30.0888C21.7033 30.049 21.6761 30.0122 21.65 29.9745C21.6246 29.9358 21.5973 29.8984 21.5682 29.8625C21.5381 29.8271 21.5031 29.7956 21.4691 29.7629C21.4421 29.737 21.4198 29.7081 21.3904 29.684C21.3814 29.6766 21.3711 29.6722 21.3619 29.6651C21.3533 29.6584 21.347 29.65 21.3382 29.6435C20.7459 29.2606 20.0703 29.0252 19.3682 28.9573C18.6661 28.8893 17.958 28.9906 17.3032 29.2528C16.0056 29.6775 14.84 30.4307 13.9197 31.4392C12.2711 29.8693 10.0462 28.3879 8.54743 28.1558C8.52791 28.1519 8.50863 28.1484 8.48907 28.1453C8.47014 28.1428 8.44933 28.1371 8.43062 28.1349C8.40174 28.1316 8.37401 28.1354 8.34539 28.1339C8.29562 28.1306 8.24571 28.13 8.19587 28.132C8.15025 28.1344 8.10604 28.1406 8.0615 28.1473C8.0172 28.1541 7.97357 28.1614 7.93014 28.1723C7.88438 28.1841 7.83926 28.1982 7.79495 28.2146C7.7544 28.2292 7.7147 28.2446 7.67552 28.2629C7.63286 28.2829 7.59239 28.3056 7.55209 28.3297C7.51463 28.352 7.47806 28.3749 7.44262 28.4008C7.40421 28.4295 7.36729 28.4601 7.33202 28.4926C7.30082 28.5207 7.27015 28.5488 7.24132 28.5801C7.20597 28.6193 7.17286 28.6603 7.14214 28.7032C7.12643 28.7246 7.10738 28.7421 7.0927 28.7646C7.08249 28.7802 7.07318 28.8001 7.06305 28.8163C7.05335 28.8326 7.04387 28.8488 7.03481 28.8656C6.28323 30.1167 5.83266 32.7535 6.03411 35.0831C4.66627 35.1605 3.3417 35.5903 2.18901 36.3307C1.58576 36.6659 1.07203 37.1414 0.691213 37.717C0.310396 38.2925 0.073672 38.9513 0.00103265 39.6376C0.000688116 39.6462 0.00274828 39.6543 0.00253734 39.6629C0.00236859 39.6709 4.82703e-05 39.6783 6.08275e-06 39.6863C-0.000254074 39.7254 0.0079022 39.7621 0.010778 39.8003ZM11.2679 48.8771C11.2301 48.7991 11.2083 48.7143 11.2037 48.6278C11.1991 48.5412 11.2118 48.4547 11.2411 48.3731C11.2474 48.3553 11.2621 48.3426 11.2698 48.3255L21.007 43.7754C21.105 43.8006 21.1963 43.8468 21.2746 43.9108C21.3529 43.9748 21.4164 44.0551 21.4605 44.1461C21.4981 44.224 21.5199 44.3087 21.5244 44.3951C21.529 44.4815 21.5162 44.568 21.4869 44.6494C21.456 44.7351 21.4083 44.8136 21.3466 44.8806C21.285 44.9476 21.2106 45.0016 21.1278 45.0395L12.2182 49.2032C12.0488 49.2848 11.854 49.2963 11.6761 49.2352C11.4982 49.1742 11.3516 49.0455 11.2679 48.8771ZM42.1488 79.5908C42.1179 79.6766 42.0703 79.7553 42.0086 79.8224C41.947 79.8894 41.8725 79.9436 41.7897 79.9815L26.5156 87.1199C26.3459 87.2008 26.1509 87.2118 25.9732 87.1506C25.7955 87.0893 25.649 86.9607 25.5653 86.7924C25.5277 86.7146 25.506 86.63 25.5014 86.5437C25.4969 86.4574 25.5096 86.3711 25.5388 86.2897C25.5697 86.204 25.6173 86.1253 25.679 86.0582C25.7407 85.9911 25.8151 85.937 25.8979 85.899L41.1724 78.7607C41.2695 78.7154 41.3753 78.692 41.4824 78.692C41.6154 78.6909 41.7461 78.7273 41.8593 78.7972C41.9725 78.867 42.0637 78.9674 42.1224 79.0868C42.16 79.1649 42.1818 79.2496 42.1863 79.3362C42.1909 79.4227 42.1781 79.5093 42.1488 79.5908ZM41.9219 73.7983C41.9993 73.9581 42.0439 74.1318 42.0533 74.3091C42.0626 74.4865 42.0364 74.6639 41.9761 74.831C41.9143 75.0035 41.8186 75.1619 41.6947 75.2969C41.5707 75.4319 41.4211 75.5408 41.2545 75.6172L41.2541 75.6179L23.4346 83.9462C23.0966 84.106 22.7093 84.1266 22.3562 84.0037C22.0031 83.8808 21.7124 83.6242 21.5466 83.2891C21.4692 83.1293 21.4246 82.9556 21.4153 82.7782C21.4059 82.6009 21.4322 82.4234 21.4924 82.2564C21.5543 82.0837 21.65 81.9251 21.7739 81.7899C21.8978 81.6547 22.0475 81.5455 22.2141 81.4688L40.0339 73.1411C40.225 73.0518 40.4334 73.0053 40.6444 73.0052C40.9104 73.0037 41.1714 73.0773 41.3974 73.2176C41.6234 73.3579 41.8052 73.5592 41.9219 73.7983ZM31.6469 61.9694C35.8461 65.5097 38.1982 67.6775 37.7103 71.0544C37.7069 71.0781 37.7095 71.101 37.7073 71.1245L21.6826 78.6133C21.658 78.5963 21.6372 78.5757 21.6112 78.5602C18.6473 76.7879 18.4379 73.6197 18.3232 68.1719C18.221 63.3224 18.0854 57.3303 14.8234 51.0902L20.4677 48.4524C23.2906 54.9104 27.9069 58.8157 31.6469 61.9694ZM20.9022 39.7344C20.9527 39.8387 20.9818 39.952 20.9879 40.0676C20.9941 40.1833 20.9771 40.299 20.9379 40.408C20.897 40.5216 20.8339 40.6258 20.7523 40.7147C20.6706 40.8036 20.5721 40.8753 20.4624 40.9257L20.3281 40.9885C19.9795 41.0312 19.6395 41.1265 19.3195 41.2711L10.4092 45.4349C10.0932 45.5882 9.80196 45.7879 9.54522 46.0276L9.41463 46.0886C9.19108 46.1947 8.93451 46.2088 8.70068 46.1279C8.46686 46.047 8.27412 45.8775 8.1639 45.656C8.11347 45.5518 8.08434 45.4385 8.07821 45.3228C8.07208 45.2072 8.08907 45.0915 8.12819 44.9824C8.1691 44.8689 8.23222 44.7646 8.31386 44.6757C8.3955 44.5868 8.49403 44.5151 8.6037 44.4647L19.6522 39.3018C19.7791 39.2423 19.9175 39.2114 20.0577 39.2112C20.2334 39.2099 20.406 39.2584 20.5554 39.3509C20.7049 39.4435 20.8251 39.5765 20.9022 39.7344ZM13.0202 34.6038L13.0212 34.6048C13.0846 34.6859 13.1568 34.7599 13.2364 34.8252C13.2609 34.8457 13.2877 34.8615 13.3134 34.8801C13.3684 34.9209 13.4264 34.9575 13.4868 34.9897C13.5227 35.0084 13.5595 35.0231 13.5967 35.0385C13.6301 35.0524 13.6605 35.0709 13.6955 35.0824C13.7121 35.0878 13.7289 35.0857 13.7455 35.0904C13.8668 35.1272 13.9926 35.1474 14.1193 35.1506C14.1245 35.1506 14.1298 35.1531 14.135 35.1531C14.2839 35.1526 14.4319 35.1284 14.5732 35.0813C14.6038 35.0713 14.6304 35.0497 14.6604 35.0375C14.7706 34.9955 14.8751 34.9398 14.9714 34.8717C14.9779 34.8669 14.9858 34.8656 14.9923 34.8606C15.0841 34.7881 15.1665 34.7042 15.2375 34.6111C15.2545 34.5895 15.2689 34.5668 15.2847 34.5441C15.3634 34.4342 15.4259 34.3135 15.4701 34.1857L15.4705 34.1849C15.7253 33.6581 16.0862 33.1895 16.5306 32.8087C16.975 32.4279 17.4932 32.1429 18.0529 31.9717C17.2136 33.5761 17.0334 35.4446 17.5507 37.1797L8.29681 41.5041C7.2646 40.0018 5.69386 38.9543 3.91021 38.5787C4.40282 38.2645 4.95434 38.054 5.53105 37.9601C6.10777 37.8663 6.69757 37.8911 7.26439 38.0329C7.28053 38.0391 7.2971 38.0407 7.31332 38.0463C7.34074 38.0557 7.36851 38.0612 7.39653 38.069C7.50321 38.0991 7.61309 38.1163 7.72385 38.1204C7.73964 38.1209 7.75423 38.1276 7.77012 38.1276C7.77608 38.1276 7.78218 38.1247 7.78814 38.1247C7.91994 38.1218 8.05067 38.1004 8.17644 38.0609C8.19005 38.0568 8.20391 38.0587 8.21747 38.0542C8.23815 38.0472 8.2557 38.0356 8.27588 38.0278C8.32141 38.01 8.36597 37.9899 8.40939 37.9675C8.44909 37.9471 8.48771 37.9261 8.52478 37.9025C8.56371 37.8777 8.60036 37.8504 8.63675 37.8218C8.67233 37.7937 8.70696 37.7654 8.73941 37.7343C8.77215 37.703 8.80228 37.6695 8.83211 37.6348C8.86219 37.5998 8.89099 37.5646 8.91738 37.5269C8.9424 37.4913 8.96489 37.4541 8.98673 37.4157C9.01176 37.3722 9.03443 37.3274 9.05463 37.2815C9.06291 37.2625 9.0748 37.2462 9.08231 37.2267C9.09012 37.2065 9.09235 37.1858 9.09918 37.1654C9.11529 37.1172 9.12875 37.0681 9.13952 37.0185C9.14883 36.9758 9.15664 36.9336 9.16188 36.891C9.17236 36.7984 9.17442 36.7052 9.16806 36.6123C9.16476 36.5696 9.15888 36.5273 9.15149 36.4845C9.14291 36.4342 9.13159 36.3844 9.11759 36.3353C9.11171 36.3148 9.11047 36.2941 9.1036 36.2737C8.6974 34.647 8.69059 32.9461 9.08373 31.3162C10.5855 32.1627 11.9196 33.2769 13.0202 34.6038Z"/>
</mask>
<path d="M0.010778 39.8003C0.0128662 39.8492 0.0174778 39.8979 0.0245944 39.9463C0.0327929 39.9917 0.0472562 40.0343 0.0597015 40.078C0.0724914 40.1228 0.0830875 40.1681 0.100082 40.211C0.117119 40.254 0.139696 40.2936 0.16072 40.3344C0.181146 40.3741 0.199603 40.4145 0.223593 40.4519C0.248568 40.4908 0.278395 40.5256 0.307019 40.5618C0.33423 40.5963 0.359754 40.6318 0.389988 40.6636C0.421629 40.6968 0.457411 40.7252 0.492167 40.7551C0.525642 40.784 0.557487 40.8142 0.593621 40.8398C0.631386 40.8667 0.672582 40.888 0.713012 40.911C0.751248 40.9328 0.78807 40.9564 0.8285 40.9746C0.872931 40.993 0.918282 41.0092 0.964372 41.0229C1.00591 41.0368 1.04626 41.0527 1.08947 41.0626C1.13898 41.0724 1.18897 41.0795 1.23924 41.0839C1.2761 41.0883 1.31121 41.0979 1.34893 41.0994L1.39497 41.1005L1.39768 41.1008C2.94053 41.1103 4.91521 41.495 5.97843 43.1222C5.57847 43.6536 5.33393 44.2857 5.27207 44.9479C5.21022 45.6101 5.33348 46.2765 5.62811 46.8728C5.89159 47.4168 6.28308 47.8889 6.769 48.2485C7.25493 48.608 7.8208 48.8444 8.41812 48.9373C8.45466 49.3382 8.56093 49.7296 8.73213 50.0938C9.02188 50.6917 9.47453 51.1955 10.038 51.5474C10.6014 51.8993 11.2528 52.085 11.9171 52.0831C11.9983 52.0831 12.0799 52.0756 12.1613 52.07C15.2847 57.838 15.4086 63.354 15.5114 68.2316C15.6176 73.2722 15.7141 77.671 19.318 80.3981C19.1229 80.6814 18.9636 80.9878 18.8437 81.3102C18.6574 81.8272 18.5762 82.3761 18.605 82.9249C18.6337 83.4737 18.7717 84.0112 19.0109 84.5059C19.3506 85.2052 19.8766 85.7974 20.5311 86.2171C21.1856 86.6368 21.9432 86.8679 22.7205 86.8848C22.7591 87.2747 22.8637 87.6551 23.0298 88.0098C23.4358 88.8447 24.1537 89.4865 25.0287 89.7966C25.9037 90.1067 26.8655 90.0603 27.7066 89.6674L42.9807 82.5289C43.3988 82.3354 43.7743 82.0608 44.0854 81.721C44.3965 81.3813 44.637 80.9831 44.793 80.5496C44.9491 80.1162 45.0174 79.656 44.9942 79.1959C44.971 78.7358 44.8567 78.2849 44.6578 77.8693C44.4846 77.5187 44.253 77.2002 43.9728 76.9274C44.4593 76.3245 44.7635 75.5951 44.8494 74.8252C44.9353 74.0552 44.7994 73.2767 44.4577 72.5815C44.1055 71.8558 43.5533 71.246 42.8661 70.8238C42.1789 70.4015 41.3853 70.1845 40.5789 70.1983C40.5969 65.8515 37.2712 63.0333 33.4597 59.8188C29.7338 56.677 25.5296 53.1206 22.9795 47.1774C23.3761 46.8792 23.7031 46.4984 23.938 46.0614C24.173 45.6244 24.3102 45.1416 24.3403 44.6464C24.3703 44.1512 24.2925 43.6553 24.1121 43.1931C23.9318 42.7309 23.6532 42.3134 23.2957 41.9694C23.4112 41.7734 23.5086 41.5672 23.5867 41.3535C23.7519 40.8947 23.8238 40.4076 23.7982 39.9206C23.7726 39.4336 23.6501 38.9566 23.4377 38.5177C23.1449 37.9175 22.6967 37.4067 22.1396 37.0385C21.5825 36.6703 20.9369 36.4581 20.27 36.424C19.7728 34.9433 20.2079 33.3449 21.5865 31.6629C21.5933 31.6546 21.5973 31.6451 21.6039 31.6367C21.6111 31.6275 21.62 31.6207 21.627 31.6114C21.6496 31.581 21.6643 31.5474 21.6841 31.5159C21.7103 31.4767 21.7345 31.4363 21.7566 31.3948C21.7773 31.3531 21.7921 31.3102 21.8084 31.2673C21.8248 31.2239 21.8423 31.1813 21.8542 31.137C21.8662 31.0927 21.8725 31.0478 21.88 31.0028C21.8873 30.9585 21.8959 30.9146 21.899 30.87C21.9021 30.8244 21.8998 30.7793 21.8985 30.7338C21.8973 30.6892 21.8973 30.645 21.8919 30.6007C21.8864 30.556 21.8756 30.5127 21.8659 30.4688C21.8562 30.4246 21.8476 30.3805 21.8336 30.3374C21.8198 30.2949 21.801 30.2546 21.7831 30.2135C21.766 30.171 21.7467 30.1294 21.7254 30.0888C21.7033 30.049 21.6761 30.0122 21.65 29.9745C21.6246 29.9358 21.5973 29.8984 21.5682 29.8625C21.5381 29.8271 21.5031 29.7956 21.4691 29.7629C21.4421 29.737 21.4198 29.7081 21.3904 29.684C21.3814 29.6766 21.3711 29.6722 21.3619 29.6651C21.3533 29.6584 21.347 29.65 21.3382 29.6435C20.7459 29.2606 20.0703 29.0252 19.3682 28.9573C18.6661 28.8893 17.958 28.9906 17.3032 29.2528C16.0056 29.6775 14.84 30.4307 13.9197 31.4392C12.2711 29.8693 10.0462 28.3879 8.54743 28.1558C8.52791 28.1519 8.50863 28.1484 8.48907 28.1453C8.47014 28.1428 8.44933 28.1371 8.43062 28.1349C8.40174 28.1316 8.37401 28.1354 8.34539 28.1339C8.29562 28.1306 8.24571 28.13 8.19587 28.132C8.15025 28.1344 8.10604 28.1406 8.0615 28.1473C8.0172 28.1541 7.97357 28.1614 7.93014 28.1723C7.88438 28.1841 7.83926 28.1982 7.79495 28.2146C7.7544 28.2292 7.7147 28.2446 7.67552 28.2629C7.63286 28.2829 7.59239 28.3056 7.55209 28.3297C7.51463 28.352 7.47806 28.3749 7.44262 28.4008C7.40421 28.4295 7.36729 28.4601 7.33202 28.4926C7.30082 28.5207 7.27015 28.5488 7.24132 28.5801C7.20597 28.6193 7.17286 28.6603 7.14214 28.7032C7.12643 28.7246 7.10738 28.7421 7.0927 28.7646C7.08249 28.7802 7.07318 28.8001 7.06305 28.8163C7.05335 28.8326 7.04387 28.8488 7.03481 28.8656C6.28323 30.1167 5.83266 32.7535 6.03411 35.0831C4.66627 35.1605 3.3417 35.5903 2.18901 36.3307C1.58576 36.6659 1.07203 37.1414 0.691213 37.717C0.310396 38.2925 0.073672 38.9513 0.00103265 39.6376C0.000688116 39.6462 0.00274828 39.6543 0.00253734 39.6629C0.00236859 39.6709 4.82703e-05 39.6783 6.08275e-06 39.6863C-0.000254074 39.7254 0.0079022 39.7621 0.010778 39.8003ZM11.2679 48.8771C11.2301 48.7991 11.2083 48.7143 11.2037 48.6278C11.1991 48.5412 11.2118 48.4547 11.2411 48.3731C11.2474 48.3553 11.2621 48.3426 11.2698 48.3255L21.007 43.7754C21.105 43.8006 21.1963 43.8468 21.2746 43.9108C21.3529 43.9748 21.4164 44.0551 21.4605 44.1461C21.4981 44.224 21.5199 44.3087 21.5244 44.3951C21.529 44.4815 21.5162 44.568 21.4869 44.6494C21.456 44.7351 21.4083 44.8136 21.3466 44.8806C21.285 44.9476 21.2106 45.0016 21.1278 45.0395L12.2182 49.2032C12.0488 49.2848 11.854 49.2963 11.6761 49.2352C11.4982 49.1742 11.3516 49.0455 11.2679 48.8771ZM42.1488 79.5908C42.1179 79.6766 42.0703 79.7553 42.0086 79.8224C41.947 79.8894 41.8725 79.9436 41.7897 79.9815L26.5156 87.1199C26.3459 87.2008 26.1509 87.2118 25.9732 87.1506C25.7955 87.0893 25.649 86.9607 25.5653 86.7924C25.5277 86.7146 25.506 86.63 25.5014 86.5437C25.4969 86.4574 25.5096 86.3711 25.5388 86.2897C25.5697 86.204 25.6173 86.1253 25.679 86.0582C25.7407 85.9911 25.8151 85.937 25.8979 85.899L41.1724 78.7607C41.2695 78.7154 41.3753 78.692 41.4824 78.692C41.6154 78.6909 41.7461 78.7273 41.8593 78.7972C41.9725 78.867 42.0637 78.9674 42.1224 79.0868C42.16 79.1649 42.1818 79.2496 42.1863 79.3362C42.1909 79.4227 42.1781 79.5093 42.1488 79.5908ZM41.9219 73.7983C41.9993 73.9581 42.0439 74.1318 42.0533 74.3091C42.0626 74.4865 42.0364 74.6639 41.9761 74.831C41.9143 75.0035 41.8186 75.1619 41.6947 75.2969C41.5707 75.4319 41.4211 75.5408 41.2545 75.6172L41.2541 75.6179L23.4346 83.9462C23.0966 84.106 22.7093 84.1266 22.3562 84.0037C22.0031 83.8808 21.7124 83.6242 21.5466 83.2891C21.4692 83.1293 21.4246 82.9556 21.4153 82.7782C21.4059 82.6009 21.4322 82.4234 21.4924 82.2564C21.5543 82.0837 21.65 81.9251 21.7739 81.7899C21.8978 81.6547 22.0475 81.5455 22.2141 81.4688L40.0339 73.1411C40.225 73.0518 40.4334 73.0053 40.6444 73.0052C40.9104 73.0037 41.1714 73.0773 41.3974 73.2176C41.6234 73.3579 41.8052 73.5592 41.9219 73.7983ZM31.6469 61.9694C35.8461 65.5097 38.1982 67.6775 37.7103 71.0544C37.7069 71.0781 37.7095 71.101 37.7073 71.1245L21.6826 78.6133C21.658 78.5963 21.6372 78.5757 21.6112 78.5602C18.6473 76.7879 18.4379 73.6197 18.3232 68.1719C18.221 63.3224 18.0854 57.3303 14.8234 51.0902L20.4677 48.4524C23.2906 54.9104 27.9069 58.8157 31.6469 61.9694ZM20.9022 39.7344C20.9527 39.8387 20.9818 39.952 20.9879 40.0676C20.9941 40.1833 20.9771 40.299 20.9379 40.408C20.897 40.5216 20.8339 40.6258 20.7523 40.7147C20.6706 40.8036 20.5721 40.8753 20.4624 40.9257L20.3281 40.9885C19.9795 41.0312 19.6395 41.1265 19.3195 41.2711L10.4092 45.4349C10.0932 45.5882 9.80196 45.7879 9.54522 46.0276L9.41463 46.0886C9.19108 46.1947 8.93451 46.2088 8.70068 46.1279C8.46686 46.047 8.27412 45.8775 8.1639 45.656C8.11347 45.5518 8.08434 45.4385 8.07821 45.3228C8.07208 45.2072 8.08907 45.0915 8.12819 44.9824C8.1691 44.8689 8.23222 44.7646 8.31386 44.6757C8.3955 44.5868 8.49403 44.5151 8.6037 44.4647L19.6522 39.3018C19.7791 39.2423 19.9175 39.2114 20.0577 39.2112C20.2334 39.2099 20.406 39.2584 20.5554 39.3509C20.7049 39.4435 20.8251 39.5765 20.9022 39.7344ZM13.0202 34.6038L13.0212 34.6048C13.0846 34.6859 13.1568 34.7599 13.2364 34.8252C13.2609 34.8457 13.2877 34.8615 13.3134 34.8801C13.3684 34.9209 13.4264 34.9575 13.4868 34.9897C13.5227 35.0084 13.5595 35.0231 13.5967 35.0385C13.6301 35.0524 13.6605 35.0709 13.6955 35.0824C13.7121 35.0878 13.7289 35.0857 13.7455 35.0904C13.8668 35.1272 13.9926 35.1474 14.1193 35.1506C14.1245 35.1506 14.1298 35.1531 14.135 35.1531C14.2839 35.1526 14.4319 35.1284 14.5732 35.0813C14.6038 35.0713 14.6304 35.0497 14.6604 35.0375C14.7706 34.9955 14.8751 34.9398 14.9714 34.8717C14.9779 34.8669 14.9858 34.8656 14.9923 34.8606C15.0841 34.7881 15.1665 34.7042 15.2375 34.6111C15.2545 34.5895 15.2689 34.5668 15.2847 34.5441C15.3634 34.4342 15.4259 34.3135 15.4701 34.1857L15.4705 34.1849C15.7253 33.6581 16.0862 33.1895 16.5306 32.8087C16.975 32.4279 17.4932 32.1429 18.0529 31.9717C17.2136 33.5761 17.0334 35.4446 17.5507 37.1797L8.29681 41.5041C7.2646 40.0018 5.69386 38.9543 3.91021 38.5787C4.40282 38.2645 4.95434 38.054 5.53105 37.9601C6.10777 37.8663 6.69757 37.8911 7.26439 38.0329C7.28053 38.0391 7.2971 38.0407 7.31332 38.0463C7.34074 38.0557 7.36851 38.0612 7.39653 38.069C7.50321 38.0991 7.61309 38.1163 7.72385 38.1204C7.73964 38.1209 7.75423 38.1276 7.77012 38.1276C7.77608 38.1276 7.78218 38.1247 7.78814 38.1247C7.91994 38.1218 8.05067 38.1004 8.17644 38.0609C8.19005 38.0568 8.20391 38.0587 8.21747 38.0542C8.23815 38.0472 8.2557 38.0356 8.27588 38.0278C8.32141 38.01 8.36597 37.9899 8.40939 37.9675C8.44909 37.9471 8.48771 37.9261 8.52478 37.9025C8.56371 37.8777 8.60036 37.8504 8.63675 37.8218C8.67233 37.7937 8.70696 37.7654 8.73941 37.7343C8.77215 37.703 8.80228 37.6695 8.83211 37.6348C8.86219 37.5998 8.89099 37.5646 8.91738 37.5269C8.9424 37.4913 8.96489 37.4541 8.98673 37.4157C9.01176 37.3722 9.03443 37.3274 9.05463 37.2815C9.06291 37.2625 9.0748 37.2462 9.08231 37.2267C9.09012 37.2065 9.09235 37.1858 9.09918 37.1654C9.11529 37.1172 9.12875 37.0681 9.13952 37.0185C9.14883 36.9758 9.15664 36.9336 9.16188 36.891C9.17236 36.7984 9.17442 36.7052 9.16806 36.6123C9.16476 36.5696 9.15888 36.5273 9.15149 36.4845C9.14291 36.4342 9.13159 36.3844 9.11759 36.3353C9.11171 36.3148 9.11047 36.2941 9.1036 36.2737C8.6974 34.647 8.69059 32.9461 9.08373 31.3162C10.5855 32.1627 11.9196 33.2769 13.0202 34.6038Z" fill="#517AF6" stroke="white" stroke-width="0.75" mask="url(#path-2-inside-2_1087_1330)"/>
<path d="M30.6193 39.1252L30.6197 39.1251L34.8385 37.7188L34.8385 37.7188C34.9903 37.6682 35.1307 37.5882 35.2517 37.4833C35.3726 37.3785 35.4717 37.2508 35.5432 37.1077L35.7109 37.1915L35.5432 37.1077C35.6148 36.9645 35.6575 36.8087 35.6689 36.649C35.6802 36.4894 35.66 36.3291 35.6094 36.1772C35.5588 36.0254 35.4788 35.885 35.374 35.7641C35.2691 35.6431 35.1415 35.5441 34.9983 35.4725C34.8552 35.4009 34.6993 35.3582 34.5397 35.3468C34.38 35.3355 34.2197 35.3557 34.0679 35.4063L30.6193 39.1252ZM30.6193 39.1252C30.4952 39.1669 30.3651 39.1882 30.2342 39.1882C29.9447 39.1881 29.6648 39.085 29.4444 38.8973C29.2241 38.7097 29.0776 38.4498 29.0313 38.1641C28.985 37.8784 29.0419 37.5856 29.1917 37.3379C29.3415 37.0903 29.5745 36.9041 29.8491 36.8125C29.8491 36.8125 29.8491 36.8125 29.8491 36.8125L34.0678 35.4063L30.6193 39.1252Z" fill="#517AF6" stroke="white" stroke-width="0.375"/>
<path d="M27.5876 29.0133L27.5877 29.0133C27.9005 29.0949 28.168 29.2975 28.3315 29.5764C28.4949 29.8553 28.5409 30.1877 28.4592 30.5005L28.4592 30.5005L27.3373 34.803C27.3373 34.803 27.3373 34.803 27.3373 34.803C27.2969 34.9579 27.2263 35.1032 27.1298 35.2308C27.0332 35.3584 26.9124 35.4658 26.7743 35.5467C26.6363 35.6276 26.4836 35.6806 26.3251 35.7025C26.1666 35.7244 26.0053 35.7149 25.8504 35.6745C25.6956 35.6341 25.5502 35.5636 25.4226 35.467C25.295 35.3704 25.1877 35.2497 25.1067 35.1116C25.0258 34.9735 24.9729 34.8209 24.951 34.6624C24.929 34.5038 24.9385 34.3425 24.9789 34.1877L24.9789 34.1877L26.1009 29.8851L26.101 29.885C26.1412 29.7301 26.2116 29.5846 26.3082 29.4569C26.4047 29.3292 26.5255 29.2218 26.6635 29.1409C26.8016 29.0599 26.9543 29.007 27.1129 28.9851C27.2714 28.9632 27.4328 28.9728 27.5876 29.0133Z" fill="#517AF6" stroke="white" stroke-width="0.375"/>
<path d="M27.9683 42.5566L27.9683 42.5565C28.0493 42.4184 28.1566 42.2976 28.2842 42.201C28.4118 42.1045 28.5572 42.0339 28.7121 41.9936C28.867 41.9532 29.0283 41.9437 29.1868 41.9656C29.3453 41.9876 29.498 42.0405 29.6361 42.1215L29.6361 42.1215L33.4724 44.371L33.4724 44.371C33.6105 44.4519 33.7313 44.5593 33.8278 44.6869C33.9244 44.8146 33.995 44.96 34.0354 45.1149C34.0757 45.2698 34.0852 45.4311 34.0633 45.5897C34.0413 45.7483 33.9884 45.901 33.9074 46.0391C33.8264 46.1771 33.7191 46.2979 33.5914 46.3945C33.4638 46.4911 33.3183 46.5616 33.1634 46.602C33.0085 46.6424 32.8472 46.6519 32.6886 46.63C32.5301 46.608 32.3774 46.555 32.2393 46.4741L28.403 44.2246C28.2649 44.1437 28.1442 44.0363 28.0476 43.9086C27.951 43.781 27.8805 43.6355 27.8402 43.4806C27.7998 43.3257 27.7903 43.1644 27.8123 43.0059C27.8343 42.8473 27.8873 42.6946 27.9683 42.5566Z" fill="#517AF6" stroke="white" stroke-width="0.375"/>
</svg>
